<svg 
      xmlns="http://www.w3.org/2000/svg" 
      width="339" height="114"
      fill="none" stroke="black" stroke-width="2" 
      stroke-linecap="round" stroke-linejoin="round"
    ><rect x="0" y="0" width="339" height="114" fill="white" stroke="none"></rect><path d="M25.5 64.5 27 61.5 30 58.5 34.5 58.5 36 60 36 64.5 33 73.5 33 76.5 36 79.5 M33 58.5 34.5 60 34.5 64.5 31.5 73.5 31.5 76.5 33 78 36 79.5 39 79.5 42 78 45 75 48 69 M52.5 58.5 46.5 79.5 45 84 42 88.5 37.5 90 33 90 30 88.5 28.5 87 28.5 85.5 30 84 31.5 85.5 30 87 M51 58.5 45 79.5 43.5 84 40.5 88.5 37.5 90 M61.5 61.5 88.5 61.5 M61.5 70.5 88.5 70.5 M99 64.5 102 60 105 58.5 109.5 58.5 111 61.5 111 66 M108 58.5 109.5 61.5 109.5 66 108 72 106.5 75 103.5 78 100.5 79.5 99 79.5 97.5 78 97.5 76.5 99 75 100.5 76.5 99 78 M108 72 108 76.5 109.5 79.5 114 79.5 117 78 120 73.5 M120 60 118.5 61.5 120 63 121.5 61.5 121.5 60 120 58.5 118.5 58.5 115.5 60 112.5 63 111 66 109.5 72 109.5 76.5 111 79.5 M129 33 130.13 34.13 129 35.25 127.88 34.13 127.88 33 129 30.75 130.13 29.63 133.5 28.5 138 28.5 141.38 29.63 142.5 30.75 143.63 33 143.63 35.25 142.5 37.5 139.13 39.75 133.5 42 131.25 43.13 129 45.38 127.88 48.75 127.88 52.13 M138 28.5 140.25 29.63 141.38 30.75 142.5 33 142.5 35.25 141.38 37.5 138 39.75 133.5 42 M127.88 49.88 129 48.75 131.25 48.75 136.88 51 140.25 51 142.5 49.88 143.63 48.75 M131.25 48.75 136.88 52.13 141.38 52.13 142.5 51 143.63 48.75 143.63 46.5 M166.5 52.5 166.5 79.5 M153 66 180 66 M192 54 193.5 55.5 192 57 190.5 55.5 190.5 54 192 51 193.5 49.5 198 48 204 48 208.5 49.5 210 51 211.5 54 211.5 57 210 60 205.5 63 198 66 195 67.5 192 70.5 190.5 75 190.5 79.5 M204 48 207 49.5 208.5 51 210 54 210 57 208.5 60 204 63 198 66 M190.5 76.5 192 75 195 75 202.5 78 207 78 210 76.5 211.5 75 M195 75 202.5 79.5 208.5 79.5 210 78 211.5 75 211.5 72 M220.5 64.5 223.5 60 226.5 58.5 231 58.5 232.5 61.5 232.5 66 M229.5 58.5 231 61.5 231 66 229.5 72 228 75 225 78 222 79.5 220.5 79.5 219 78 219 76.5 220.5 75 222 76.5 220.5 78 M229.5 72 229.5 76.5 231 79.5 235.5 79.5 238.5 78 241.5 73.5 M241.5 60 240 61.5 241.5 63 243 61.5 243 60 241.5 58.5 240 58.5 237 60 234 63 232.5 66 231 72 231 76.5 232.5 79.5 M265.5 52.5 265.5 79.5 M252 66 279 66 M294 54 297 52.5 301.5 48 301.5 79.5 M300 49.5 300 79.5 M294 79.5 307.5 79.5 "/></svg>