<svg 
      xmlns="http://www.w3.org/2000/svg" 
      width="269.38" height="168"
      fill="none" stroke="black" stroke-width="2" 
      stroke-linecap="round" stroke-linejoin="round"
    ><rect x="0" y="0" width="269.38" height="168" fill="white" stroke="none"></rect><path d="M63 28.62 61.5 28.62 60 30.15 60 31.69 61.5 33.23 63 33.23 64.5 31.69 64.5 28.62 63 25.54 60 24 57 24 54 25.54 51 28.62 49.5 31.69 48 36.31 46.5 47.08 45 71.69 45 120.92 43.5 134.77 42 139.38 M61.5 30.15 61.5 31.69 63 31.69 63 30.15 61.5 30.15 M46.5 47.08 46.5 120.92 M51 28.62 49.5 33.23 48 47.08 48 96.31 46.5 120.92 45 131.69 43.5 136.31 42 139.38 39 142.46 36 144 33 144 30 142.46 28.5 139.38 28.5 136.31 30 134.77 31.5 134.77 33 136.31 33 137.85 31.5 139.38 30 139.38 M30 136.31 30 137.85 31.5 137.85 31.5 136.31 30 136.31 M79.13 112.5 75.75 113.63 73.5 117 72.38 122.63 72.38 126 73.5 131.63 75.75 135 79.13 136.13 81.38 136.13 84.75 135 87 131.63 88.13 126 88.13 122.63 87 117 84.75 113.63 81.38 112.5 79.13 112.5 M79.13 112.5 76.88 113.63 75.75 114.75 74.63 117 73.5 122.63 73.5 126 74.63 131.63 75.75 133.88 76.88 135 79.13 136.13 M81.38 136.13 83.63 135 84.75 133.88 85.88 131.63 87 126 87 122.63 85.88 117 84.75 114.75 83.63 113.63 81.38 112.5 M93.75 43.13 92.63 45.38 90.38 46.5 88.13 46.5 85.88 45.38 84.75 44.25 81.38 39.75 80.25 38.63 78 37.5 75.75 37.5 73.5 38.63 72.38 40.88 72.38 43.13 73.5 45.38 75.75 46.5 78 46.5 80.25 45.38 81.38 44.25 84.75 39.75 85.88 38.63 88.13 37.5 90.38 37.5 92.63 38.63 93.75 40.88 93.75 43.13 M103.13 90 109.13 88.5 113.63 87 118.13 84 119.63 81 118.13 78 115.13 76.5 110.63 76.5 106.13 78 103.13 82.5 101.63 87 101.63 91.5 103.13 94.5 104.63 96 107.63 97.5 110.63 97.5 115.13 96 118.13 93 M110.63 76.5 107.63 78 104.63 82.5 103.13 87 103.13 93 104.63 96 M128.63 60 148.88 60 M156.75 58.88 159 55.5 161.25 54.38 164.63 54.38 165.75 56.63 165.75 60 M163.5 54.38 164.63 56.63 164.63 60 163.5 64.5 162.38 66.75 160.13 69 157.88 70.13 156.75 70.13 155.63 69 155.63 67.88 156.75 66.75 157.88 67.88 156.75 69 M163.5 64.5 163.5 67.88 164.63 70.13 168 70.13 170.25 69 172.5 65.63 M172.5 55.5 171.38 56.63 172.5 57.75 173.63 56.63 173.63 55.5 172.5 54.38 171.38 54.38 169.13 55.5 166.88 57.75 165.75 60 164.63 64.5 164.63 67.88 165.75 70.13 M206.38 66 206.38 97.5 M207.88 66 207.88 97.5 M206.38 81 203.38 78 200.38 76.5 197.38 76.5 192.88 78 189.88 81 188.38 85.5 188.38 88.5 189.88 93 192.88 96 197.38 97.5 200.38 97.5 203.38 96 206.38 93 M197.38 76.5 194.38 78 191.38 81 189.88 85.5 189.88 88.5 191.38 93 194.38 96 197.38 97.5 M201.88 66 207.88 66 M206.38 97.5 212.38 97.5 M219.87 82.5 222.87 78 225.87 76.5 230.37 76.5 231.87 79.5 231.87 84 M228.87 76.5 230.37 79.5 230.37 84 228.87 90 227.37 93 224.37 96 221.37 97.5 219.87 97.5 218.37 96 218.37 94.5 219.87 93 221.37 94.5 219.87 96 M228.87 90 228.87 94.5 230.37 97.5 234.87 97.5 237.87 96 240.87 91.5 M240.87 78 239.37 79.5 240.87 81 242.37 79.5 242.37 78 240.87 76.5 239.37 76.5 236.37 78 233.37 81 231.87 84 230.37 90 230.37 94.5 231.87 97.5 "/></svg>