<svg 
      xmlns="http://www.w3.org/2000/svg" 
      width="377.1" height="164.7"
      fill="none" stroke="black" stroke-width="2" 
      stroke-linecap="round" stroke-linejoin="round"
    ><rect x="0" y="0" width="377.1" height="164.7" fill="white" stroke="none"></rect><path d="M28.5 93.6 31.5 89.1 34.5 87.6 39 87.6 40.5 90.6 40.5 95.1 M37.5 87.6 39 90.6 39 95.1 37.5 101.1 36 104.1 33 107.1 30 108.6 28.5 108.6 27 107.1 27 105.6 28.5 104.1 30 105.6 28.5 107.1 M37.5 101.1 37.5 105.6 39 108.6 43.5 108.6 46.5 107.1 49.5 102.6 M49.5 89.1 48 90.6 49.5 92.1 51 90.6 51 89.1 49.5 87.6 48 87.6 45 89.1 42 92.1 40.5 95.1 39 101.1 39 105.6 40.5 108.6 M60 90.6 87 90.6 M60 99.6 87 99.6 M93 95.1 353.1 95.1 M98.1 69.9 121.05 69.9 M136.35 54.6 131.25 71.18 131.25 75 132.52 78.83 133.8 80.1 M137.63 54.6 132.52 71.18 M132.52 71.18 133.8 67.35 136.35 64.8 138.9 63.53 141.45 63.53 144 64.8 145.27 66.08 146.55 68.63 146.55 72.45 145.27 76.28 142.73 80.1 138.9 81.38 136.35 81.38 133.8 80.1 132.52 76.28 132.52 71.18 M144 64.8 145.27 67.35 145.27 72.45 144 76.28 141.45 80.1 138.9 81.38 M132.52 54.6 137.63 54.6 M165.68 59.7 165.68 81.38 M155.48 69.9 175.88 69.9 M155.48 81.38 175.88 81.38 M180.98 64.34 184.38 64.34 190.5 86.59 M183.7 66.19 190.5 90.3 M201.38 29.1 190.5 90.3 M201.38 29.1 353.1 29.1 M211.58 54.6 206.48 71.18 206.48 75 207.75 78.83 209.02 80.1 M212.85 54.6 207.75 71.18 M207.75 71.18 209.02 67.35 211.58 64.8 214.13 63.53 216.68 63.53 219.23 64.8 220.5 66.08 221.77 68.63 221.77 72.45 220.5 76.28 217.95 80.1 214.13 81.38 211.58 81.38 209.02 80.1 207.75 76.28 207.75 71.18 M219.23 64.8 220.5 67.35 220.5 72.45 219.23 76.28 216.68 80.1 214.13 81.38 M207.75 54.6 212.85 54.6 M229.43 41.85 230.38 42.81 229.43 43.76 228.47 42.81 228.47 41.85 229.43 39.94 230.38 38.98 233.25 38.03 237.08 38.03 239.94 38.98 240.9 39.94 241.86 41.85 241.86 43.76 240.9 45.68 238.03 47.59 233.25 49.5 231.34 50.46 229.43 52.37 228.47 55.24 228.47 58.11 M237.08 38.03 238.99 38.98 239.94 39.94 240.9 41.85 240.9 43.76 239.94 45.68 237.08 47.59 233.25 49.5 M228.47 56.19 229.43 55.24 231.34 55.24 236.12 57.15 238.99 57.15 240.9 56.19 241.86 55.24 M231.34 55.24 236.12 58.11 239.94 58.11 240.9 57.15 241.86 55.24 241.86 53.33 M249.83 69.9 272.77 69.9 M293.17 57.15 293.17 81.38 M294.45 54.6 294.45 81.38 M294.45 54.6 280.42 73.72 300.83 73.72 M289.35 81.38 298.27 81.38 M323.77 63.53 321.23 72.45 319.95 77.55 319.95 80.1 321.23 81.38 325.05 81.38 327.6 78.83 328.88 76.28 M325.05 63.53 322.5 72.45 321.23 77.55 321.23 80.1 322.5 81.38 M321.23 72.45 321.23 68.63 319.95 64.8 317.4 63.53 314.85 63.53 311.02 64.8 308.48 68.63 307.2 72.45 307.2 76.28 308.48 78.83 309.75 80.1 312.3 81.38 314.85 81.38 317.4 80.1 319.95 76.28 321.23 72.45 M314.85 63.53 312.3 64.8 309.75 68.63 308.48 72.45 308.48 77.55 309.75 80.1 M348 67.35 348 68.63 349.28 68.63 349.28 67.35 348 64.8 345.45 63.53 341.63 63.53 337.8 64.8 335.25 68.63 333.98 72.45 333.98 76.28 335.25 78.83 336.53 80.1 339.08 81.38 341.63 81.38 345.45 80.1 348 76.28 M341.63 63.53 339.08 64.8 336.53 68.63 335.25 72.45 335.25 77.55 336.53 80.1 M202.01 110.1 203.29 111.37 202.01 112.65 200.74 111.37 200.74 110.1 202.01 107.55 203.29 106.27 207.11 105 212.21 105 216.04 106.27 217.31 107.55 218.59 110.1 218.59 112.65 217.31 115.2 213.49 117.75 207.11 120.3 204.56 121.57 202.01 124.12 200.74 127.95 200.74 131.77 M212.21 105 214.76 106.27 216.04 107.55 217.31 110.1 217.31 112.65 216.04 115.2 212.21 117.75 207.11 120.3 M200.74 129.23 202.01 127.95 204.56 127.95 210.94 130.5 214.76 130.5 217.31 129.23 218.59 127.95 M204.56 127.95 210.94 131.77 216.04 131.77 217.31 130.5 218.59 127.95 218.59 125.4 M242.81 113.92 240.26 122.85 238.99 127.95 238.99 130.5 240.26 131.77 244.09 131.77 246.64 129.23 247.91 126.67 M244.09 113.92 241.54 122.85 240.26 127.95 240.26 130.5 241.54 131.77 M240.26 122.85 240.26 119.02 238.99 115.2 236.44 113.92 233.89 113.92 230.06 115.2 227.51 119.02 226.24 122.85 226.24 126.67 227.51 129.23 228.79 130.5 231.34 131.77 233.89 131.77 236.44 130.5 238.99 126.67 240.26 122.85 M233.89 113.92 231.34 115.2 228.79 119.02 227.51 122.85 227.51 127.95 228.79 130.5 "/></svg>