<svg 
      xmlns="http://www.w3.org/2000/svg" 
      width="390" height="108"
      fill="none" stroke="black" stroke-width="2" 
      stroke-linecap="round" stroke-linejoin="round"
    ><rect x="0" y="0" width="390" height="108" fill="white" stroke="none"></rect><path d="M49 27.6 54 30 49 32.4 M44 24 52.33 30 44 36 M24 30 52.33 30 M28.5 58.5 31.5 54 34.5 52.5 39 52.5 40.5 55.5 40.5 60 M37.5 52.5 39 55.5 39 60 37.5 66 36 69 33 72 30 73.5 28.5 73.5 27 72 27 70.5 28.5 69 30 70.5 28.5 72 M37.5 66 37.5 70.5 39 73.5 43.5 73.5 46.5 72 49.5 67.5 M49.5 54 48 55.5 49.5 57 51 55.5 51 54 49.5 52.5 48 52.5 45 54 42 57 40.5 60 39 66 39 70.5 40.5 73.5 M60 55.5 87 55.5 M60 64.5 87 64.5 M148 27.6 159 30 148 32.4 M137 24 155.33 30 137 36 M93 30 155.33 30 M112.5 42 93 73.5 M112.5 42 114 73.5 M111 45 112.5 73.5 M99 64.5 112.5 64.5 M90 73.5 99 73.5 M108 73.5 117 73.5 M136.5 42 127.5 73.5 M138 42 129 73.5 M132 42 148.5 42 153 43.5 154.5 46.5 154.5 49.5 153 54 151.5 55.5 147 57 M148.5 42 151.5 43.5 153 46.5 153 49.5 151.5 54 150 55.5 147 57 M133.5 57 147 57 150 58.5 151.5 61.5 151.5 64.5 150 69 147 72 141 73.5 123 73.5 M147 57 148.5 58.5 150 61.5 150 64.5 148.5 69 145.5 72 141 73.5 M178.5 46.5 178.5 73.5 M165 60 192 60 M254.25 27.6 265.5 30 254.25 32.4 M243 24 261.75 30 243 36 M198 30 261.75 30 M211.5 42 202.5 73.5 M213 42 204 73.5 M207 42 223.5 42 228 43.5 229.5 46.5 229.5 49.5 228 54 226.5 55.5 222 57 M223.5 42 226.5 43.5 228 46.5 228 49.5 226.5 54 225 55.5 222 57 M208.5 57 222 57 225 58.5 226.5 61.5 226.5 64.5 225 69 222 72 216 73.5 198 73.5 M222 57 223.5 58.5 225 61.5 225 64.5 223.5 69 220.5 72 216 73.5 M261 45 262.5 45 264 42 262.5 51 262.5 48 261 45 259.5 43.5 256.5 42 252 42 247.5 43.5 244.5 46.5 241.5 51 240 55.5 238.5 61.5 238.5 66 240 70.5 241.5 72 246 73.5 250.5 73.5 253.5 72 256.5 69 258 66 M252 42 249 43.5 246 46.5 243 51 241.5 55.5 240 61.5 240 66 241.5 70.5 243 72 246 73.5 M271.5 55.5 298.5 55.5 M271.5 64.5 298.5 64.5 M355.75 27.6 366 30 355.75 32.4 M345.5 24 362.58 30 345.5 36 M304.5 30 362.58 30 M324 42 304.5 73.5 M324 42 325.5 73.5 M322.5 45 324 73.5 M310.5 64.5 324 64.5 M301.5 73.5 310.5 73.5 M319.5 73.5 328.5 73.5 M361.5 45 363 45 364.5 42 363 51 363 48 361.5 45 360 43.5 357 42 352.5 42 348 43.5 345 46.5 342 51 340.5 55.5 339 61.5 339 66 340.5 70.5 342 72 346.5 73.5 351 73.5 354 72 357 69 358.5 66 M352.5 42 349.5 43.5 346.5 46.5 343.5 51 342 55.5 340.5 61.5 340.5 66 342 70.5 343.5 72 346.5 73.5 "/></svg>