<svg 
      xmlns="http://www.w3.org/2000/svg" 
      width="411" height="120"
      fill="none" stroke="black" stroke-width="2" 
      stroke-linecap="round" stroke-linejoin="round"
    ><rect x="0" y="0" width="411" height="120" fill="white" stroke="none"></rect><path d="M28.3 33.75 39.75 26.25 51.2 33.75 M28.3 33.75 39.75 27.75 51.2 33.75 M48 52.5 45 63 43.5 69 43.5 72 45 73.5 49.5 73.5 52.5 70.5 54 67.5 M49.5 52.5 46.5 63 45 69 45 72 46.5 73.5 M45 63 45 58.5 43.5 54 40.5 52.5 37.5 52.5 33 54 30 58.5 28.5 63 28.5 67.5 30 70.5 31.5 72 34.5 73.5 37.5 73.5 40.5 72 43.5 67.5 45 63 M37.5 52.5 34.5 54 31.5 58.5 30 63 30 69 31.5 72 M75 46.5 75 73.5 M61.5 60 88.5 60 M111.75 25.5 104.25 34.5 M111.75 25.5 113.25 27 104.25 34.5 M106.5 42 100.5 61.5 100.5 66 102 70.5 103.5 72 M108 42 102 61.5 M102 61.5 103.5 57 106.5 54 109.5 52.5 112.5 52.5 115.5 54 117 55.5 118.5 58.5 118.5 63 117 67.5 114 72 109.5 73.5 106.5 73.5 103.5 72 102 67.5 102 61.5 M115.5 54 117 57 117 63 115.5 67.5 112.5 72 109.5 73.5 M102 42 108 42 M142.5 46.5 142.5 73.5 M129 60 156 60 M172.5 25.5 180 34.5 M172.5 25.5 171 27 180 34.5 M183 57 183 58.5 184.5 58.5 184.5 57 183 54 180 52.5 175.5 52.5 171 54 168 58.5 166.5 63 166.5 67.5 168 70.5 169.5 72 172.5 73.5 175.5 73.5 180 72 183 67.5 M175.5 52.5 172.5 54 169.5 58.5 168 63 168 69 169.5 72 M208.5 46.5 208.5 73.5 M195 60 222 60 M228 30 259.5 30 M255 42 249 63 247.5 69 247.5 72 249 73.5 253.5 73.5 256.5 70.5 258 67.5 M256.5 42 250.5 63 249 69 249 72 250.5 73.5 M249 63 249 58.5 247.5 54 244.5 52.5 241.5 52.5 237 54 234 58.5 232.5 63 232.5 67.5 234 70.5 235.5 72 238.5 73.5 241.5 73.5 244.5 72 247.5 67.5 249 63 M241.5 52.5 238.5 54 235.5 58.5 234 63 234 69 235.5 72 M250.5 42 256.5 42 M279 46.5 279 73.5 M265.5 60 292.5 60 M301.88 34.5 301.88 31.5 303 27 305.25 25.5 307.5 25.5 309.75 27 314.25 31.5 316.5 33 318.75 33 321 31.5 322.13 28.5 M301.88 31.5 303 28.5 305.25 27 307.5 27 309.75 28.5 314.25 33 316.5 34.5 318.75 34.5 321 33 322.13 28.5 322.13 25.5 M304.5 66 310.5 64.5 315 63 319.5 60 321 57 319.5 54 316.5 52.5 312 52.5 307.5 54 304.5 58.5 303 63 303 67.5 304.5 70.5 306 72 309 73.5 312 73.5 316.5 72 319.5 69 M312 52.5 309 54 306 58.5 304.5 63 304.5 69 306 72 M345 46.5 345 73.5 M331.5 60 358.5 60 M364.5 90 387 90 M387 43.5 385.5 45 387 46.5 388.5 45 388.5 43.5 387 42 384 42 381 43.5 379.5 45 378 48 376.5 52.5 372 73.5 370.5 79.5 369 82.5 M384 42 381 45 379.5 48 378 54 375 67.5 373.5 73.5 372 78 370.5 81 369 82.5 366 84 363 84 361.5 82.5 361.5 81 363 79.5 364.5 81 363 82.5 M370.5 52.5 385.5 52.5 "/></svg>