<svg 
      xmlns="http://www.w3.org/2000/svg" 
      width="764.775" height="139.2"
      fill="none" stroke="black" stroke-width="2" 
      stroke-linecap="round" stroke-linejoin="round"
    ><rect x="0" y="0" width="764.775" height="139.2" fill="white" stroke="none"></rect><path d="M24 69.6 236.93 69.6 M40.58 40.58 41.85 38.03 41.85 43.13 40.58 40.58 39.3 39.3 36.75 38.03 31.65 38.03 29.1 39.3 27.83 40.58 27.83 43.13 29.1 44.4 31.65 45.68 38.03 48.22 40.58 49.5 41.85 50.78 M27.83 41.85 29.1 43.13 31.65 44.4 38.03 46.95 40.58 48.22 41.85 49.5 41.85 53.33 40.58 54.6 38.03 55.88 32.92 55.88 30.38 54.6 29.1 53.33 27.83 50.78 27.83 55.88 29.1 53.33 M52.05 29.1 50.78 30.38 52.05 31.65 53.33 30.38 52.05 29.1 M52.05 38.03 52.05 55.88 M53.33 38.03 53.33 55.88 M48.22 38.03 53.33 38.03 M48.22 55.88 57.15 55.88 M66.07 38.03 66.07 55.88 M67.35 38.03 67.35 55.88 M67.35 41.85 69.9 39.3 73.72 38.03 76.27 38.03 80.1 39.3 81.38 41.85 81.38 55.88 M76.27 38.03 78.82 39.3 80.1 41.85 80.1 55.88 M62.25 38.03 67.35 38.03 M62.25 55.88 71.18 55.88 M76.27 55.88 85.2 55.88 M101.78 24 99.23 26.55 96.68 30.38 94.13 35.48 92.85 41.85 92.85 46.95 94.13 53.33 96.68 58.43 99.23 62.25 101.78 64.8 M99.23 26.55 96.68 31.65 95.4 35.48 94.13 41.85 94.13 46.95 95.4 53.33 96.68 57.15 99.23 62.25 M132.38 24 109.43 55.88 132.38 55.88 M147.68 29.1 140.02 55.88 M148.95 29.1 141.3 55.88 M143.85 29.1 157.88 29.1 161.7 30.38 162.98 32.92 162.98 35.48 161.7 39.3 160.42 40.58 156.6 41.85 M157.88 29.1 160.42 30.38 161.7 32.92 161.7 35.48 160.42 39.3 159.15 40.58 156.6 41.85 M145.13 41.85 156.6 41.85 159.15 43.13 160.42 45.68 160.42 48.22 159.15 52.05 156.6 54.6 151.5 55.88 136.2 55.88 M156.6 41.85 157.88 43.13 159.15 45.68 159.15 48.22 157.88 52.05 155.32 54.6 151.5 55.88 M183.37 29.1 166.8 55.88 M183.37 29.1 184.65 55.88 M182.1 31.65 183.37 55.88 M171.9 48.22 183.37 48.22 M164.25 55.88 171.9 55.88 M179.55 55.88 187.2 55.88 M215.25 31.65 216.52 31.65 217.8 29.1 216.52 36.75 216.52 34.2 215.25 31.65 213.98 30.38 211.43 29.1 207.6 29.1 203.77 30.38 201.23 32.92 198.68 36.75 197.4 40.58 196.12 45.68 196.12 49.5 197.4 53.33 198.68 54.6 202.5 55.88 206.33 55.88 208.87 54.6 211.43 52.05 212.7 49.5 M207.6 29.1 205.05 30.38 202.5 32.92 199.95 36.75 198.68 40.58 197.4 45.68 197.4 49.5 198.68 53.33 199.95 54.6 202.5 55.88 M222.9 24 225.45 26.55 228 30.38 230.55 35.48 231.83 41.85 231.83 46.95 230.55 53.33 228 58.43 225.45 62.25 222.9 64.8 M225.45 26.55 228 31.65 229.27 35.48 230.55 41.85 230.55 46.95 229.27 53.33 228 57.15 225.45 62.25 M113.25 79.5 105.6 106.28 M114.53 79.5 106.87 106.28 M109.43 79.5 123.45 79.5 127.28 80.78 128.55 83.33 128.55 85.88 127.28 89.7 126 90.98 122.17 92.25 M123.45 79.5 126 80.78 127.28 83.33 127.28 85.88 126 89.7 124.73 90.98 122.17 92.25 M110.7 92.25 122.17 92.25 124.73 93.53 126 96.08 126 98.63 124.73 102.45 122.17 105 117.07 106.28 101.78 106.28 M122.17 92.25 123.45 93.53 124.73 96.08 124.73 98.63 123.45 102.45 120.9 105 117.07 106.28 M155.32 82.05 156.6 82.05 157.88 79.5 156.6 87.15 156.6 84.6 155.32 82.05 154.05 80.78 151.5 79.5 147.68 79.5 143.85 80.78 141.3 83.33 138.75 87.15 137.48 90.98 136.2 96.08 136.2 99.9 137.48 103.73 138.75 105 142.57 106.28 146.4 106.28 148.95 105 151.5 102.45 152.77 99.9 M147.68 79.5 145.13 80.78 142.57 83.33 140.02 87.15 138.75 90.98 137.48 96.08 137.48 99.9 138.75 103.73 140.02 105 142.57 106.28 M242.93 65.1 269.92 65.1 M242.93 74.1 269.92 74.1 M275.92 69.6 488.85 69.6 M292.5 40.58 293.77 38.03 293.77 43.13 292.5 40.58 291.22 39.3 288.67 38.03 283.58 38.03 281.02 39.3 279.75 40.58 279.75 43.13 281.02 44.4 283.58 45.68 289.95 48.22 292.5 49.5 293.77 50.78 M279.75 41.85 281.02 43.13 283.58 44.4 289.95 46.95 292.5 48.22 293.77 49.5 293.77 53.33 292.5 54.6 289.95 55.88 284.85 55.88 282.3 54.6 281.02 53.33 279.75 50.78 279.75 55.88 281.02 53.33 M303.97 29.1 302.7 30.38 303.97 31.65 305.25 30.38 303.97 29.1 M303.97 38.03 303.97 55.88 M305.25 38.03 305.25 55.88 M300.15 38.03 305.25 38.03 M300.15 55.88 309.08 55.88 M318 38.03 318 55.88 M319.27 38.03 319.27 55.88 M319.27 41.85 321.83 39.3 325.65 38.03 328.2 38.03 332.03 39.3 333.3 41.85 333.3 55.88 M328.2 38.03 330.75 39.3 332.03 41.85 332.03 55.88 M314.17 38.03 319.27 38.03 M314.17 55.88 323.1 55.88 M328.2 55.88 337.12 55.88 M353.7 24 351.15 26.55 348.6 30.38 346.05 35.48 344.78 41.85 344.78 46.95 346.05 53.33 348.6 58.43 351.15 62.25 353.7 64.8 M351.15 26.55 348.6 31.65 347.33 35.48 346.05 41.85 346.05 46.95 347.33 53.33 348.6 57.15 351.15 62.25 M384.3 24 361.35 55.88 384.3 55.88 M404.7 29.1 388.13 55.88 M404.7 29.1 405.98 55.88 M403.42 31.65 404.7 55.88 M393.23 48.22 404.7 48.22 M385.58 55.88 393.23 55.88 M400.88 55.88 408.53 55.88 M425.1 29.1 417.45 55.88 M426.38 29.1 418.73 55.88 M421.28 29.1 435.3 29.1 439.13 30.38 440.4 32.92 440.4 35.48 439.13 39.3 437.85 40.58 434.03 41.85 M435.3 29.1 437.85 30.38 439.13 32.92 439.13 35.48 437.85 39.3 436.58 40.58 434.03 41.85 M422.55 41.85 434.03 41.85 436.58 43.13 437.85 45.68 437.85 48.22 436.58 52.05 434.03 54.6 428.92 55.88 413.63 55.88 M434.03 41.85 435.3 43.13 436.58 45.68 436.58 48.22 435.3 52.05 432.75 54.6 428.92 55.88 M467.17 31.65 468.45 31.65 469.73 29.1 468.45 36.75 468.45 34.2 467.17 31.65 465.9 30.38 463.35 29.1 459.53 29.1 455.7 30.38 453.15 32.92 450.6 36.75 449.32 40.58 448.05 45.68 448.05 49.5 449.32 53.33 450.6 54.6 454.42 55.88 458.25 55.88 460.8 54.6 463.35 52.05 464.63 49.5 M459.53 29.1 456.98 30.38 454.42 32.92 451.88 36.75 450.6 40.58 449.32 45.68 449.32 49.5 450.6 53.33 451.88 54.6 454.42 55.88 M474.83 24 477.38 26.55 479.92 30.38 482.48 35.48 483.75 41.85 483.75 46.95 482.48 53.33 479.92 58.43 477.38 62.25 474.83 64.8 M477.38 26.55 479.92 31.65 481.2 35.48 482.48 41.85 482.48 46.95 481.2 53.33 479.92 57.15 477.38 62.25 M372.83 79.5 356.25 106.28 M372.83 79.5 374.1 106.28 M371.55 82.05 372.83 106.28 M361.35 98.63 372.83 98.63 M353.7 106.28 361.35 106.28 M369 106.28 376.65 106.28 M404.7 82.05 405.98 82.05 407.25 79.5 405.98 87.15 405.98 84.6 404.7 82.05 403.42 80.78 400.88 79.5 397.05 79.5 393.23 80.78 390.67 83.33 388.13 87.15 386.85 90.98 385.58 96.08 385.58 99.9 386.85 103.73 388.13 105 391.95 106.28 395.78 106.28 398.33 105 400.88 102.45 402.15 99.9 M397.05 79.5 394.5 80.78 391.95 83.33 389.4 87.15 388.13 90.98 386.85 96.08 386.85 99.9 388.13 103.73 389.4 105 391.95 106.28 M494.85 65.1 521.85 65.1 M494.85 74.1 521.85 74.1 M527.85 69.6 740.78 69.6 M544.42 40.58 545.7 38.03 545.7 43.13 544.42 40.58 543.15 39.3 540.6 38.03 535.5 38.03 532.95 39.3 531.67 40.58 531.67 43.13 532.95 44.4 535.5 45.68 541.88 48.22 544.42 49.5 545.7 50.78 M531.67 41.85 532.95 43.13 535.5 44.4 541.88 46.95 544.42 48.22 545.7 49.5 545.7 53.33 544.42 54.6 541.88 55.88 536.78 55.88 534.22 54.6 532.95 53.33 531.67 50.78 531.67 55.88 532.95 53.33 M555.9 29.1 554.62 30.38 555.9 31.65 557.17 30.38 555.9 29.1 M555.9 38.03 555.9 55.88 M557.17 38.03 557.17 55.88 M552.07 38.03 557.17 38.03 M552.07 55.88 561 55.88 M569.92 38.03 569.92 55.88 M571.2 38.03 571.2 55.88 M571.2 41.85 573.75 39.3 577.58 38.03 580.13 38.03 583.95 39.3 585.22 41.85 585.22 55.88 M580.13 38.03 582.67 39.3 583.95 41.85 583.95 55.88 M566.1 38.03 571.2 38.03 M566.1 55.88 575.03 55.88 M580.13 55.88 589.05 55.88 M605.63 24 603.07 26.55 600.53 30.38 597.97 35.48 596.7 41.85 596.7 46.95 597.97 53.33 600.53 58.43 603.07 62.25 605.63 64.8 M603.07 26.55 600.53 31.65 599.25 35.48 597.97 41.85 597.97 46.95 599.25 53.33 600.53 57.15 603.07 62.25 M636.22 24 613.28 55.88 636.22 55.88 M656.63 29.1 640.05 55.88 M656.63 29.1 657.9 55.88 M655.35 31.65 656.63 55.88 M645.15 48.22 656.63 48.22 M637.5 55.88 645.15 55.88 M652.8 55.88 660.45 55.88 M688.5 31.65 689.78 31.65 691.05 29.1 689.78 36.75 689.78 34.2 688.5 31.65 687.22 30.38 684.68 29.1 680.85 29.1 677.03 30.38 674.47 32.92 671.93 36.75 670.65 40.58 669.38 45.68 669.38 49.5 670.65 53.33 671.93 54.6 675.75 55.88 679.58 55.88 682.13 54.6 684.68 52.05 685.95 49.5 M680.85 29.1 678.3 30.38 675.75 32.92 673.2 36.75 671.93 40.58 670.65 45.68 670.65 49.5 671.93 53.33 673.2 54.6 675.75 55.88 M703.8 29.1 696.15 55.88 M705.08 29.1 697.43 55.88 M699.98 29.1 714 29.1 717.83 30.38 719.1 32.92 719.1 35.48 717.83 39.3 716.55 40.58 712.73 41.85 M714 29.1 716.55 30.38 717.83 32.92 717.83 35.48 716.55 39.3 715.28 40.58 712.73 41.85 M701.25 41.85 712.73 41.85 715.28 43.13 716.55 45.68 716.55 48.22 715.28 52.05 712.73 54.6 707.63 55.88 692.33 55.88 M712.73 41.85 714 43.13 715.28 45.68 715.28 48.22 714 52.05 711.45 54.6 707.63 55.88 M726.75 24 729.3 26.55 731.85 30.38 734.4 35.48 735.68 41.85 735.68 46.95 734.4 53.33 731.85 58.43 729.3 62.25 726.75 64.8 M729.3 26.55 731.85 31.65 733.12 35.48 734.4 41.85 734.4 46.95 733.12 53.33 731.85 57.15 729.3 62.25 M622.84 79.5 606.26 106.28 M622.84 79.5 624.11 106.28 M621.56 82.05 622.84 106.28 M611.36 98.63 622.84 98.63 M603.71 106.28 611.36 106.28 M619.01 106.28 626.66 106.28 M643.24 79.5 635.59 106.28 M644.51 79.5 636.86 106.28 M639.41 79.5 653.44 79.5 657.26 80.78 658.54 83.33 658.54 85.88 657.26 89.7 655.99 90.98 652.16 92.25 M653.44 79.5 655.99 80.78 657.26 83.33 657.26 85.88 655.99 89.7 654.71 90.98 652.16 92.25 M640.69 92.25 652.16 92.25 654.71 93.53 655.99 96.08 655.99 98.63 654.71 102.45 652.16 105 647.06 106.28 631.76 106.28 M652.16 92.25 653.44 93.53 654.71 96.08 654.71 98.63 653.44 102.45 650.89 105 647.06 106.28 "/></svg>