<svg 
      xmlns="http://www.w3.org/2000/svg" 
      width="572.775" height="175.92000000000002"
      fill="none" stroke="black" stroke-width="2" 
      stroke-linecap="round" stroke-linejoin="round"
    ><rect x="0" y="0" width="572.775" height="175.92000000000002" fill="white" stroke="none"></rect><path d="M28.5 73.32 29.63 74.45 28.5 75.57 27.38 74.45 27.38 73.32 28.5 71.07 29.63 69.95 33 68.82 37.5 68.82 40.88 69.95 42 72.2 42 75.57 40.88 77.82 37.5 78.95 34.13 78.95 M37.5 68.82 39.75 69.95 40.88 72.2 40.88 75.57 39.75 77.82 37.5 78.95 M37.5 78.95 39.75 80.07 42 82.32 43.13 84.57 43.13 87.95 42 90.2 40.88 91.32 37.5 92.45 33 92.45 29.63 91.32 28.5 90.2 27.38 87.95 27.38 86.82 28.5 85.7 29.63 86.82 28.5 87.95 M40.88 81.2 42 84.57 42 87.95 40.88 90.2 39.75 91.32 37.5 92.45 M76.5 82.32 49.5 130.32 M82.88 116.82 82.88 123.57 M82.88 121.32 84 119.07 86.25 116.82 88.5 116.82 94.13 120.2 96.38 120.2 97.5 119.07 98.63 116.82 M84 119.07 86.25 117.95 88.5 117.95 94.13 120.2 M98.63 116.82 98.63 120.2 97.5 123.57 93 129.2 91.88 131.45 90.75 134.82 90.75 140.45 M97.5 123.57 91.88 129.2 90.75 131.45 89.63 134.82 89.63 140.45 M121.5 92.82 121.5 119.82 M108 106.32 135 106.32 M141 106.32 286.35 106.32 M151.2 65.82 143.55 92.6 M152.48 65.82 144.82 92.6 M161.4 76.02 160.13 77.3 161.4 78.57 162.68 77.3 162.68 76.02 161.4 74.75 160.13 74.75 157.57 76.02 152.48 81.12 149.93 82.4 147.38 82.4 M149.93 82.4 152.48 83.67 155.02 91.32 156.3 92.6 M149.93 82.4 151.2 83.67 153.75 91.32 155.02 92.6 157.57 92.6 160.13 91.32 162.68 87.5 M147.38 65.82 152.48 65.82 M180.52 60.72 177.98 63.27 175.43 67.1 172.88 72.2 171.6 78.57 171.6 83.67 172.88 90.05 175.43 95.15 177.98 98.97 180.52 101.52 M177.98 63.27 175.43 68.37 174.15 72.2 172.88 78.57 172.88 83.67 174.15 90.05 175.43 93.87 177.98 98.97 M194.55 65.82 186.9 92.6 M195.83 65.82 188.18 92.6 M204.75 76.02 203.48 77.3 204.75 78.57 206.03 77.3 206.03 76.02 204.75 74.75 203.48 74.75 200.93 76.02 195.83 81.12 193.28 82.4 190.73 82.4 M193.28 82.4 195.83 83.67 198.38 91.32 199.65 92.6 M193.28 82.4 194.55 83.67 197.1 91.32 198.38 92.6 200.93 92.6 203.48 91.32 206.03 87.5 M190.73 65.82 195.83 65.82 M226.43 69.65 226.43 92.6 M214.95 81.12 237.9 81.12 M250.65 70.92 253.2 69.65 257.02 65.82 257.02 92.6 M255.75 67.1 255.75 92.6 M250.65 92.6 262.13 92.6 M272.33 60.72 274.88 63.27 277.42 67.1 279.98 72.2 281.25 78.57 281.25 83.67 279.98 90.05 277.42 95.15 274.88 98.97 272.33 101.52 M274.88 63.27 277.42 68.37 278.7 72.2 279.98 78.57 279.98 83.67 278.7 90.05 277.42 93.87 274.88 98.97 M206.02 121.32 207.3 122.6 206.02 123.87 204.75 122.6 204.75 121.32 206.02 118.77 207.3 117.5 211.12 116.22 216.22 116.22 220.05 117.5 221.33 118.77 222.6 121.32 222.6 123.87 221.33 126.42 217.5 128.97 211.12 131.52 208.58 132.8 206.02 135.35 204.75 139.17 204.75 143 M216.22 116.22 218.77 117.5 220.05 118.77 221.33 121.32 221.33 123.87 220.05 126.42 216.22 128.97 211.12 131.52 M204.75 140.45 206.02 139.17 208.58 139.17 214.95 141.72 218.77 141.72 221.33 140.45 222.6 139.17 M208.58 139.17 214.95 143 220.05 143 221.33 141.72 222.6 139.17 222.6 136.62 M305.85 92.82 305.85 119.82 M292.35 106.32 319.35 106.32 M337.35 88.32 328.35 119.82 M338.85 88.32 329.85 119.82 M349.35 100.32 347.85 101.82 349.35 103.32 350.85 101.82 350.85 100.32 349.35 98.82 347.85 98.82 344.85 100.32 338.85 106.32 335.85 107.82 332.85 107.82 M335.85 107.82 338.85 109.32 341.85 118.32 343.35 119.82 M335.85 107.82 337.35 109.32 340.35 118.32 341.85 119.82 344.85 119.82 347.85 118.32 350.85 113.82 M332.85 88.32 338.85 88.32 M374.85 92.82 374.85 119.82 M361.35 106.32 388.35 106.32 M403.35 94.32 406.35 92.82 410.85 88.32 410.85 119.82 M409.35 89.82 409.35 119.82 M403.35 119.82 416.85 119.82 M443.85 92.82 443.85 119.82 M430.35 106.32 457.35 106.32 M463.35 106.32 548.78 106.32 M467.27 62.76 488.95 62.76 M473.77 32.67 475.94 31.59 479.19 28.34 479.19 51.09 M478.11 29.42 478.11 51.09 M473.77 51.09 483.53 51.09 M470.52 83.1 472.69 79.85 474.86 78.76 478.11 78.76 479.19 80.93 479.19 84.18 M477.02 78.76 478.11 80.93 478.11 84.18 477.02 88.52 475.94 90.68 473.77 92.85 471.61 93.93 470.52 93.93 469.44 92.85 469.44 91.77 470.52 90.68 471.61 91.77 470.52 92.85 M477.02 88.52 477.02 91.77 478.11 93.93 481.36 93.93 483.53 92.85 485.69 89.6 M485.69 79.85 484.61 80.93 485.69 82.01 486.78 80.93 486.78 79.85 485.69 78.76 484.61 78.76 482.44 79.85 480.28 82.01 479.19 84.18 478.11 88.52 478.11 91.77 479.19 93.93 M505.52 51.29 505.52 74.23 M494.05 62.76 517 62.76 M522.1 62.76 544.85 62.76 M529.14 32.67 531.31 31.59 534.56 28.34 534.56 51.09 M533.47 29.42 533.47 51.09 M529.14 51.09 538.89 51.09 M523.18 83.1 524.26 80.93 526.43 78.76 529.68 78.76 530.77 79.85 530.77 83.1 528.6 89.6 528.6 91.77 530.77 93.93 M528.6 78.76 529.68 79.85 529.68 83.1 527.51 89.6 527.51 91.77 528.6 92.85 530.77 93.93 532.93 93.93 535.1 92.85 537.27 90.68 539.44 86.35 M542.69 78.76 538.35 93.93 537.27 97.18 535.1 100.44 531.85 101.52 528.6 101.52 526.43 100.44 525.35 99.35 525.35 98.27 526.43 97.18 527.51 98.27 526.43 99.35 M541.6 78.76 537.27 93.93 536.18 97.18 534.02 100.44 531.85 101.52 M464.63 130.25 465.9 127.7 468.45 125.14 472.28 125.14 473.55 126.42 473.55 130.25 471 137.89 471 140.45 473.55 143 M471 125.14 472.28 126.42 472.28 130.25 469.73 137.89 469.73 140.45 471 141.72 473.55 143 476.1 143 478.65 141.72 481.2 139.17 483.75 134.07 M487.57 125.14 482.48 143 481.2 146.82 478.65 150.64 474.82 151.92 471 151.92 468.45 150.64 467.17 149.37 467.17 148.09 468.45 146.82 469.73 148.09 468.45 149.37 M486.3 125.14 481.2 143 479.92 146.82 477.38 150.64 474.82 151.92 M495.23 131.52 518.17 131.52 M544.95 125.14 543.67 127.7 541.12 130.25 530.92 137.89 528.37 140.45 527.1 143 M528.37 130.25 529.65 127.7 532.2 125.14 536.03 125.14 541.12 127.7 M529.65 127.7 532.2 126.42 536.03 126.42 541.12 127.7 543.67 127.7 M528.37 140.45 530.92 140.45 536.03 141.72 539.85 141.72 542.4 140.45 M530.92 140.45 536.03 143 539.85 143 542.4 140.45 543.67 137.89 "/></svg>