<svg 
      xmlns="http://www.w3.org/2000/svg" 
      width="760.23" height="153.6"
      fill="none" stroke="black" stroke-width="2" 
      stroke-linecap="round" stroke-linejoin="round"
    ><rect x="0" y="0" width="760.23" height="153.6" fill="white" stroke="none"></rect><path d="M31.5 51.6 31.5 83.1 M33 51.6 33 83.1 M27 51.6 33 51.6 M27 83.1 37.5 83.1 M48 51.6 46.5 53.1 48 54.6 49.5 53.1 48 51.6 M48 62.1 48 83.1 M49.5 62.1 49.5 83.1 M43.5 62.1 49.5 62.1 M43.5 83.1 54 83.1 M64.5 62.1 64.5 83.1 M66 62.1 66 83.1 M66 66.6 69 63.6 73.5 62.1 76.5 62.1 81 63.6 82.5 66.6 82.5 83.1 M76.5 62.1 79.5 63.6 81 66.6 81 83.1 M82.5 66.6 85.5 63.6 90 62.1 93 62.1 97.5 63.6 99 66.6 99 83.1 M93 62.1 96 63.6 97.5 66.6 97.5 83.1 M60 62.1 66 62.1 M60 83.1 70.5 83.1 M76.5 83.1 87 83.1 M93 83.1 103.5 83.1 M29.44 110.48 31.69 107.1 33.94 105.98 37.31 105.98 38.44 108.23 38.44 111.6 M36.19 105.98 37.31 108.23 37.31 111.6 36.19 116.1 35.06 118.35 32.81 120.6 30.56 121.73 29.44 121.73 28.31 120.6 28.31 119.48 29.44 118.35 30.56 119.48 29.44 120.6 M36.19 116.1 36.19 119.48 37.31 121.73 40.69 121.73 42.94 120.6 45.19 117.23 M45.19 107.1 44.06 108.23 45.19 109.35 46.31 108.23 46.31 107.1 45.19 105.98 44.06 105.98 41.81 107.1 39.56 109.35 38.44 111.6 37.31 116.1 37.31 119.48 38.44 121.73 M69.94 109.35 73.31 111.6 69.94 113.85 M66.56 105.98 72.19 111.6 66.56 117.23 M53.06 111.6 72.19 111.6 M102.56 112.73 101.44 114.98 99.19 116.1 96.94 116.1 94.69 114.98 93.56 113.85 90.19 109.35 89.06 108.23 86.81 107.1 84.56 107.1 82.31 108.23 81.19 110.48 81.19 112.73 82.31 114.98 84.56 116.1 86.81 116.1 89.06 114.98 90.19 113.85 93.56 109.35 94.69 108.23 96.94 107.1 99.19 107.1 101.44 108.23 102.56 110.48 102.56 112.73 M122 71.1 140 71.1 140 68.1 138.5 65.1 137 63.6 134 62.1 129.5 62.1 125 63.6 122 66.6 120.5 71.1 120.5 74.1 122 78.6 125 81.6 129.5 83.1 132.5 83.1 137 81.6 140 78.6 M138.5 71.1 138.5 66.6 137 63.6 M129.5 62.1 126.5 63.6 123.5 66.6 122 71.1 122 74.1 123.5 78.6 126.5 81.6 129.5 83.1 M150.5 62.1 167 83.1 M152 62.1 168.5 83.1 M168.5 62.1 150.5 83.1 M147.5 62.1 156.5 62.1 M162.5 62.1 171.5 62.1 M147.5 83.1 156.5 83.1 M162.5 83.1 171.5 83.1 M182 62.1 182 93.6 M183.5 62.1 183.5 93.6 M183.5 66.6 186.5 63.6 189.5 62.1 192.5 62.1 197 63.6 200 66.6 201.5 71.1 201.5 74.1 200 78.6 197 81.6 192.5 83.1 189.5 83.1 186.5 81.6 183.5 78.6 M192.5 62.1 195.5 63.6 198.5 66.6 200 71.1 200 74.1 198.5 78.6 195.5 81.6 192.5 83.1 M177.5 62.1 183.5 62.1 M177.5 93.6 188 93.6 M222.5 45.6 219.5 48.6 216.5 53.1 213.5 59.1 212 66.6 212 72.6 213.5 80.1 216.5 86.1 219.5 90.6 222.5 93.6 M219.5 48.6 216.5 54.6 215 59.1 213.5 66.6 213.5 72.6 215 80.1 216.5 84.6 219.5 90.6 M233 69.6 260 69.6 M270.5 68.1 273.5 63.6 276.5 62.1 281 62.1 282.5 65.1 282.5 69.6 M279.5 62.1 281 65.1 281 69.6 279.5 75.6 278 78.6 275 81.6 272 83.1 270.5 83.1 269 81.6 269 80.1 270.5 78.6 272 80.1 270.5 81.6 M279.5 75.6 279.5 80.1 281 83.1 285.5 83.1 288.5 81.6 291.5 77.1 M291.5 63.6 290 65.1 291.5 66.6 293 65.1 293 63.6 291.5 62.1 290 62.1 287 63.6 284 66.6 282.5 69.6 281 75.6 281 80.1 282.5 83.1 M300.5 45.6 303.5 48.6 306.5 53.1 309.5 59.1 311 66.6 311 72.6 309.5 80.1 306.5 86.1 303.5 90.6 300.5 93.6 M303.5 48.6 306.5 54.6 308 59.1 309.5 66.6 309.5 72.6 308 80.1 306.5 84.6 303.5 90.6 M323 65.1 350 65.1 M323 74.1 350 74.1 M369.5 51.6 365 53.1 362 57.6 360.5 65.1 360.5 69.6 362 77.1 365 81.6 369.5 83.1 372.5 83.1 377 81.6 380 77.1 381.5 69.6 381.5 65.1 380 57.6 377 53.1 372.5 51.6 369.5 51.6 M369.5 51.6 366.5 53.1 365 54.6 363.5 57.6 362 65.1 362 69.6 363.5 77.1 365 80.1 366.5 81.6 369.5 83.1 M372.5 83.1 375.5 81.6 377 80.1 378.5 77.1 380 69.6 380 65.1 378.5 57.6 377 54.6 375.5 53.1 372.5 51.6 M393.5 83.1 392 81.6 393.5 80.1 395 81.6 395 84.6 393.5 87.6 392 89.1 M456.5 51.6 456.5 83.1 M458 51.6 458 83.1 M452 51.6 458 51.6 M452 83.1 462.5 83.1 M473 51.6 471.5 53.1 473 54.6 474.5 53.1 473 51.6 M473 62.1 473 83.1 M474.5 62.1 474.5 83.1 M468.5 62.1 474.5 62.1 M468.5 83.1 479 83.1 M489.5 62.1 489.5 83.1 M491 62.1 491 83.1 M491 66.6 494 63.6 498.5 62.1 501.5 62.1 506 63.6 507.5 66.6 507.5 83.1 M501.5 62.1 504.5 63.6 506 66.6 506 83.1 M507.5 66.6 510.5 63.6 515 62.1 518 62.1 522.5 63.6 524 66.6 524 83.1 M518 62.1 521 63.6 522.5 66.6 522.5 83.1 M485 62.1 491 62.1 M485 83.1 495.5 83.1 M501.5 83.1 512 83.1 M518 83.1 528.5 83.1 M462.31 98.1 455.56 121.73 M463.44 98.1 456.69 121.73 M458.94 113.85 461.19 109.35 463.44 107.1 465.69 105.98 467.94 105.98 470.19 107.1 471.31 108.23 471.31 110.48 469.06 117.23 469.06 120.6 470.19 121.73 M467.94 105.98 470.19 108.23 470.19 110.48 467.94 117.23 467.94 120.6 469.06 121.73 472.44 121.73 474.69 119.48 475.81 117.23 M458.94 98.1 463.44 98.1 M498.31 109.35 501.69 111.6 498.31 113.85 M494.94 105.98 500.56 111.6 494.94 117.23 M481.44 111.6 500.56 111.6 M516.31 98.1 512.94 99.23 510.69 102.6 509.56 108.23 509.56 111.6 510.69 117.23 512.94 120.6 516.31 121.73 518.56 121.73 521.94 120.6 524.19 117.23 525.31 111.6 525.31 108.23 524.19 102.6 521.94 99.23 518.56 98.1 516.31 98.1 M516.31 98.1 514.06 99.23 512.94 100.35 511.81 102.6 510.69 108.23 510.69 111.6 511.81 117.23 512.94 119.48 514.06 120.6 516.31 121.73 M518.56 121.73 520.81 120.6 521.94 119.48 523.06 117.23 524.19 111.6 524.19 108.23 523.06 102.6 521.94 100.35 520.81 99.23 518.56 98.1 M541 69.6 667.23 69.6 M557.58 40.58 558.85 38.03 558.85 43.13 557.58 40.58 556.3 39.3 553.75 38.03 548.65 38.03 546.1 39.3 544.83 40.58 544.83 43.13 546.1 44.4 548.65 45.68 555.03 48.22 557.58 49.5 558.85 50.78 M544.83 41.85 546.1 43.13 548.65 44.4 555.03 46.95 557.58 48.22 558.85 49.5 558.85 53.33 557.58 54.6 555.03 55.88 549.92 55.88 547.38 54.6 546.1 53.33 544.83 50.78 544.83 55.88 546.1 53.33 M569.05 29.1 567.78 30.38 569.05 31.65 570.33 30.38 569.05 29.1 M569.05 38.03 569.05 55.88 M570.33 38.03 570.33 55.88 M565.23 38.03 570.33 38.03 M565.23 55.88 574.15 55.88 M583.08 38.03 583.08 55.88 M584.35 38.03 584.35 55.88 M584.35 41.85 586.9 39.3 590.73 38.03 593.28 38.03 597.1 39.3 598.38 41.85 598.38 55.88 M593.28 38.03 595.83 39.3 597.1 41.85 597.1 55.88 M579.25 38.03 584.35 38.03 M579.25 55.88 588.17 55.88 M593.28 55.88 602.2 55.88 M618.78 24 616.23 26.55 613.67 30.38 611.13 35.48 609.85 41.85 609.85 46.95 611.13 53.33 613.67 58.43 616.23 62.25 618.78 64.8 M616.23 26.55 613.67 31.65 612.4 35.48 611.13 41.85 611.13 46.95 612.4 53.33 613.67 57.15 616.23 62.25 M632.8 29.1 625.15 55.88 M634.07 29.1 626.42 55.88 M628.98 46.95 631.53 41.85 634.07 39.3 636.63 38.03 639.17 38.03 641.73 39.3 643 40.58 643 43.13 640.45 50.78 640.45 54.6 641.73 55.88 M639.17 38.03 641.73 40.58 641.73 43.13 639.17 50.78 639.17 54.6 640.45 55.88 644.28 55.88 646.82 53.33 648.1 50.78 M628.98 29.1 634.07 29.1 M653.2 24 655.75 26.55 658.3 30.38 660.85 35.48 662.13 41.85 662.13 46.95 660.85 53.33 658.3 58.43 655.75 62.25 653.2 64.8 M655.75 26.55 658.3 31.65 659.58 35.48 660.85 41.85 660.85 46.95 659.58 53.33 658.3 57.15 655.75 62.25 M600.92 79.5 593.28 106.28 M602.2 79.5 594.55 106.28 M597.1 97.35 599.65 92.25 602.2 89.7 604.75 88.43 607.3 88.43 609.85 89.7 611.13 90.98 611.13 93.53 608.57 101.18 608.57 105 609.85 106.28 M607.3 88.43 609.85 90.98 609.85 93.53 607.3 101.18 607.3 105 608.57 106.28 612.4 106.28 614.95 103.73 616.23 101.18 M597.1 79.5 602.2 79.5 M673.23 65.1 700.23 65.1 M673.23 74.1 700.23 74.1 M715.23 57.6 718.23 56.1 722.73 51.6 722.73 83.1 M721.23 53.1 721.23 83.1 M715.23 83.1 728.73 83.1 "/></svg>