<svg 
      xmlns="http://www.w3.org/2000/svg" 
      width="571.5" height="114"
      fill="none" stroke="black" stroke-width="2" 
      stroke-linecap="round" stroke-linejoin="round"
    ><rect x="0" y="0" width="571.5" height="114" fill="white" stroke="none"></rect><path d="M46.5 63 45 64.5 46.5 66 48 64.5 48 63 45 60 42 58.5 37.5 58.5 33 60 30 63 28.5 67.5 28.5 70.5 30 75 33 78 37.5 79.5 40.5 79.5 45 78 48 75 M37.5 58.5 34.5 60 31.5 63 30 67.5 30 70.5 31.5 75 34.5 78 37.5 79.5 M66 58.5 61.5 60 58.5 63 57 67.5 57 70.5 58.5 75 61.5 78 66 79.5 69 79.5 73.5 78 76.5 75 78 70.5 78 67.5 76.5 63 73.5 60 69 58.5 66 58.5 M66 58.5 63 60 60 63 58.5 67.5 58.5 70.5 60 75 63 78 66 79.5 M69 79.5 72 78 75 75 76.5 70.5 76.5 67.5 75 63 72 60 69 58.5 M102 61.5 103.5 58.5 103.5 64.5 102 61.5 100.5 60 97.5 58.5 91.5 58.5 88.5 60 87 61.5 87 64.5 88.5 66 91.5 67.5 99 70.5 102 72 103.5 73.5 M87 63 88.5 64.5 91.5 66 99 69 102 70.5 103.5 72 103.5 76.5 102 78 99 79.5 93 79.5 90 78 88.5 76.5 87 73.5 87 79.5 88.5 76.5 M124.5 42 121.5 45 118.5 49.5 115.5 55.5 114 63 114 69 115.5 76.5 118.5 82.5 121.5 87 124.5 90 M121.5 45 118.5 51 117 55.5 115.5 63 115.5 69 117 76.5 118.5 81 121.5 87 M135 54 136.5 55.5 135 57 133.5 55.5 133.5 54 135 51 136.5 49.5 141 48 147 48 151.5 49.5 153 51 154.5 54 154.5 57 153 60 148.5 63 141 66 138 67.5 135 70.5 133.5 75 133.5 79.5 M147 48 150 49.5 151.5 51 153 54 153 57 151.5 60 147 63 141 66 M133.5 76.5 135 75 138 75 145.5 78 150 78 153 76.5 154.5 75 M138 75 145.5 79.5 151.5 79.5 153 78 154.5 75 154.5 72 M175.5 48 171 49.5 168 54 166.5 57 165 61.5 163.5 69 163.5 75 165 78 168 79.5 171 79.5 175.5 78 178.5 73.5 180 70.5 181.5 66 183 58.5 183 52.5 181.5 49.5 178.5 48 175.5 48 M175.5 48 172.5 49.5 169.5 54 168 57 166.5 61.5 165 69 165 75 166.5 78 168 79.5 M171 79.5 174 78 177 73.5 178.5 70.5 180 66 181.5 58.5 181.5 52.5 180 49.5 178.5 48 M166.5 63 180 63 M192 42 195 45 198 49.5 201 55.5 202.5 63 202.5 69 201 76.5 198 82.5 195 87 192 90 M195 45 198 51 199.5 55.5 201 63 201 69 199.5 76.5 198 81 195 87 M214.5 61.5 241.5 61.5 M214.5 70.5 241.5 70.5 M270 63 268.5 64.5 270 66 271.5 64.5 271.5 63 268.5 60 265.5 58.5 261 58.5 256.5 60 253.5 63 252 67.5 252 70.5 253.5 75 256.5 78 261 79.5 264 79.5 268.5 78 271.5 75 M261 58.5 258 60 255 63 253.5 67.5 253.5 70.5 255 75 258 78 261 79.5 M289.5 58.5 285 60 282 63 280.5 67.5 280.5 70.5 282 75 285 78 289.5 79.5 292.5 79.5 297 78 300 75 301.5 70.5 301.5 67.5 300 63 297 60 292.5 58.5 289.5 58.5 M289.5 58.5 286.5 60 283.5 63 282 67.5 282 70.5 283.5 75 286.5 78 289.5 79.5 M292.5 79.5 295.5 78 298.5 75 300 70.5 300 67.5 298.5 63 295.5 60 292.5 58.5 M325.5 61.5 327 58.5 327 64.5 325.5 61.5 324 60 321 58.5 315 58.5 312 60 310.5 61.5 310.5 64.5 312 66 315 67.5 322.5 70.5 325.5 72 327 73.5 M310.5 63 312 64.5 315 66 322.5 69 325.5 70.5 327 72 327 76.5 325.5 78 322.5 79.5 316.5 79.5 313.5 78 312 76.5 310.5 73.5 310.5 79.5 312 76.5 M336 33 337.13 34.13 336 35.25 334.88 34.13 334.88 33 336 30.75 337.13 29.63 340.5 28.5 345 28.5 348.38 29.63 349.5 30.75 350.63 33 350.63 35.25 349.5 37.5 346.13 39.75 340.5 42 338.25 43.13 336 45.38 334.88 48.75 334.88 52.13 M345 28.5 347.25 29.63 348.38 30.75 349.5 33 349.5 35.25 348.38 37.5 345 39.75 340.5 42 M334.88 49.88 336 48.75 338.25 48.75 343.88 51 347.25 51 349.5 49.88 350.63 48.75 M338.25 48.75 343.88 52.13 348.38 52.13 349.5 51 350.63 48.75 350.63 46.5 M370.5 48 366 49.5 363 54 361.5 57 360 61.5 358.5 69 358.5 75 360 78 363 79.5 366 79.5 370.5 78 373.5 73.5 375 70.5 376.5 66 378 58.5 378 52.5 376.5 49.5 373.5 48 370.5 48 M370.5 48 367.5 49.5 364.5 54 363 57 361.5 61.5 360 69 360 75 361.5 78 363 79.5 M366 79.5 369 78 372 73.5 373.5 70.5 375 66 376.5 58.5 376.5 52.5 375 49.5 373.5 48 M361.5 63 375 63 M388.5 66 415.5 66 M441 61.5 442.5 58.5 442.5 64.5 441 61.5 439.5 60 436.5 58.5 430.5 58.5 427.5 60 426 61.5 426 64.5 427.5 66 430.5 67.5 438 70.5 441 72 442.5 73.5 M426 63 427.5 64.5 430.5 66 438 69 441 70.5 442.5 72 442.5 76.5 441 78 438 79.5 432 79.5 429 78 427.5 76.5 426 73.5 426 79.5 427.5 76.5 M454.5 48 453 49.5 454.5 51 456 49.5 454.5 48 M454.5 58.5 454.5 79.5 M456 58.5 456 79.5 M450 58.5 456 58.5 M450 79.5 460.5 79.5 M471 58.5 471 79.5 M472.5 58.5 472.5 79.5 M472.5 63 475.5 60 480 58.5 483 58.5 487.5 60 489 63 489 79.5 M483 58.5 486 60 487.5 63 487.5 79.5 M466.5 58.5 472.5 58.5 M466.5 79.5 477 79.5 M483 79.5 493.5 79.5 M501 33 502.13 34.13 501 35.25 499.88 34.13 499.88 33 501 30.75 502.13 29.63 505.5 28.5 510 28.5 513.38 29.63 514.5 30.75 515.63 33 515.63 35.25 514.5 37.5 511.13 39.75 505.5 42 503.25 43.13 501 45.38 499.88 48.75 499.88 52.13 M510 28.5 512.25 29.63 513.38 30.75 514.5 33 514.5 35.25 513.38 37.5 510 39.75 505.5 42 M499.88 49.88 501 48.75 503.25 48.75 508.88 51 512.25 51 514.5 49.88 515.63 48.75 M503.25 48.75 508.88 52.13 513.38 52.13 514.5 51 515.63 48.75 515.63 46.5 M535.5 48 531 49.5 528 54 526.5 57 525 61.5 523.5 69 523.5 75 525 78 528 79.5 531 79.5 535.5 78 538.5 73.5 540 70.5 541.5 66 543 58.5 543 52.5 541.5 49.5 538.5 48 535.5 48 M535.5 48 532.5 49.5 529.5 54 528 57 526.5 61.5 525 69 525 75 526.5 78 528 79.5 M531 79.5 534 78 537 73.5 538.5 70.5 540 66 541.5 58.5 541.5 52.5 540 49.5 538.5 48 M526.5 63 540 63 "/></svg>