<svg 
      xmlns="http://www.w3.org/2000/svg" 
      width="346.13" height="154.5"
      fill="none" stroke="black" stroke-width="2" 
      stroke-linecap="round" stroke-linejoin="round"
    ><rect x="0" y="0" width="346.13" height="154.5" fill="white" stroke="none"></rect><path d="M37.5 66.9 28.5 98.4 M39 66.9 30 98.4 M33 66.9 51 66.9 55.5 68.4 57 71.4 57 74.4 55.5 78.9 52.5 81.9 46.5 83.4 34.5 83.4 M51 66.9 54 68.4 55.5 71.4 55.5 74.4 54 78.9 51 81.9 46.5 83.4 M24 98.4 34.5 98.4 M75 24 72 30.66 69 40.64 66 53.95 64.5 70.59 64.5 83.91 66 100.55 69 113.86 72 123.84 75 130.5 M72 30.66 69 43.97 67.5 53.95 66 70.59 66 83.91 67.5 100.55 69 110.53 72 123.84 M99 66.9 79.5 98.4 M99 66.9 100.5 98.4 M97.5 69.9 99 98.4 M85.5 89.4 99 89.4 M76.5 98.4 85.5 98.4 M94.5 98.4 103.5 98.4 M115.5 80.4 142.5 80.4 M115.5 89.4 142.5 89.4 M154.5 72.9 156 74.4 154.5 75.9 153 74.4 153 72.9 154.5 69.9 156 68.4 160.5 66.9 166.5 66.9 171 68.4 172.5 69.9 174 72.9 174 75.9 172.5 78.9 168 81.9 160.5 84.9 157.5 86.4 154.5 89.4 153 93.9 153 98.4 M166.5 66.9 169.5 68.4 171 69.9 172.5 72.9 172.5 75.9 171 78.9 166.5 81.9 160.5 84.9 M153 95.4 154.5 93.9 157.5 93.9 165 96.9 169.5 96.9 172.5 95.4 174 93.9 M157.5 93.9 165 98.4 171 98.4 172.5 96.9 174 93.9 174 90.9 M184.5 24 184.5 130.5 M190.5 84.9 235.13 84.9 M207.08 44.4 190.5 71.18 M207.08 44.4 208.35 71.18 M205.8 46.95 207.08 71.18 M195.6 63.53 207.08 63.53 M187.95 71.18 195.6 71.18 M203.25 71.18 210.9 71.18 M219.83 31.65 220.78 32.61 219.83 33.56 218.87 32.61 218.87 31.65 219.83 29.74 220.78 28.78 223.65 27.83 227.48 27.83 230.34 28.78 231.3 29.74 232.26 31.65 232.26 33.56 231.3 35.48 228.43 37.39 223.65 39.3 221.74 40.26 219.83 42.17 218.87 45.04 218.87 47.91 M227.48 27.83 229.39 28.78 230.34 29.74 231.3 31.65 231.3 33.56 230.34 35.48 227.48 37.39 223.65 39.3 M218.87 45.99 219.83 45.04 221.74 45.04 226.52 46.95 229.39 46.95 231.3 45.99 232.26 45.04 M221.74 45.04 226.52 47.91 230.34 47.91 231.3 46.95 232.26 45.04 232.26 43.13 M208.99 94.8 201.34 121.57 M210.26 94.8 202.61 121.57 M205.16 94.8 219.19 94.8 223.01 96.07 224.29 98.63 224.29 101.18 223.01 105 221.74 106.28 217.91 107.55 M219.19 94.8 221.74 96.07 223.01 98.63 223.01 101.18 221.74 105 220.46 106.28 217.91 107.55 M206.44 107.55 217.91 107.55 220.46 108.82 221.74 111.38 221.74 113.93 220.46 117.75 217.91 120.3 212.81 121.57 197.51 121.57 M217.91 107.55 219.19 108.82 220.46 111.38 220.46 113.93 219.19 117.75 216.64 120.3 212.81 121.57 M241.13 71.4 265.13 84.9 241.13 98.4 M289.13 69.9 289.13 98.4 M290.63 66.9 290.63 98.4 M290.63 66.9 274.13 89.4 298.13 89.4 M284.63 98.4 295.13 98.4 M305.63 24 308.63 30.66 311.63 40.64 314.63 53.95 316.13 70.59 316.13 83.91 314.63 100.55 311.63 113.86 308.63 123.84 305.63 130.5 M308.63 30.66 311.63 43.97 313.13 53.95 314.63 70.59 314.63 83.91 313.13 100.55 311.63 110.53 308.63 123.84 "/></svg>