<svg 
      xmlns="http://www.w3.org/2000/svg" 
      width="843" height="156"
      fill="none" stroke="black" stroke-width="2" 
      stroke-linecap="round" stroke-linejoin="round"
    ><rect x="0" y="0" width="843" height="156" fill="white" stroke="none"></rect><path d="M46.5 61.5 45 63 46.5 64.5 48 63 48 61.5 46.5 60 43.5 60 40.5 61.5 39 63 37.5 66 36 70.5 31.5 91.5 30 97.5 28.5 100.5 M43.5 60 40.5 63 39 66 37.5 72 34.5 85.5 33 91.5 31.5 96 30 99 28.5 100.5 25.5 102 22.5 102 21 100.5 21 99 22.5 97.5 24 99 22.5 100.5 M30 70.5 45 70.5 M63 54 60 57 57 61.5 54 67.5 52.5 75 52.5 81 54 88.5 57 94.5 60 99 63 102 M60 57 57 63 55.5 67.5 54 75 54 81 55.5 88.5 57 93 60 99 M69 76.5 70.5 73.5 73.5 70.5 78 70.5 79.5 72 79.5 75 78 81 75 91.5 M76.5 70.5 78 72 78 75 76.5 81 73.5 91.5 M78 81 81 75 84 72 87 70.5 90 70.5 93 72 94.5 73.5 94.5 76.5 91.5 85.5 91.5 90 93 91.5 M90 70.5 93 73.5 93 76.5 90 85.5 90 90 91.5 91.5 96 91.5 99 88.5 100.5 85.5 M106.5 54 109.5 57 112.5 61.5 115.5 67.5 117 75 117 81 115.5 88.5 112.5 94.5 109.5 99 106.5 102 M109.5 57 112.5 63 114 67.5 115.5 75 115.5 81 114 88.5 112.5 93 109.5 99 M129 73.5 156 73.5 M129 82.5 156 82.5 M177.43 24 174 27.38 172.29 30.75 170.57 37.5 170.57 44.25 172.29 51 174 54.38 175.71 61.13 175.71 67.88 172.29 74.63 M174 27.38 172.29 34.13 172.29 40.88 174 47.63 175.71 51 177.43 57.75 177.43 64.5 175.71 71.25 168.86 78 175.71 84.75 177.43 91.5 177.43 98.25 175.71 105 174 108.38 172.29 115.13 172.29 121.88 174 128.63 M172.29 81.38 175.71 88.13 175.71 94.88 174 101.63 172.29 105 170.57 111.75 170.57 118.5 172.29 125.25 174 128.63 177.43 132 M199.5 46.5 201 43.5 204 40.5 208.5 40.5 210 42 210 45 208.5 51 205.5 61.5 M207 40.5 208.5 42 208.5 45 207 51 204 61.5 M208.5 51 211.5 45 214.5 42 217.5 40.5 220.5 40.5 223.5 42 225 43.5 225 46.5 222 55.5 222 60 223.5 61.5 M220.5 40.5 223.5 43.5 223.5 46.5 220.5 55.5 220.5 60 222 61.5 226.5 61.5 229.5 58.5 231 55.5 M262.5 24 235.5 72 M271.5 36 273 37.5 271.5 39 270 37.5 270 36 271.5 33 273 31.5 277.5 30 283.5 30 288 31.5 289.5 33 291 36 291 39 289.5 42 285 45 277.5 48 274.5 49.5 271.5 52.5 270 57 270 61.5 M283.5 30 286.5 31.5 288 33 289.5 36 289.5 39 288 42 283.5 45 277.5 48 M270 58.5 271.5 57 274.5 57 282 60 286.5 60 289.5 58.5 291 57 M274.5 57 282 61.5 288 61.5 289.5 60 291 57 291 54 M501 30 499.5 31.5 501 33 502.5 31.5 501 30 M501 40.5 501 61.5 M502.5 40.5 502.5 61.5 M496.5 40.5 502.5 40.5 M496.5 61.5 507 61.5 M525 31.5 523.5 33 525 34.5 526.5 33 526.5 31.5 525 30 522 30 519 31.5 517.5 34.5 517.5 61.5 M522 30 520.5 31.5 519 34.5 519 61.5 M513 40.5 525 40.5 M513 61.5 523.5 61.5 M555 46.5 556.5 43.5 559.5 40.5 564 40.5 565.5 42 565.5 45 564 51 561 61.5 M562.5 40.5 564 42 564 45 562.5 51 559.5 61.5 M564 51 567 45 570 42 573 40.5 576 40.5 579 42 580.5 43.5 580.5 46.5 577.5 55.5 577.5 60 579 61.5 M576 40.5 579 43.5 579 46.5 576 55.5 576 60 577.5 61.5 582 61.5 585 58.5 586.5 55.5 M619.5 30 618 31.5 619.5 33 621 31.5 619.5 30 M619.5 40.5 619.5 61.5 M621 40.5 621 61.5 M615 40.5 621 40.5 M615 61.5 625.5 61.5 M648 43.5 649.5 40.5 649.5 46.5 648 43.5 646.5 42 643.5 40.5 637.5 40.5 634.5 42 633 43.5 633 46.5 634.5 48 637.5 49.5 645 52.5 648 54 649.5 55.5 M633 45 634.5 46.5 637.5 48 645 51 648 52.5 649.5 54 649.5 58.5 648 60 645 61.5 639 61.5 636 60 634.5 58.5 633 55.5 633 61.5 634.5 58.5 M684 49.5 702 49.5 702 46.5 700.5 43.5 699 42 696 40.5 691.5 40.5 687 42 684 45 682.5 49.5 682.5 52.5 684 57 687 60 691.5 61.5 694.5 61.5 699 60 702 57 M700.5 49.5 700.5 45 699 42 M691.5 40.5 688.5 42 685.5 45 684 49.5 684 52.5 685.5 57 688.5 60 691.5 61.5 M711 40.5 720 61.5 M712.5 40.5 720 58.5 M729 40.5 720 61.5 M708 40.5 717 40.5 M723 40.5 732 40.5 M739.5 49.5 757.5 49.5 757.5 46.5 756 43.5 754.5 42 751.5 40.5 747 40.5 742.5 42 739.5 45 738 49.5 738 52.5 739.5 57 742.5 60 747 61.5 750 61.5 754.5 60 757.5 57 M756 49.5 756 45 754.5 42 M747 40.5 744 42 741 45 739.5 49.5 739.5 52.5 741 57 744 60 747 61.5 M769.5 40.5 769.5 61.5 M771 40.5 771 61.5 M771 45 774 42 778.5 40.5 781.5 40.5 786 42 787.5 45 787.5 61.5 M781.5 40.5 784.5 42 786 45 786 61.5 M765 40.5 771 40.5 M765 61.5 775.5 61.5 M781.5 61.5 792 61.5 M204 108 231 108 M253.5 84 250.5 87 247.5 91.5 244.5 97.5 243 105 243 111 244.5 118.5 247.5 124.5 250.5 129 253.5 132 M250.5 87 247.5 93 246 97.5 244.5 105 244.5 111 246 118.5 247.5 123 250.5 129 M259.5 106.5 261 103.5 264 100.5 268.5 100.5 270 102 270 105 268.5 111 265.5 121.5 M267 100.5 268.5 102 268.5 105 267 111 264 121.5 M268.5 111 271.5 105 274.5 102 277.5 100.5 280.5 100.5 283.5 102 285 103.5 285 106.5 282 115.5 282 120 283.5 121.5 M280.5 100.5 283.5 103.5 283.5 106.5 280.5 115.5 280.5 120 282 121.5 286.5 121.5 289.5 118.5 291 115.5 M312 94.5 312 121.5 M298.5 108 325.5 108 M340.5 96 343.5 94.5 348 90 348 121.5 M346.5 91.5 346.5 121.5 M340.5 121.5 354 121.5 M366 84 369 87 372 91.5 375 97.5 376.5 105 376.5 111 375 118.5 372 124.5 369 129 366 132 M369 87 372 93 373.5 97.5 375 105 375 111 373.5 118.5 372 123 369 129 M412.5 84 385.5 132 M421.5 96 423 97.5 421.5 99 420 97.5 420 96 421.5 93 423 91.5 427.5 90 433.5 90 438 91.5 439.5 93 441 96 441 99 439.5 102 435 105 427.5 108 424.5 109.5 421.5 112.5 420 117 420 121.5 M433.5 90 436.5 91.5 438 93 439.5 96 439.5 99 438 102 433.5 105 427.5 108 M420 118.5 421.5 117 424.5 117 432 120 436.5 120 439.5 118.5 441 117 M424.5 117 432 121.5 438 121.5 439.5 120 441 117 441 114 M501 90 499.5 91.5 501 93 502.5 91.5 501 90 M501 100.5 501 121.5 M502.5 100.5 502.5 121.5 M496.5 100.5 502.5 100.5 M496.5 121.5 507 121.5 M525 91.5 523.5 93 525 94.5 526.5 93 526.5 91.5 525 90 522 90 519 91.5 517.5 94.5 517.5 121.5 M522 90 520.5 91.5 519 94.5 519 121.5 M513 100.5 525 100.5 M513 121.5 523.5 121.5 M555 106.5 556.5 103.5 559.5 100.5 564 100.5 565.5 102 565.5 105 564 111 561 121.5 M562.5 100.5 564 102 564 105 562.5 111 559.5 121.5 M564 111 567 105 570 102 573 100.5 576 100.5 579 102 580.5 103.5 580.5 106.5 577.5 115.5 577.5 120 579 121.5 M576 100.5 579 103.5 579 106.5 576 115.5 576 120 577.5 121.5 582 121.5 585 118.5 586.5 115.5 M619.5 90 618 91.5 619.5 93 621 91.5 619.5 90 M619.5 100.5 619.5 121.5 M621 100.5 621 121.5 M615 100.5 621 100.5 M615 121.5 625.5 121.5 M648 103.5 649.5 100.5 649.5 106.5 648 103.5 646.5 102 643.5 100.5 637.5 100.5 634.5 102 633 103.5 633 106.5 634.5 108 637.5 109.5 645 112.5 648 114 649.5 115.5 M633 105 634.5 106.5 637.5 108 645 111 648 112.5 649.5 114 649.5 118.5 648 120 645 121.5 639 121.5 636 120 634.5 118.5 633 115.5 633 121.5 634.5 118.5 M691.5 100.5 687 102 684 105 682.5 109.5 682.5 112.5 684 117 687 120 691.5 121.5 694.5 121.5 699 120 702 117 703.5 112.5 703.5 109.5 702 105 699 102 694.5 100.5 691.5 100.5 M691.5 100.5 688.5 102 685.5 105 684 109.5 684 112.5 685.5 117 688.5 120 691.5 121.5 M694.5 121.5 697.5 120 700.5 117 702 112.5 702 109.5 700.5 105 697.5 102 694.5 100.5 M730.5 90 730.5 121.5 M732 90 732 121.5 M730.5 105 727.5 102 724.5 100.5 721.5 100.5 717 102 714 105 712.5 109.5 712.5 112.5 714 117 717 120 721.5 121.5 724.5 121.5 727.5 120 730.5 117 M721.5 100.5 718.5 102 715.5 105 714 109.5 714 112.5 715.5 117 718.5 120 721.5 121.5 M726 90 732 90 M730.5 121.5 736.5 121.5 M762 90 762 121.5 M763.5 90 763.5 121.5 M762 105 759 102 756 100.5 753 100.5 748.5 102 745.5 105 744 109.5 744 112.5 745.5 117 748.5 120 753 121.5 756 121.5 759 120 762 117 M753 100.5 750 102 747 105 745.5 109.5 745.5 112.5 747 117 750 120 753 121.5 M757.5 90 763.5 90 M762 121.5 768 121.5 "/></svg>