<svg 
      xmlns="http://www.w3.org/2000/svg" 
      width="661.88" height="192"
      fill="none" stroke="black" stroke-width="2" 
      stroke-linecap="round" stroke-linejoin="round"
    ><rect x="0" y="0" width="661.88" height="192" fill="white" stroke="none"></rect><path d="M40.5 60 37.5 64.5 34.5 71.25 31.5 80.25 30 91.5 30 100.5 31.5 111.75 34.5 120.75 37.5 127.5 40.5 132 M37.5 64.5 34.5 73.5 33 80.25 31.5 91.5 31.5 100.5 33 111.75 34.5 118.5 37.5 127.5 M57.38 60 79.88 91.5 55.13 132 M55.13 60 77.63 91.5 M52.88 60 77.63 93.75 M52.88 60 104.63 60 109.13 75.75 102.38 60 M57.38 129.75 104.63 129.75 M55.13 132 104.63 132 109.13 116.25 102.38 132 M52.88 136.5 46.13 160.13 M54 136.5 47.25 160.13 M61.88 145.5 60.75 146.63 61.88 147.75 63 146.63 63 145.5 61.88 144.38 60.75 144.38 58.5 145.5 54 150 51.75 151.13 49.5 151.13 M51.75 151.13 54 152.25 56.25 159 57.38 160.13 M51.75 151.13 52.88 152.25 55.13 159 56.25 160.13 58.5 160.13 60.75 159 63 155.63 M49.5 136.5 54 136.5 M70.88 146.63 91.13 146.63 M70.88 153.38 91.13 153.38 M102.38 141 104.63 139.88 108 136.5 108 160.13 M106.88 137.63 106.88 160.13 M102.38 160.13 112.5 160.13 M69.19 40.88 70.31 38.63 72.56 36.38 75.94 36.38 77.06 37.5 77.06 39.75 75.94 44.25 73.69 52.13 M74.81 36.38 75.94 37.5 75.94 39.75 74.81 44.25 72.56 52.13 M75.94 44.25 78.19 39.75 80.44 37.5 82.69 36.38 84.94 36.38 87.19 37.5 88.31 38.63 88.31 40.88 86.06 47.63 86.06 51 87.19 52.13 M84.94 36.38 87.19 38.63 87.19 40.88 84.94 47.63 84.94 51 86.06 52.13 89.44 52.13 91.69 49.88 92.81 47.63 M142.13 88.5 139.13 99 137.63 105 137.63 108 139.13 109.5 143.63 109.5 146.63 106.5 148.13 103.5 M143.63 88.5 140.63 99 139.13 105 139.13 108 140.63 109.5 M139.13 99 139.13 94.5 137.63 90 134.63 88.5 131.63 88.5 127.13 90 124.13 94.5 122.63 99 122.63 103.5 124.13 106.5 125.63 108 128.63 109.5 131.63 109.5 134.63 108 137.63 103.5 139.13 99 M131.63 88.5 128.63 90 125.63 94.5 124.13 99 124.13 105 125.63 108 M158.63 106.5 151.88 130.13 M159.75 106.5 153 130.13 M167.63 115.5 166.5 116.63 167.63 117.75 168.75 116.63 168.75 115.5 167.63 114.38 166.5 114.38 164.25 115.5 159.75 120 157.5 121.13 155.25 121.13 M157.5 121.13 159.75 122.25 162 129 163.13 130.13 M157.5 121.13 158.63 122.25 160.88 129 162 130.13 164.25 130.13 166.5 129 168.75 125.63 M155.25 106.5 159.75 106.5 M184.13 78 178.13 97.5 178.13 102 179.63 106.5 181.13 108 M185.63 78 179.63 97.5 M179.63 97.5 181.13 93 184.13 90 187.13 88.5 190.13 88.5 193.13 90 194.63 91.5 196.13 94.5 196.13 99 194.63 103.5 191.63 108 187.13 109.5 184.13 109.5 181.13 108 179.63 103.5 179.63 97.5 M193.13 90 194.63 93 194.63 99 193.13 103.5 190.13 108 187.13 109.5 M179.63 78 185.63 78 M209.63 106.5 202.88 130.13 M210.75 106.5 204 130.13 M218.63 115.5 217.5 116.63 218.63 117.75 219.75 116.63 219.75 115.5 218.63 114.38 217.5 114.38 215.25 115.5 210.75 120 208.5 121.13 206.25 121.13 M208.5 121.13 210.75 122.25 213 129 214.13 130.13 M208.5 121.13 209.63 122.25 211.88 129 213 130.13 215.25 130.13 217.5 129 219.75 125.63 M206.25 106.5 210.75 106.5 M227.63 60 230.63 64.5 233.63 71.25 236.63 80.25 238.13 91.5 238.13 100.5 236.63 111.75 233.63 120.75 230.63 127.5 227.63 132 M230.63 64.5 233.63 73.5 235.13 80.25 236.63 91.5 236.63 100.5 235.13 111.75 233.63 118.5 230.63 127.5 M248.63 63 249.75 64.13 248.63 65.25 247.5 64.13 247.5 63 248.63 60.75 249.75 59.63 253.13 58.5 257.63 58.5 261 59.63 262.13 60.75 263.25 63 263.25 65.25 262.13 67.5 258.75 69.75 253.13 72 250.88 73.13 248.63 75.38 247.5 78.75 247.5 82.13 M257.63 58.5 259.88 59.63 261 60.75 262.13 63 262.13 65.25 261 67.5 257.63 69.75 253.13 72 M247.5 79.88 248.63 78.75 250.88 78.75 256.5 81 259.88 81 262.13 79.88 263.25 78.75 M250.88 78.75 256.5 82.13 261 82.13 262.13 81 263.25 78.75 263.25 76.5 M296.63 78 272.63 88.5 296.63 99 M272.63 102 296.63 102 M272.63 109.5 296.63 109.5 M319.13 60 316.13 64.5 313.13 71.25 310.13 80.25 308.63 91.5 308.63 100.5 310.13 111.75 313.13 120.75 316.13 127.5 319.13 132 M316.13 64.5 313.13 73.5 311.63 80.25 310.13 91.5 310.13 100.5 311.63 111.75 313.13 118.5 316.13 127.5 M336 60 358.5 91.5 333.75 132 M333.75 60 356.25 91.5 M331.5 60 356.25 93.75 M331.5 60 383.25 60 387.75 75.75 381 60 M336 129.75 383.25 129.75 M333.75 132 383.25 132 387.75 116.25 381 132 M331.5 136.5 324.75 160.13 M332.63 136.5 325.88 160.13 M340.5 145.5 339.38 146.63 340.5 147.75 341.63 146.63 341.63 145.5 340.5 144.38 339.38 144.38 337.13 145.5 332.63 150 330.38 151.13 328.13 151.13 M330.38 151.13 332.63 152.25 334.88 159 336 160.13 M330.38 151.13 331.5 152.25 333.75 159 334.88 160.13 337.13 160.13 339.38 159 341.63 155.63 M328.13 136.5 332.63 136.5 M349.5 146.63 369.75 146.63 M349.5 153.38 369.75 153.38 M381 141 383.25 139.88 386.63 136.5 386.63 160.13 M385.5 137.63 385.5 160.13 M381 160.13 391.13 160.13 M347.81 40.88 348.94 38.63 351.19 36.38 354.56 36.38 355.69 37.5 355.69 39.75 354.56 44.25 352.31 52.13 M353.44 36.38 354.56 37.5 354.56 39.75 353.44 44.25 351.19 52.13 M354.56 44.25 356.81 39.75 359.06 37.5 361.31 36.38 363.56 36.38 365.81 37.5 366.94 38.63 366.94 40.88 364.69 47.63 364.69 51 365.81 52.13 M363.56 36.38 365.81 38.63 365.81 40.88 363.56 47.63 363.56 51 364.69 52.13 368.06 52.13 370.31 49.88 371.44 47.63 M420.75 88.5 417.75 99 416.25 105 416.25 108 417.75 109.5 422.25 109.5 425.25 106.5 426.75 103.5 M422.25 88.5 419.25 99 417.75 105 417.75 108 419.25 109.5 M417.75 99 417.75 94.5 416.25 90 413.25 88.5 410.25 88.5 405.75 90 402.75 94.5 401.25 99 401.25 103.5 402.75 106.5 404.25 108 407.25 109.5 410.25 109.5 413.25 108 416.25 103.5 417.75 99 M410.25 88.5 407.25 90 404.25 94.5 402.75 99 402.75 105 404.25 108 M437.25 106.5 430.5 130.13 M438.38 106.5 431.63 130.13 M446.25 115.5 445.13 116.63 446.25 117.75 447.38 116.63 447.38 115.5 446.25 114.38 445.13 114.38 442.88 115.5 438.38 120 436.13 121.13 433.88 121.13 M436.13 121.13 438.38 122.25 440.63 129 441.75 130.13 M436.13 121.13 437.25 122.25 439.5 129 440.63 130.13 442.88 130.13 445.13 129 447.38 125.63 M433.88 106.5 438.38 106.5 M432.75 63 433.88 64.13 432.75 65.25 431.63 64.13 431.63 63 432.75 60.75 433.88 59.63 437.25 58.5 441.75 58.5 445.13 59.63 446.25 60.75 447.38 63 447.38 65.25 446.25 67.5 442.88 69.75 437.25 72 435 73.13 432.75 75.38 431.63 78.75 431.63 82.13 M441.75 58.5 444 59.63 445.13 60.75 446.25 63 446.25 65.25 445.13 67.5 441.75 69.75 437.25 72 M431.63 79.88 432.75 78.75 435 78.75 440.63 81 444 81 446.25 79.88 447.38 78.75 M435 78.75 440.63 82.13 445.13 82.13 446.25 81 447.38 78.75 447.38 76.5 M455.25 60 458.25 64.5 461.25 71.25 464.25 80.25 465.75 91.5 465.75 100.5 464.25 111.75 461.25 120.75 458.25 127.5 455.25 132 M458.25 64.5 461.25 73.5 462.75 80.25 464.25 91.5 464.25 100.5 462.75 111.75 461.25 118.5 458.25 127.5 M488.25 60 485.25 64.5 482.25 71.25 479.25 80.25 477.75 91.5 477.75 100.5 479.25 111.75 482.25 120.75 485.25 127.5 488.25 132 M485.25 64.5 482.25 73.5 480.75 80.25 479.25 91.5 479.25 100.5 480.75 111.75 482.25 118.5 485.25 127.5 M505.13 60 527.63 91.5 502.88 132 M502.88 60 525.38 91.5 M500.63 60 525.38 93.75 M500.63 60 552.38 60 556.88 75.75 550.13 60 M505.13 129.75 552.38 129.75 M502.88 132 552.38 132 556.88 116.25 550.13 132 M500.63 136.5 493.88 160.13 M501.75 136.5 495 160.13 M509.63 145.5 508.5 146.63 509.63 147.75 510.75 146.63 510.75 145.5 509.63 144.38 508.5 144.38 506.25 145.5 501.75 150 499.5 151.13 497.25 151.13 M499.5 151.13 501.75 152.25 504 159 505.13 160.13 M499.5 151.13 500.63 152.25 502.88 159 504 160.13 506.25 160.13 508.5 159 510.75 155.63 M497.25 136.5 501.75 136.5 M518.63 146.63 538.88 146.63 M518.63 153.38 538.88 153.38 M550.13 141 552.38 139.88 555.75 136.5 555.75 160.13 M554.63 137.63 554.63 160.13 M550.13 160.13 560.25 160.13 M516.94 40.88 518.06 38.63 520.31 36.38 523.69 36.38 524.81 37.5 524.81 39.75 523.69 44.25 521.44 52.13 M522.56 36.38 523.69 37.5 523.69 39.75 522.56 44.25 520.31 52.13 M523.69 44.25 525.94 39.75 528.19 37.5 530.44 36.38 532.69 36.38 534.94 37.5 536.06 38.63 536.06 40.88 533.81 47.63 533.81 51 534.94 52.13 M532.69 36.38 534.94 38.63 534.94 40.88 532.69 47.63 532.69 51 533.81 52.13 537.19 52.13 539.44 49.88 540.56 47.63 M577.88 78 571.88 97.5 571.88 102 573.38 106.5 574.88 108 M579.38 78 573.38 97.5 M573.38 97.5 574.88 93 577.88 90 580.88 88.5 583.88 88.5 586.88 90 588.38 91.5 589.88 94.5 589.88 99 588.38 103.5 585.38 108 580.88 109.5 577.88 109.5 574.88 108 573.38 103.5 573.38 97.5 M586.88 90 588.38 93 588.38 99 586.88 103.5 583.88 108 580.88 109.5 M573.38 78 579.38 78 M603.38 106.5 596.63 130.13 M604.5 106.5 597.75 130.13 M612.38 115.5 611.25 116.63 612.38 117.75 613.5 116.63 613.5 115.5 612.38 114.38 611.25 114.38 609 115.5 604.5 120 602.25 121.13 600 121.13 M602.25 121.13 604.5 122.25 606.75 129 607.88 130.13 M602.25 121.13 603.38 122.25 605.63 129 606.75 130.13 609 130.13 611.25 129 613.5 125.63 M600 106.5 604.5 106.5 M598.88 63 600 64.13 598.88 65.25 597.75 64.13 597.75 63 598.88 60.75 600 59.63 603.38 58.5 607.88 58.5 611.25 59.63 612.38 60.75 613.5 63 613.5 65.25 612.38 67.5 609 69.75 603.38 72 601.13 73.13 598.88 75.38 597.75 78.75 597.75 82.13 M607.88 58.5 610.13 59.63 611.25 60.75 612.38 63 612.38 65.25 611.25 67.5 607.88 69.75 603.38 72 M597.75 79.88 598.88 78.75 601.13 78.75 606.75 81 610.13 81 612.38 79.88 613.5 78.75 M601.13 78.75 606.75 82.13 611.25 82.13 612.38 81 613.5 78.75 613.5 76.5 M621.38 60 624.38 64.5 627.38 71.25 630.38 80.25 631.88 91.5 631.88 100.5 630.38 111.75 627.38 120.75 624.38 127.5 621.38 132 M624.38 64.5 627.38 73.5 628.88 80.25 630.38 91.5 630.38 100.5 628.88 111.75 627.38 118.5 624.38 127.5 "/></svg>