<svg 
      xmlns="http://www.w3.org/2000/svg" 
      width="504.38" height="168"
      fill="none" stroke="black" stroke-width="2" 
      stroke-linecap="round" stroke-linejoin="round"
    ><rect x="0" y="0" width="504.38" height="168" fill="white" stroke="none"></rect><path d="M46.5 67.5 45 69 46.5 70.5 48 69 48 67.5 46.5 66 43.5 66 40.5 67.5 39 69 37.5 72 36 76.5 31.5 97.5 30 103.5 28.5 106.5 M43.5 66 40.5 69 39 72 37.5 78 34.5 91.5 33 97.5 31.5 102 30 105 28.5 106.5 25.5 108 22.5 108 21 106.5 21 105 22.5 103.5 24 105 22.5 106.5 M30 76.5 45 76.5 M63 60 60 63 57 67.5 54 73.5 52.5 81 52.5 87 54 94.5 57 100.5 60 105 63 108 M60 63 57 69 55.5 73.5 54 81 54 87 55.5 94.5 57 99 60 105 M72 82.5 75 78 78 76.5 82.5 76.5 84 79.5 84 84 M81 76.5 82.5 79.5 82.5 84 81 90 79.5 93 76.5 96 73.5 97.5 72 97.5 70.5 96 70.5 94.5 72 93 73.5 94.5 72 96 M81 90 81 94.5 82.5 97.5 87 97.5 90 96 93 91.5 M93 78 91.5 79.5 93 81 94.5 79.5 94.5 78 93 76.5 91.5 76.5 88.5 78 85.5 81 84 84 82.5 90 82.5 94.5 84 97.5 M102 60 105 63 108 67.5 111 73.5 112.5 81 112.5 87 111 94.5 108 100.5 105 105 102 108 M105 63 108 69 109.5 73.5 111 81 111 87 109.5 94.5 108 99 105 105 M124.5 79.5 151.5 79.5 M124.5 88.5 151.5 88.5 M196.5 28.62 195 28.62 193.5 30.15 193.5 31.69 195 33.23 196.5 33.23 198 31.69 198 28.62 196.5 25.54 193.5 24 190.5 24 187.5 25.54 184.5 28.62 183 31.69 181.5 36.31 180 47.08 178.5 71.69 178.5 120.92 177 134.77 175.5 139.38 M195 30.15 195 31.69 196.5 31.69 196.5 30.15 195 30.15 M180 47.08 180 120.92 M184.5 28.62 183 33.23 181.5 47.08 181.5 96.31 180 120.92 178.5 131.69 177 136.31 175.5 139.38 172.5 142.46 169.5 144 166.5 144 163.5 142.46 162 139.38 162 136.31 163.5 134.77 165 134.77 166.5 136.31 166.5 137.85 165 139.38 163.5 139.38 M163.5 136.31 163.5 137.85 165 137.85 165 136.31 163.5 136.31 M207 126 227.25 126 M256.5 127.13 255.38 129.38 253.13 130.5 250.88 130.5 248.63 129.38 247.5 128.25 244.13 123.75 243 122.63 240.75 121.5 238.5 121.5 236.25 122.63 235.13 124.88 235.13 127.13 236.25 129.38 238.5 130.5 240.75 130.5 243 129.38 244.13 128.25 247.5 123.75 248.63 122.63 250.88 121.5 253.13 121.5 255.38 122.63 256.5 124.88 256.5 127.13 M227.25 43.13 226.13 45.38 223.88 46.5 221.63 46.5 219.38 45.38 218.25 44.25 214.88 39.75 213.75 38.63 211.5 37.5 209.25 37.5 207 38.63 205.88 40.88 205.88 43.13 207 45.38 209.25 46.5 211.5 46.5 213.75 45.38 214.88 44.25 218.25 39.75 219.38 38.63 221.63 37.5 223.88 37.5 226.13 38.63 227.25 40.88 227.25 43.13 M262.94 57.75 271.13 50.25 279.31 57.75 M262.94 57.75 271.13 51.75 279.31 57.75 M282.38 67.5 280.88 69 282.38 70.5 283.88 69 283.88 67.5 282.38 66 279.38 66 276.38 67.5 274.88 69 273.38 72 271.88 76.5 267.38 97.5 265.88 103.5 264.38 106.5 M279.38 66 276.38 69 274.88 72 273.38 78 270.38 91.5 268.88 97.5 267.38 102 265.88 105 264.38 106.5 261.38 108 258.38 108 256.88 106.5 256.88 105 258.38 103.5 259.88 105 258.38 106.5 M265.88 76.5 280.88 76.5 M298.88 60 295.88 63 292.88 67.5 289.88 73.5 288.38 81 288.38 87 289.88 94.5 292.88 100.5 295.88 105 298.88 108 M295.88 63 292.88 69 291.38 73.5 289.88 81 289.88 87 291.38 94.5 292.88 99 295.88 105 M319.88 66 316.88 67.5 315.38 69 315.38 70.5 316.88 72 321.38 73.5 325.88 73.5 M321.38 73.5 315.38 75 312.38 76.5 310.88 79.5 310.88 82.5 313.88 85.5 318.38 87 322.88 87 M321.38 73.5 316.88 75 313.88 76.5 312.38 79.5 312.38 82.5 315.38 85.5 318.38 87 M318.38 87 312.38 88.5 309.38 90 307.88 93 307.88 96 310.88 99 318.38 102 319.88 103.5 319.88 106.5 316.88 108 313.88 108 M318.38 87 313.88 88.5 310.88 90 309.38 93 309.38 96 312.38 99 318.38 102 M333.38 60 336.38 63 339.38 67.5 342.38 73.5 343.88 81 343.88 87 342.38 94.5 339.38 100.5 336.38 105 333.38 108 M336.38 63 339.38 69 340.88 73.5 342.38 81 342.38 87 340.88 94.5 339.38 99 336.38 105 M355.88 90 361.88 88.5 366.38 87 370.88 84 372.38 81 370.88 78 367.88 76.5 363.38 76.5 358.88 78 355.88 82.5 354.38 87 354.38 91.5 355.88 94.5 357.38 96 360.38 97.5 363.38 97.5 367.88 96 370.88 93 M363.38 76.5 360.38 78 357.38 82.5 355.88 87 355.88 93 357.38 96 M381.38 51 382.5 52.13 381.38 53.25 380.25 52.13 380.25 51 381.38 48.75 382.5 47.63 385.88 46.5 390.38 46.5 393.75 47.63 394.88 48.75 396 51 396 53.25 394.88 55.5 391.5 57.75 385.88 60 383.63 61.13 381.38 63.38 380.25 66.75 380.25 70.13 M390.38 46.5 392.63 47.63 393.75 48.75 394.88 51 394.88 53.25 393.75 55.5 390.38 57.75 385.88 60 M380.25 67.88 381.38 66.75 383.63 66.75 389.25 69 392.63 69 394.88 67.88 396 66.75 M383.63 66.75 389.25 70.13 393.75 70.13 394.88 69 396 66.75 396 64.5 M409.5 55.5 405 70.13 M409.5 55.5 406.13 70.13 M416.25 55.5 416.25 70.13 M416.25 55.5 417.38 70.13 M401.63 57.75 403.88 55.5 407.25 54.38 421.88 54.38 M401.63 57.75 403.88 56.63 407.25 55.5 421.88 55.5 M434.25 46.5 433.13 47.63 434.25 48.75 435.38 47.63 434.25 46.5 M425.25 58.88 426.38 56.63 428.63 54.38 432 54.38 433.13 55.5 433.13 58.88 430.88 65.63 430.88 69 432 70.13 M430.88 54.38 432 55.5 432 58.88 429.75 65.63 429.75 69 430.88 70.13 434.25 70.13 436.5 67.88 437.63 65.63 M451.13 46.5 448.88 47.63 447.75 48.75 447.75 49.88 448.88 51 452.25 52.13 455.63 52.13 M452.25 52.13 447.75 53.25 445.5 54.38 444.38 56.63 444.38 58.88 446.63 61.13 450 62.25 453.38 62.25 M452.25 52.13 448.88 53.25 446.63 54.38 445.5 56.63 445.5 58.88 447.75 61.13 450 62.25 M450 62.25 445.5 63.38 443.25 64.5 442.13 66.75 442.13 69 444.38 71.25 450 73.5 451.13 74.63 451.13 76.88 448.88 78 446.63 78 M450 62.25 446.63 63.38 444.38 64.5 443.25 66.75 443.25 69 445.5 71.25 450 73.5 M461.25 58.88 463.5 55.5 465.75 54.38 469.13 54.38 470.25 56.63 470.25 60 M468 54.38 469.13 56.63 469.13 60 468 64.5 466.88 66.75 464.63 69 462.38 70.13 461.25 70.13 460.13 69 460.13 67.88 461.25 66.75 462.38 67.88 461.25 69 M468 64.5 468 67.88 469.13 70.13 472.5 70.13 474.75 69 477 65.63 M477 55.5 475.88 56.63 477 57.75 478.13 56.63 478.13 55.5 477 54.38 475.88 54.38 473.63 55.5 471.38 57.75 470.25 60 469.13 64.5 469.13 67.88 470.25 70.13 "/></svg>