<svg 
      xmlns="http://www.w3.org/2000/svg" 
      width="463.05" height="144"
      fill="none" stroke="black" stroke-width="2" 
      stroke-linecap="round" stroke-linejoin="round"
    ><rect x="0" y="0" width="463.05" height="144" fill="white" stroke="none"></rect><path d="M24 72 198.68 72 M91.58 45.53 92.85 42.98 95.4 40.42 99.23 40.42 100.5 41.7 100.5 44.25 99.23 49.35 96.68 58.28 M97.95 40.42 99.23 41.7 99.23 44.25 97.95 49.35 95.4 58.28 M99.23 49.35 101.78 44.25 104.33 41.7 106.88 40.42 109.43 40.42 111.98 41.7 113.25 42.98 113.25 45.53 110.7 53.18 110.7 57 111.98 58.28 M109.43 40.42 111.98 42.98 111.98 45.53 109.43 53.18 109.43 57 110.7 58.28 114.53 58.28 117.07 55.73 118.35 53.18 M126 31.5 124.73 34.05 126 49.35 127.28 34.05 126 31.5 M126 34.05 126 41.7 M126 55.73 124.73 57 126 58.28 127.28 57 126 55.73 M34.2 81.9 26.55 108.68 M35.48 81.9 27.83 108.68 M44.4 92.1 43.13 93.38 44.4 94.65 45.68 93.38 45.68 92.1 44.4 90.83 43.13 90.83 40.58 92.1 35.48 97.2 32.92 98.48 30.38 98.48 M32.92 98.48 35.48 99.75 38.03 107.4 39.3 108.68 M32.92 98.48 34.2 99.75 36.75 107.4 38.03 108.68 40.58 108.68 43.13 107.4 45.68 103.58 M30.38 81.9 35.48 81.9 M55.88 81.9 54.6 84.45 55.88 99.75 57.15 84.45 55.88 81.9 M55.88 84.45 55.88 92.1 M55.88 106.13 54.6 107.4 55.88 108.68 57.15 107.4 55.88 106.13 M76.28 76.8 73.72 79.35 71.18 83.18 68.63 88.28 67.35 94.65 67.35 99.75 68.63 106.13 71.18 111.23 73.72 115.05 76.28 117.6 M73.72 79.35 71.18 84.45 69.9 88.28 68.63 94.65 68.63 99.75 69.9 106.13 71.18 109.95 73.72 115.05 M81.38 95.93 82.65 93.38 85.2 90.83 89.03 90.83 90.3 92.1 90.3 94.65 89.03 99.75 86.48 108.68 M87.75 90.83 89.03 92.1 89.03 94.65 87.75 99.75 85.2 108.68 M89.03 99.75 91.57 94.65 94.13 92.1 96.68 90.83 99.23 90.83 101.78 92.1 103.05 93.38 103.05 95.93 100.5 103.58 100.5 107.4 101.78 108.68 M99.23 90.83 101.78 93.38 101.78 95.93 99.23 103.58 99.23 107.4 100.5 108.68 104.32 108.68 106.88 106.13 108.15 103.58 M114.53 97.2 137.48 97.2 M152.77 81.9 145.13 108.68 M154.05 81.9 146.4 108.68 M162.98 92.1 161.7 93.38 162.98 94.65 164.25 93.38 164.25 92.1 162.98 90.83 161.7 90.83 159.15 92.1 154.05 97.2 151.5 98.48 148.95 98.48 M151.5 98.48 154.05 99.75 156.6 107.4 157.88 108.68 M151.5 98.48 152.77 99.75 155.32 107.4 156.6 108.68 159.15 108.68 161.7 107.4 164.25 103.58 M148.95 81.9 154.05 81.9 M171.9 76.8 174.45 79.35 177 83.18 179.55 88.28 180.83 94.65 180.83 99.75 179.55 106.13 177 111.23 174.45 115.05 171.9 117.6 M174.45 79.35 177 84.45 178.27 88.28 179.55 94.65 179.55 99.75 178.27 106.13 177 109.95 174.45 115.05 M192.3 81.9 191.03 84.45 192.3 99.75 193.58 84.45 192.3 81.9 M192.3 84.45 192.3 92.1 M192.3 106.13 191.03 107.4 192.3 108.68 193.58 107.4 192.3 106.13 M204.68 67.5 231.68 67.5 M204.68 76.5 231.68 76.5 M238.8 46.88 239.93 44.63 242.18 42.38 245.55 42.38 246.68 43.5 246.68 45.75 245.55 50.25 243.3 58.13 M244.43 42.38 245.55 43.5 245.55 45.75 244.43 50.25 242.18 58.13 M245.55 50.25 247.8 45.75 250.05 43.5 252.3 42.38 254.55 42.38 256.8 43.5 257.92 44.63 257.92 46.88 255.68 53.63 255.68 57 256.8 58.13 M254.55 42.38 256.8 44.63 256.8 46.88 254.55 53.63 254.55 57 255.68 58.13 259.05 58.13 261.3 55.88 262.42 53.63 M290.55 57 292.05 57 293.55 54 292.05 63 292.05 60 290.55 57 289.05 55.5 286.05 54 281.55 54 277.05 55.5 274.05 58.5 271.05 63 269.55 67.5 268.05 73.5 268.05 78 269.55 82.5 271.05 84 275.55 85.5 280.05 85.5 283.05 84 286.05 81 287.55 78 M281.55 54 278.55 55.5 275.55 58.5 272.55 63 271.05 67.5 269.55 73.5 269.55 78 271.05 82.5 272.55 84 275.55 85.5 M304.05 82.5 297.3 106.13 M305.17 82.5 298.42 106.13 M313.05 91.5 311.92 92.63 313.05 93.75 314.17 92.63 314.17 91.5 313.05 90.38 311.92 90.38 309.67 91.5 305.17 96 302.92 97.13 300.67 97.13 M302.92 97.13 305.17 98.25 307.42 105 308.55 106.13 M302.92 97.13 304.05 98.25 306.3 105 307.42 106.13 309.67 106.13 311.92 105 314.17 101.63 M300.67 82.5 305.17 82.5 M323.55 67.5 350.55 67.5 M323.55 76.5 350.55 76.5 M375.41 24 371.98 30 368.55 39 365.12 51 363.41 66 363.41 78 365.12 93 368.55 105 371.98 114 375.41 120 M371.98 30 368.55 42 366.84 51 365.12 66 365.12 78 366.84 93 368.55 102 371.98 114 M420.19 24 423.62 30 427.05 39 430.48 51 432.19 66 432.19 78 430.48 93 427.05 105 423.62 114 420.19 120 M423.62 30 427.05 42 428.76 51 430.48 66 430.48 78 428.76 93 427.05 102 423.62 114 M382.05 46.5 383.55 43.5 386.55 40.5 391.05 40.5 392.55 42 392.55 45 391.05 51 388.05 61.5 M389.55 40.5 391.05 42 391.05 45 389.55 51 386.55 61.5 M391.05 51 394.05 45 397.05 42 400.05 40.5 403.05 40.5 406.05 42 407.55 43.5 407.55 46.5 404.55 55.5 404.55 60 406.05 61.5 M403.05 40.5 406.05 43.5 406.05 46.5 403.05 55.5 403.05 60 404.55 61.5 409.05 61.5 412.05 58.5 413.55 55.5 M394.8 78 385.8 109.5 M396.3 78 387.3 109.5 M406.8 90 405.3 91.5 406.8 93 408.3 91.5 408.3 90 406.8 88.5 405.3 88.5 402.3 90 396.3 96 393.3 97.5 390.3 97.5 M393.3 97.5 396.3 99 399.3 108 400.8 109.5 M393.3 97.5 394.8 99 397.8 108 399.3 109.5 402.3 109.5 405.3 108 408.3 103.5 M390.3 78 396.3 78 "/></svg>