<svg 
      xmlns="http://www.w3.org/2000/svg" 
      width="537" height="204"
      fill="none" stroke="black" stroke-width="2" 
      stroke-linecap="round" stroke-linejoin="round"
    ><rect x="0" y="0" width="537" height="204" fill="white" stroke="none"></rect><path d="M24 116.36 28.63 116.36 36.95 170.91 M27.7 120.91 36.95 180 M51.75 30 36.95 180 M51.75 30 513 30 M63.75 138 57.75 157.5 57.75 162 59.25 166.5 60.75 168 M65.25 138 59.25 157.5 M59.25 157.5 60.75 153 63.75 150 66.75 148.5 69.75 148.5 72.75 150 74.25 151.5 75.75 154.5 75.75 159 74.25 163.5 71.25 168 66.75 169.5 63.75 169.5 60.75 168 59.25 163.5 59.25 157.5 M72.75 150 74.25 153 74.25 159 72.75 163.5 69.75 168 66.75 169.5 M59.25 138 65.25 138 M80.25 121.45 84.5 121.45 92.15 171.64 M83.65 125.64 92.15 180 M105.75 42 92.15 180 M105.75 42 513 42 M132.75 138 126.75 159 125.25 165 125.25 168 126.75 169.5 131.25 169.5 134.25 166.5 135.75 163.5 M134.25 138 128.25 159 126.75 165 126.75 168 128.25 169.5 M126.75 159 126.75 154.5 125.25 150 122.25 148.5 119.25 148.5 114.75 150 111.75 154.5 110.25 159 110.25 163.5 111.75 166.5 113.25 168 116.25 169.5 119.25 169.5 122.25 168 125.25 163.5 126.75 159 M119.25 148.5 116.25 150 113.25 154.5 111.75 159 111.75 165 113.25 168 M128.25 138 134.25 138 M137.25 126.55 141.5 126.55 149.15 172.36 M140.65 130.36 149.15 180 M162.75 54 149.15 180 M162.75 54 513 54 M185.25 139.5 183.75 141 185.25 142.5 186.75 141 186.75 139.5 185.25 138 182.25 138 179.25 139.5 177.75 141 176.25 144 174.75 148.5 170.25 169.5 168.75 175.5 167.25 178.5 M182.25 138 179.25 141 177.75 144 176.25 150 173.25 163.5 171.75 169.5 170.25 174 168.75 177 167.25 178.5 164.25 180 161.25 180 159.75 178.5 159.75 177 161.25 175.5 162.75 177 161.25 178.5 M168.75 148.5 183.75 148.5 M185.25 131.64 189.75 131.64 197.85 173.09 M188.85 135.09 197.85 180 M212.25 66 197.85 180 M212.25 66 513 66 M224.25 138 215.25 169.5 M225.75 138 216.75 169.5 M219.75 159 222.75 153 225.75 150 228.75 148.5 231.75 148.5 234.75 150 236.25 151.5 236.25 154.5 233.25 163.5 233.25 168 234.75 169.5 M231.75 148.5 234.75 151.5 234.75 154.5 231.75 163.5 231.75 168 233.25 169.5 237.75 169.5 240.75 166.5 242.25 163.5 M219.75 138 225.75 138 M243.75 136.73 247.75 136.73 254.95 173.82 M246.95 139.82 254.95 180 M267.75 78 254.95 180 M267.75 78 513 78 M282.75 138 281.25 139.5 282.75 141 284.25 139.5 282.75 138 M270.75 154.5 272.25 151.5 275.25 148.5 279.75 148.5 281.25 150 281.25 154.5 276.75 169.5 275.25 174 273.75 177 272.25 178.5 269.25 180 266.25 180 264.75 178.5 264.75 177 266.25 175.5 267.75 177 266.25 178.5 M278.25 148.5 279.75 150 279.75 154.5 275.25 169.5 273.75 174 272.25 177 269.25 180 M287.25 141.82 291.75 141.82 299.85 174.55 M290.85 144.55 299.85 180 M314.25 90 299.85 180 M314.25 90 513 90 M326.25 138 320.25 159 318.75 165 318.75 168 320.25 169.5 324.75 169.5 327.75 166.5 329.25 163.5 M327.75 138 321.75 159 320.25 165 320.25 168 321.75 169.5 M321.75 138 327.75 138 M333 146.91 339 146.91 349.8 175.27 M337.8 149.27 349.8 180 M369 102 349.8 180 M369 102 513 102 M370.5 154.5 372 151.5 375 148.5 379.5 148.5 381 150 381 153 379.5 159 376.5 169.5 M378 148.5 379.5 150 379.5 153 378 159 375 169.5 M379.5 159 382.5 153 385.5 150 388.5 148.5 391.5 148.5 394.5 150 396 151.5 396 154.5 393 163.5 393 168 394.5 169.5 M391.5 148.5 394.5 151.5 394.5 154.5 391.5 163.5 391.5 168 393 169.5 397.5 169.5 400.5 166.5 402 163.5 M403.5 152 407.75 152 415.4 176 M406.9 154 415.4 180 M429 114 415.4 180 M429 114 513 114 M430.5 154.5 432 151.5 435 148.5 439.5 148.5 441 150 441 153 439.5 159 433.5 180 M438 148.5 439.5 150 439.5 153 438 159 432 180 M439.5 159 441 154.5 444 150 447 148.5 450 148.5 453 150 454.5 151.5 456 154.5 456 159 454.5 163.5 451.5 168 447 169.5 444 169.5 441 168 439.5 163.5 439.5 159 M453 150 454.5 153 454.5 159 453 163.5 450 168 447 169.5 M427.5 180 438 180 M463.5 157.09 467.5 157.09 474.7 176.73 M466.7 158.73 474.7 180 M487.5 126 474.7 180 M487.5 126 513 126 M489 154.5 490.5 151.5 493.5 148.5 498 148.5 499.5 150 499.5 153 498 159 495 169.5 M496.5 148.5 498 150 498 153 496.5 159 493.5 169.5 M498 159 501 153 504 150 507 148.5 510 148.5 511.5 150 511.5 151.5 510 153 508.5 151.5 510 150 M472.5 140.25 468 156 M473.25 140.25 468.75 156 M471 145.5 471 143.25 470.25 141 468.75 140.25 467.25 140.25 465 141 463.5 143.25 462.75 145.5 462.75 147.75 463.5 149.25 464.25 150 465.75 150.75 467.25 150.75 468.75 150 470.25 147.75 471 145.5 M467.25 140.25 465.75 141 464.25 143.25 463.5 145.5 463.5 148.5 464.25 150 M465.75 156 471 156 M410.25 128.25 408 129 406.5 131.25 405.75 133.5 405.75 135.75 406.5 137.25 407.25 138 408.75 138.75 410.25 138.75 412.5 138 414 135.75 414.75 133.5 414.75 131.25 414 129.75 413.25 129 411.75 128.25 410.25 128.25 M410.25 128.25 408.75 129 407.25 131.25 406.5 133.5 406.5 136.5 407.25 138 M410.25 138.75 411.75 138 413.25 135.75 414 133.5 414 130.5 413.25 129 M333 119.25 333.75 117.75 335.25 116.25 337.5 116.25 338.25 117 338.25 118.5 337.5 121.5 336 126.75 M336.75 116.25 337.5 117 337.5 118.5 336.75 121.5 335.25 126.75 M337.5 121.5 339 118.5 340.5 117 342 116.25 343.5 116.25 345 117 345.75 117.75 345.75 119.25 343.5 126.75 M343.5 116.25 345 117.75 345 119.25 342.75 126.75 M345 121.5 346.5 118.5 348 117 349.5 116.25 351 116.25 352.5 117 353.25 117.75 353.25 119.25 351.75 123.75 351.75 126 352.5 126.75 M351 116.25 352.5 117.75 352.5 119.25 351 123.75 351 126 351.75 126.75 354 126.75 355.5 125.25 356.25 123.75 M293.25 99 288.75 114.75 M294 99 289.5 114.75 M299.25 105 298.5 105.75 299.25 106.5 300 105.75 300 105 299.25 104.25 298.5 104.25 297 105 294 108 292.5 108.75 291 108.75 M292.5 108.75 294 109.5 295.5 114 296.25 114.75 M292.5 108.75 293.25 109.5 294.75 114 295.5 114.75 297 114.75 298.5 114 300 111.75 M291 99 294 99 M250.5 87 249.75 87.75 250.5 88.5 251.25 87.75 250.5 87 M244.5 95.25 245.25 93.75 246.75 92.25 249 92.25 249.75 93 249.75 95.25 248.25 99.75 248.25 102 249 102.75 M248.25 92.25 249 93 249 95.25 247.5 99.75 247.5 102 248.25 102.75 250.5 102.75 252 101.25 252.75 99.75 M198 80.25 195 90.75 194.25 93 192.75 95.25 190.5 96 188.25 96 186.75 95.25 186 94.5 186 93.75 186.75 93 187.5 93.75 186.75 94.5 M197.25 80.25 194.25 90.75 193.5 93 192 95.25 190.5 96 M195.75 85.5 195.75 83.25 195 81 193.5 80.25 192 80.25 189.75 81 188.25 83.25 187.5 85.5 187.5 87.75 188.25 89.25 189 90 190.5 90.75 192 90.75 193.5 90 195 87.75 195.75 85.5 M192 80.25 190.5 81 189 83.25 188.25 85.5 188.25 88.5 189 90 M140.25 75 143.25 74.25 145.5 73.5 147.75 72 148.5 70.5 147.75 69 146.25 68.25 144 68.25 141.75 69 140.25 71.25 139.5 73.5 139.5 75.75 140.25 77.25 141 78 142.5 78.75 144 78.75 146.25 78 147.75 76.5 M144 68.25 142.5 69 141 71.25 140.25 73.5 140.25 76.5 141 78 M90.75 58.5 90.75 59.25 91.5 59.25 91.5 58.5 90.75 57 89.25 56.25 87 56.25 84.75 57 83.25 59.25 82.5 61.5 82.5 63.75 83.25 65.25 84 66 85.5 66.75 87 66.75 89.25 66 90.75 63.75 M87 56.25 85.5 57 84 59.25 83.25 61.5 83.25 64.5 84 66 M36 44.25 34.5 49.5 33.75 52.5 33.75 54 34.5 54.75 36.75 54.75 38.25 53.25 39 51.75 M36.75 44.25 35.25 49.5 34.5 52.5 34.5 54 35.25 54.75 M34.5 49.5 34.5 47.25 33.75 45 32.25 44.25 30.75 44.25 28.5 45 27 47.25 26.25 49.5 26.25 51.75 27 53.25 27.75 54 29.25 54.75 30.75 54.75 32.25 54 33.75 51.75 34.5 49.5 M30.75 44.25 29.25 45 27.75 47.25 27 49.5 27 52.5 27.75 54 "/></svg>