<svg 
      xmlns="http://www.w3.org/2000/svg" 
      width="455.25" height="132"
      fill="none" stroke="black" stroke-width="2" 
      stroke-linecap="round" stroke-linejoin="round"
    ><rect x="0" y="0" width="455.25" height="132" fill="white" stroke="none"></rect><path d="M24 72 27 67.5 31.5 60 33 57 34.5 52.5 34.5 49.5 33 48 30 49.5 28.5 52.5 27 58.5 25.5 69 25.5 78 27 79.5 28.5 79.5 31.5 78 33 76.5 36 72 M54 84.38 51.75 92.25 50.63 96.75 50.63 99 51.75 100.13 55.13 100.13 57.38 97.88 58.5 95.63 M55.13 84.38 52.88 92.25 51.75 96.75 51.75 99 52.88 100.13 M51.75 92.25 51.75 88.88 50.63 85.5 48.38 84.38 46.13 84.38 42.75 85.5 40.5 88.88 39.38 92.25 39.38 95.63 40.5 97.88 41.63 99 43.88 100.13 46.13 100.13 48.38 99 50.63 95.63 51.75 92.25 M46.13 84.38 43.88 85.5 41.63 88.88 40.5 92.25 40.5 96.75 41.63 99 M60.75 88.88 61.88 86.63 64.13 84.38 67.5 84.38 68.63 85.5 68.63 87.75 67.5 92.25 65.25 100.13 M66.38 84.38 67.5 85.5 67.5 87.75 66.38 92.25 64.13 100.13 M67.5 92.25 69.75 87.75 72 85.5 74.25 84.38 76.5 84.38 77.63 85.5 77.63 86.63 76.5 87.75 75.38 86.63 76.5 85.5 M94.5 87.75 94.5 88.88 95.63 88.88 95.63 87.75 94.5 85.5 92.25 84.38 88.88 84.38 85.5 85.5 83.25 88.88 82.13 92.25 82.13 95.63 83.25 97.88 84.38 99 86.63 100.13 88.88 100.13 92.25 99 94.5 95.63 M88.88 84.38 86.63 85.5 84.38 88.88 83.25 92.25 83.25 96.75 84.38 99 M105 61.5 132 61.5 M105 70.5 132 70.5 M144 54 145.5 55.5 144 57 142.5 55.5 142.5 54 144 51 145.5 49.5 150 48 156 48 160.5 49.5 162 51 163.5 54 163.5 57 162 60 157.5 63 150 66 147 67.5 144 70.5 142.5 75 142.5 79.5 M156 48 159 49.5 160.5 51 162 54 162 57 160.5 60 156 63 150 66 M142.5 76.5 144 75 147 75 154.5 78 159 78 162 76.5 163.5 75 M147 75 154.5 79.5 160.5 79.5 162 78 163.5 75 163.5 72 M181.5 60 175.5 79.5 M181.5 60 177 79.5 M190.5 60 190.5 79.5 M190.5 60 192 79.5 M171 63 174 60 178.5 58.5 198 58.5 M171 63 174 61.5 178.5 60 198 60 M202.5 64.5 204 61.5 207 58.5 211.5 58.5 213 60 213 63 211.5 69 208.5 79.5 M210 58.5 211.5 60 211.5 63 210 69 207 79.5 M211.5 69 214.5 63 217.5 60 220.5 58.5 223.5 58.5 225 60 225 61.5 223.5 63 222 61.5 223.5 60 M243 42 240 45 237 49.5 234 55.5 232.5 63 232.5 69 234 76.5 237 82.5 240 87 243 90 M240 45 237 51 235.5 55.5 234 63 234 69 235.5 76.5 237 81 240 87 M264 48 259.5 49.5 256.5 54 255 57 253.5 61.5 252 69 252 75 253.5 78 256.5 79.5 259.5 79.5 264 78 267 73.5 268.5 70.5 270 66 271.5 58.5 271.5 52.5 270 49.5 267 48 264 48 M264 48 261 49.5 258 54 256.5 57 255 61.5 253.5 69 253.5 75 255 78 256.5 79.5 M259.5 79.5 262.5 78 265.5 73.5 267 70.5 268.5 66 270 58.5 270 52.5 268.5 49.5 267 48 M255 63 268.5 63 M306 42 279 90 M315 54 316.5 55.5 315 57 313.5 55.5 313.5 54 315 51 316.5 49.5 321 48 327 48 331.5 49.5 333 52.5 333 57 331.5 60 327 61.5 322.5 61.5 M327 48 330 49.5 331.5 52.5 331.5 57 330 60 327 61.5 M327 61.5 330 63 333 66 334.5 69 334.5 73.5 333 76.5 331.5 78 327 79.5 321 79.5 316.5 78 315 76.5 313.5 73.5 313.5 72 315 70.5 316.5 72 315 73.5 M331.5 64.5 333 69 333 73.5 331.5 76.5 330 78 327 79.5 M361.5 52.5 360 54 361.5 55.5 363 54 363 52.5 361.5 49.5 358.5 48 354 48 349.5 49.5 346.5 52.5 345 55.5 343.5 61.5 343.5 70.5 345 75 348 78 352.5 79.5 355.5 79.5 360 78 363 75 364.5 70.5 364.5 69 363 64.5 360 61.5 355.5 60 354 60 349.5 61.5 346.5 64.5 345 69 M354 48 351 49.5 348 52.5 346.5 55.5 345 61.5 345 70.5 346.5 75 349.5 78 352.5 79.5 M355.5 79.5 358.5 78 361.5 75 363 70.5 363 69 361.5 64.5 358.5 61.5 355.5 60 M382.5 48 378 49.5 375 54 373.5 61.5 373.5 66 375 73.5 378 78 382.5 79.5 385.5 79.5 390 78 393 73.5 394.5 66 394.5 61.5 393 54 390 49.5 385.5 48 382.5 48 M382.5 48 379.5 49.5 378 51 376.5 54 375 61.5 375 66 376.5 73.5 378 76.5 379.5 78 382.5 79.5 M385.5 79.5 388.5 78 390 76.5 391.5 73.5 393 66 393 61.5 391.5 54 390 51 388.5 49.5 385.5 48 M403.5 36.38 401.25 37.5 400.13 38.63 399 40.88 399 43.13 400.13 45.38 401.25 46.5 403.5 47.63 405.75 47.63 408 46.5 409.13 45.38 410.25 43.13 410.25 40.88 409.13 38.63 408 37.5 405.75 36.38 403.5 36.38 M414.75 42 417.75 45 420.75 49.5 423.75 55.5 425.25 63 425.25 69 423.75 76.5 420.75 82.5 417.75 87 414.75 90 M417.75 45 420.75 51 422.25 55.5 423.75 63 423.75 69 422.25 76.5 420.75 81 417.75 87 "/></svg>