<svg 
      xmlns="http://www.w3.org/2000/svg" 
      width="1006.02" height="749.16"
      fill="none" stroke="black" stroke-width="2" 
      stroke-linecap="round" stroke-linejoin="round"
    ><rect x="0" y="0" width="1006.02" height="749.16" fill="white" stroke="none"></rect><path d="M48 40.5 45 51 43.5 57 43.5 60 45 61.5 49.5 61.5 52.5 58.5 54 55.5 M49.5 40.5 46.5 51 45 57 45 60 46.5 61.5 M45 51 45 46.5 43.5 42 40.5 40.5 37.5 40.5 33 42 30 46.5 28.5 51 28.5 55.5 30 58.5 31.5 60 34.5 61.5 37.5 61.5 40.5 60 43.5 55.5 45 51 M37.5 40.5 34.5 42 31.5 46.5 30 51 30 57 31.5 60 M56.63 70.88 57.75 68.63 60 66.38 63.38 66.38 64.5 67.5 64.5 69.75 63.38 74.25 61.13 82.13 M62.25 66.38 63.38 67.5 63.38 69.75 62.25 74.25 60 82.13 M63.38 74.25 65.63 69.75 67.88 67.5 70.13 66.38 72.38 66.38 74.63 67.5 75.75 68.63 75.75 70.88 73.5 77.63 73.5 81 74.63 82.13 M72.38 66.38 74.63 68.63 74.63 70.88 72.38 77.63 72.38 81 73.5 82.13 76.88 82.13 79.13 79.88 80.25 77.63 M87.38 43.5 114.38 43.5 M87.38 52.5 114.38 52.5 M144.38 40.5 141.38 51 139.88 57 139.88 60 141.38 61.5 145.88 61.5 148.88 58.5 150.38 55.5 M145.88 40.5 142.88 51 141.38 57 141.38 60 142.88 61.5 M141.38 51 141.38 46.5 139.88 42 136.88 40.5 133.88 40.5 129.38 42 126.38 46.5 124.88 51 124.88 55.5 126.38 58.5 127.88 60 130.88 61.5 133.88 61.5 136.88 60 139.88 55.5 141.38 51 M133.88 40.5 130.88 42 127.88 46.5 126.38 51 126.38 57 127.88 60 M153 70.88 154.13 68.63 156.38 66.38 159.75 66.38 160.88 67.5 160.88 69.75 159.75 74.25 157.5 82.13 M158.63 66.38 159.75 67.5 159.75 69.75 158.63 74.25 156.38 82.13 M159.75 74.25 162 69.75 164.25 67.5 166.5 66.38 168.75 66.38 171 67.5 172.13 68.63 172.13 70.88 169.88 77.63 169.88 81 171 82.13 M168.75 66.38 171 68.63 171 70.88 168.75 77.63 168.75 81 169.88 82.13 173.25 82.13 175.5 79.88 176.63 77.63 M182.25 72 202.5 72 M213.75 63 216 61.88 219.38 58.5 219.38 82.13 M218.25 59.63 218.25 82.13 M213.75 82.13 223.88 82.13 M249 34.5 249 61.5 M235.5 48 262.5 48 M292.5 40.5 289.5 51 288 57 288 60 289.5 61.5 294 61.5 297 58.5 298.5 55.5 M294 40.5 291 51 289.5 57 289.5 60 291 61.5 M289.5 51 289.5 46.5 288 42 285 40.5 282 40.5 277.5 42 274.5 46.5 273 51 273 55.5 274.5 58.5 276 60 279 61.5 282 61.5 285 60 288 55.5 289.5 51 M282 40.5 279 42 276 46.5 274.5 51 274.5 57 276 60 M301.13 70.88 302.25 68.63 304.5 66.38 307.88 66.38 309 67.5 309 69.75 307.88 74.25 305.63 82.13 M306.75 66.38 307.88 67.5 307.88 69.75 306.75 74.25 304.5 82.13 M307.88 74.25 310.13 69.75 312.38 67.5 314.63 66.38 316.88 66.38 319.13 67.5 320.25 68.63 320.25 70.88 318 77.63 318 81 319.13 82.13 M316.88 66.38 319.13 68.63 319.13 70.88 316.88 77.63 316.88 81 318 82.13 321.38 82.13 323.63 79.88 324.75 77.63 M330.38 72 350.63 72 M359.63 63 360.75 64.13 359.63 65.25 358.5 64.13 358.5 63 359.63 60.75 360.75 59.63 364.13 58.5 368.63 58.5 372 59.63 373.13 60.75 374.25 63 374.25 65.25 373.13 67.5 369.75 69.75 364.13 72 361.88 73.13 359.63 75.38 358.5 78.75 358.5 82.13 M368.63 58.5 370.88 59.63 372 60.75 373.13 63 373.13 65.25 372 67.5 368.63 69.75 364.13 72 M358.5 79.88 359.63 78.75 361.88 78.75 367.5 81 370.88 81 373.13 79.88 374.25 78.75 M361.88 78.75 367.5 82.13 372 82.13 373.13 81 374.25 78.75 374.25 76.5 M87.38 188.49 114.38 188.49 M87.38 197.49 114.38 197.49 M120.38 192.99 982.02 192.99 M134.4 102 131.85 107.39 129.3 115.47 126.75 126.24 125.48 139.71 125.48 150.48 126.75 163.95 129.3 174.72 131.85 182.8 134.4 188.19 M131.85 107.39 129.3 118.16 128.02 126.24 126.75 139.71 126.75 150.48 128.02 163.95 129.3 172.03 131.85 182.8 M138.23 149.43 227.09 149.43 M144.73 119.34 146.9 118.26 150.15 115.01 150.15 137.76 M149.06 116.09 149.06 137.76 M144.73 137.76 154.48 137.76 M173.99 118.26 173.99 137.76 M164.24 128.01 183.74 128.01 M188.08 128.8 190.97 128.8 196.17 142.99 M190.39 129.98 196.17 145.35 M205.42 106.34 196.17 145.35 M205.42 106.34 227.09 106.34 M210.84 115.01 208.67 125.84 M208.67 125.84 210.84 123.68 214.09 122.59 217.34 122.59 220.59 123.68 222.76 125.84 223.84 129.09 223.84 131.26 222.76 134.51 220.59 136.68 217.34 137.76 214.09 137.76 210.84 136.68 209.75 135.6 208.67 133.43 208.67 132.35 209.75 131.26 210.84 132.35 209.75 133.43 M217.34 122.59 219.51 123.68 221.67 125.84 222.76 129.09 222.76 131.26 221.67 134.51 219.51 136.68 217.34 137.76 M210.84 115.01 221.67 115.01 M210.84 116.09 216.26 116.09 221.67 115.01 M176.16 162.18 177.24 163.26 176.16 164.35 175.07 163.26 175.07 162.18 176.16 160.01 177.24 158.93 180.49 157.85 184.83 157.85 188.08 158.93 189.16 160.01 190.25 162.18 190.25 164.35 189.16 166.52 185.91 168.68 180.49 170.85 178.32 171.93 176.16 174.1 175.07 177.35 175.07 180.6 M184.83 157.85 186.99 158.93 188.08 160.01 189.16 162.18 189.16 164.35 188.08 166.52 184.83 168.68 180.49 170.85 M175.07 178.44 176.16 177.35 178.32 177.35 183.74 179.52 186.99 179.52 189.16 178.44 190.25 177.35 M178.32 177.35 183.74 180.6 188.08 180.6 189.16 179.52 190.25 177.35 190.25 175.19 M230.92 102 233.47 107.39 236.02 115.47 238.57 126.24 239.84 139.71 239.84 150.48 238.57 163.95 236.02 174.72 233.47 182.8 230.92 188.19 M233.47 107.39 236.02 118.16 237.29 126.24 238.57 139.71 238.57 150.48 237.29 163.95 236.02 172.03 233.47 182.8 M245.9 128.07 246.86 126.16 248.77 124.25 251.64 124.25 252.59 125.21 252.59 127.12 251.64 130.94 249.72 137.64 M250.68 124.25 251.64 125.21 251.64 127.12 250.68 130.94 248.77 137.64 M251.64 130.94 253.55 127.12 255.46 125.21 257.37 124.25 259.29 124.25 261.2 125.21 262.16 126.16 262.16 128.07 260.24 133.81 260.24 136.68 261.2 137.64 M259.29 124.25 261.2 126.16 261.2 128.07 259.29 133.81 259.29 136.68 260.24 137.64 263.11 137.64 265.02 135.72 265.98 133.81 M270.76 129.03 287.97 129.03 M295.62 121.38 296.58 122.34 295.62 123.29 294.67 122.34 294.67 121.38 295.62 119.47 296.58 118.51 299.45 117.56 303.27 117.56 306.14 118.51 307.1 119.47 308.06 121.38 308.06 123.29 307.1 125.21 304.23 127.12 299.45 129.03 297.54 129.99 295.62 131.9 294.67 134.77 294.67 137.64 M303.27 117.56 305.19 118.51 306.14 119.47 307.1 121.38 307.1 123.29 306.14 125.21 303.27 127.12 299.45 129.03 M294.67 135.72 295.62 134.77 297.54 134.77 302.32 136.68 305.19 136.68 307.1 135.72 308.06 134.77 M297.54 134.77 302.32 137.64 306.14 137.64 307.1 136.68 308.06 134.77 308.06 132.85 M316.02 149.43 338.97 149.43 M358.1 102 355.55 107.39 353 115.47 350.45 126.24 349.17 139.71 349.17 150.48 350.45 163.95 353 174.72 355.55 182.8 358.1 188.19 M355.55 107.39 353 118.16 351.72 126.24 350.45 139.71 350.45 150.48 351.72 163.95 353 172.03 355.55 182.8 M361.92 149.43 450.79 149.43 M368.43 119.34 370.59 118.26 373.85 115.01 373.85 137.76 M372.76 116.09 372.76 137.76 M368.43 137.76 378.18 137.76 M387.93 128.01 407.44 128.01 M411.78 128.8 414.67 128.8 419.87 142.99 M414.09 129.98 419.87 145.35 M429.12 106.34 419.87 145.35 M429.12 106.34 450.79 106.34 M434.54 115.01 432.37 125.84 M432.37 125.84 434.54 123.68 437.79 122.59 441.04 122.59 444.29 123.68 446.46 125.84 447.54 129.09 447.54 131.26 446.46 134.51 444.29 136.68 441.04 137.76 437.79 137.76 434.54 136.68 433.45 135.6 432.37 133.43 432.37 132.35 433.45 131.26 434.54 132.35 433.45 133.43 M441.04 122.59 443.2 123.68 445.37 125.84 446.46 129.09 446.46 131.26 445.37 134.51 443.2 136.68 441.04 137.76 M434.54 115.01 445.37 115.01 M434.54 116.09 439.95 116.09 445.37 115.01 M399.86 162.18 400.94 163.26 399.86 164.35 398.77 163.26 398.77 162.18 399.86 160.01 400.94 158.93 404.19 157.85 408.53 157.85 411.78 158.93 412.86 160.01 413.94 162.18 413.94 164.35 412.86 166.52 409.61 168.68 404.19 170.85 402.02 171.93 399.86 174.1 398.77 177.35 398.77 180.6 M408.53 157.85 410.69 158.93 411.78 160.01 412.86 162.18 412.86 164.35 411.78 166.52 408.53 168.68 404.19 170.85 M398.77 178.44 399.86 177.35 402.02 177.35 407.44 179.52 410.69 179.52 412.86 178.44 413.94 177.35 M402.02 177.35 407.44 180.6 411.78 180.6 412.86 179.52 413.94 177.35 413.94 175.19 M454.62 102 457.17 107.39 459.72 115.47 462.27 126.24 463.54 139.71 463.54 150.48 462.27 163.95 459.72 174.72 457.17 182.8 454.62 188.19 M457.17 107.39 459.72 118.16 460.99 126.24 462.27 139.71 462.27 150.48 460.99 163.95 459.72 172.03 457.17 182.8 M469.6 128.07 470.55 126.16 472.47 124.25 475.34 124.25 476.29 125.21 476.29 127.12 475.34 130.94 473.42 137.64 M474.38 124.25 475.34 125.21 475.34 127.12 474.38 130.94 472.47 137.64 M475.34 130.94 477.25 127.12 479.16 125.21 481.07 124.25 482.99 124.25 484.9 125.21 485.85 126.16 485.85 128.07 483.94 133.81 483.94 136.68 484.9 137.64 M482.99 124.25 484.9 126.16 484.9 128.07 482.99 133.81 482.99 136.68 483.94 137.64 486.81 137.64 488.72 135.72 489.68 133.81 M494.46 129.03 511.67 129.03 M519.32 121.38 520.28 122.34 519.32 123.29 518.37 122.34 518.37 121.38 519.32 119.47 520.28 118.51 523.15 117.56 526.97 117.56 529.84 118.51 530.8 119.47 531.75 121.38 531.75 123.29 530.8 125.21 527.93 127.12 523.15 129.03 521.24 129.99 519.32 131.9 518.37 134.77 518.37 137.64 M526.97 117.56 528.89 118.51 529.84 119.47 530.8 121.38 530.8 123.29 529.84 125.21 526.97 127.12 523.15 129.03 M518.37 135.72 519.32 134.77 521.24 134.77 526.02 136.68 528.89 136.68 530.8 135.72 531.75 134.77 M521.24 134.77 526.02 137.64 529.84 137.64 530.8 136.68 531.75 134.77 531.75 132.85 M551.2 137.95 551.2 160.91 M539.72 149.43 562.67 149.43 M581.8 102 579.25 107.39 576.7 115.47 574.15 126.24 572.87 139.71 572.87 150.48 574.15 163.95 576.7 174.72 579.25 182.8 581.8 188.19 M579.25 107.39 576.7 118.16 575.42 126.24 574.15 139.71 574.15 150.48 575.42 163.95 576.7 172.03 579.25 182.8 M585.62 149.43 674.49 149.43 M592.12 119.34 594.29 118.26 597.54 115.01 597.54 137.76 M596.46 116.09 596.46 137.76 M592.12 137.76 601.88 137.76 M621.39 118.26 621.39 137.76 M611.63 128.01 631.14 128.01 M635.47 128.8 638.37 128.8 643.57 142.99 M637.79 129.98 643.57 145.35 M652.81 106.34 643.57 145.35 M652.81 106.34 674.49 106.34 M658.23 115.01 656.07 125.84 M656.07 125.84 658.23 123.68 661.48 122.59 664.74 122.59 667.99 123.68 670.16 125.84 671.24 129.09 671.24 131.26 670.16 134.51 667.99 136.68 664.74 137.76 661.48 137.76 658.23 136.68 657.15 135.6 656.07 133.43 656.07 132.35 657.15 131.26 658.23 132.35 657.15 133.43 M664.74 122.59 666.9 123.68 669.07 125.84 670.16 129.09 670.16 131.26 669.07 134.51 666.9 136.68 664.74 137.76 M658.23 115.01 669.07 115.01 M658.23 116.09 663.65 116.09 669.07 115.01 M623.55 162.18 624.64 163.26 623.55 164.35 622.47 163.26 622.47 162.18 623.55 160.01 624.64 158.93 627.89 157.85 632.22 157.85 635.47 158.93 636.56 160.01 637.64 162.18 637.64 164.35 636.56 166.52 633.31 168.68 627.89 170.85 625.72 171.93 623.55 174.1 622.47 177.35 622.47 180.6 M632.22 157.85 634.39 158.93 635.47 160.01 636.56 162.18 636.56 164.35 635.47 166.52 632.22 168.68 627.89 170.85 M622.47 178.44 623.55 177.35 625.72 177.35 631.14 179.52 634.39 179.52 636.56 178.44 637.64 177.35 M625.72 177.35 631.14 180.6 635.47 180.6 636.56 179.52 637.64 177.35 637.64 175.19 M678.32 102 680.87 107.39 683.42 115.47 685.96 126.24 687.24 139.71 687.24 150.48 685.96 163.95 683.42 174.72 680.87 182.8 678.32 188.19 M680.87 107.39 683.42 118.16 684.69 126.24 685.96 139.71 685.96 150.48 684.69 163.95 683.42 172.03 680.87 182.8 M693.3 128.07 694.25 126.16 696.17 124.25 699.03 124.25 699.99 125.21 699.99 127.12 699.03 130.94 697.12 137.64 M698.08 124.25 699.03 125.21 699.03 127.12 698.08 130.94 696.17 137.64 M699.03 130.94 700.95 127.12 702.86 125.21 704.77 124.25 706.68 124.25 708.6 125.21 709.55 126.16 709.55 128.07 707.64 133.81 707.64 136.68 708.6 137.64 M706.68 124.25 708.6 126.16 708.6 128.07 706.68 133.81 706.68 136.68 707.64 137.64 710.51 137.64 712.42 135.72 713.38 133.81 M718.16 129.03 735.37 129.03 M744.93 121.38 746.85 120.42 749.71 117.56 749.71 137.64 M748.76 118.51 748.76 137.64 M744.93 137.64 753.54 137.64 M763.42 149.43 786.37 149.43 M805.5 102 802.95 107.39 800.4 115.47 797.85 126.24 796.57 139.71 796.57 150.48 797.85 163.95 800.4 174.72 802.95 182.8 805.5 188.19 M802.95 107.39 800.4 118.16 799.12 126.24 797.85 139.71 797.85 150.48 799.12 163.95 800.4 172.03 802.95 182.8 M809.32 149.43 898.19 149.43 M815.82 119.34 817.99 118.26 821.24 115.01 821.24 137.76 M820.16 116.09 820.16 137.76 M815.82 137.76 825.58 137.76 M835.33 128.01 854.84 128.01 M859.17 128.8 862.06 128.8 867.27 142.99 M861.49 129.98 867.27 145.35 M876.51 106.34 867.27 145.35 M876.51 106.34 898.19 106.34 M881.93 115.01 879.76 125.84 M879.76 125.84 881.93 123.68 885.18 122.59 888.43 122.59 891.69 123.68 893.85 125.84 894.94 129.09 894.94 131.26 893.85 134.51 891.69 136.68 888.43 137.76 885.18 137.76 881.93 136.68 880.85 135.6 879.76 133.43 879.76 132.35 880.85 131.26 881.93 132.35 880.85 133.43 M888.43 122.59 890.6 123.68 892.77 125.84 893.85 129.09 893.85 131.26 892.77 134.51 890.6 136.68 888.43 137.76 M881.93 115.01 892.77 115.01 M881.93 116.09 887.35 116.09 892.77 115.01 M847.25 162.18 848.34 163.26 847.25 164.35 846.17 163.26 846.17 162.18 847.25 160.01 848.34 158.93 851.59 157.85 855.92 157.85 859.17 158.93 860.26 160.01 861.34 162.18 861.34 164.35 860.26 166.52 857.01 168.68 851.59 170.85 849.42 171.93 847.25 174.1 846.17 177.35 846.17 180.6 M855.92 157.85 858.09 158.93 859.17 160.01 860.26 162.18 860.26 164.35 859.17 166.52 855.92 168.68 851.59 170.85 M846.17 178.44 847.25 177.35 849.42 177.35 854.84 179.52 858.09 179.52 860.26 178.44 861.34 177.35 M849.42 177.35 854.84 180.6 859.17 180.6 860.26 179.52 861.34 177.35 861.34 175.19 M902.01 102 904.56 107.39 907.11 115.47 909.66 126.24 910.94 139.71 910.94 150.48 909.66 163.95 907.11 174.72 904.56 182.8 902.01 188.19 M904.56 107.39 907.11 118.16 908.39 126.24 909.66 139.71 909.66 150.48 908.39 163.95 907.11 172.03 904.56 182.8 M917 128.07 917.95 126.16 919.86 124.25 922.73 124.25 923.69 125.21 923.69 127.12 922.73 130.94 920.82 137.64 M921.78 124.25 922.73 125.21 922.73 127.12 921.78 130.94 919.86 137.64 M922.73 130.94 924.65 127.12 926.56 125.21 928.47 124.25 930.38 124.25 932.3 125.21 933.25 126.16 933.25 128.07 931.34 133.81 931.34 136.68 932.3 137.64 M930.38 124.25 932.3 126.16 932.3 128.07 930.38 133.81 930.38 136.68 931.34 137.64 934.21 137.64 936.12 135.72 937.08 133.81 M941.86 129.03 959.07 129.03 M968.63 121.38 970.55 120.42 973.41 117.56 973.41 137.64 M972.46 118.51 972.46 137.64 M968.63 137.64 977.24 137.64 M528.25 229.32 531.65 229.32 537.77 246.01 M530.97 230.71 537.77 248.79 M548.65 202.89 537.77 248.79 M548.65 202.89 574.15 202.89 M555.02 213.09 552.47 225.84 M552.47 225.84 555.02 223.29 558.85 222.02 562.67 222.02 566.5 223.29 569.05 225.84 570.32 229.67 570.32 232.22 569.05 236.04 566.5 238.59 562.67 239.87 558.85 239.87 555.02 238.59 553.75 237.32 552.47 234.77 552.47 233.49 553.75 232.22 555.02 233.49 553.75 234.77 M562.67 222.02 565.22 223.29 567.77 225.84 569.05 229.67 569.05 232.22 567.77 236.04 565.22 238.59 562.67 239.87 M555.02 213.09 567.77 213.09 M555.02 214.37 561.4 214.37 567.77 213.09 M87.38 347.28 114.38 347.28 M87.38 356.28 114.38 356.28 M120.38 351.78 901.06 351.78 M134.4 260.79 131.85 266.18 129.3 274.26 126.75 285.03 125.48 298.5 125.48 309.27 126.75 322.74 129.3 333.51 131.85 341.59 134.4 346.98 M131.85 266.18 129.3 276.95 128.02 285.03 126.75 298.5 126.75 309.27 128.02 322.74 129.3 330.82 131.85 341.59 M138.23 308.22 227.09 308.22 M144.73 278.13 146.9 277.05 150.15 273.8 150.15 296.55 M149.06 274.88 149.06 296.55 M144.73 296.55 154.48 296.55 M173.99 277.05 173.99 296.55 M164.24 286.8 183.74 286.8 M188.08 287.59 190.97 287.59 196.17 301.78 M190.39 288.77 196.17 304.14 M205.42 265.13 196.17 304.14 M205.42 265.13 227.09 265.13 M210.84 273.8 208.67 284.63 M208.67 284.63 210.84 282.47 214.09 281.38 217.34 281.38 220.59 282.47 222.76 284.63 223.84 287.88 223.84 290.05 222.76 293.3 220.59 295.47 217.34 296.55 214.09 296.55 210.84 295.47 209.75 294.39 208.67 292.22 208.67 291.14 209.75 290.05 210.84 291.14 209.75 292.22 M217.34 281.38 219.51 282.47 221.67 284.63 222.76 287.88 222.76 290.05 221.67 293.3 219.51 295.47 217.34 296.55 M210.84 273.8 221.67 273.8 M210.84 274.88 216.26 274.88 221.67 273.8 M176.16 320.97 177.24 322.05 176.16 323.14 175.07 322.05 175.07 320.97 176.16 318.8 177.24 317.72 180.49 316.64 184.83 316.64 188.08 317.72 189.16 318.8 190.25 320.97 190.25 323.14 189.16 325.31 185.91 327.47 180.49 329.64 178.32 330.72 176.16 332.89 175.07 336.14 175.07 339.39 M184.83 316.64 186.99 317.72 188.08 318.8 189.16 320.97 189.16 323.14 188.08 325.31 184.83 327.47 180.49 329.64 M175.07 337.23 176.16 336.14 178.32 336.14 183.74 338.31 186.99 338.31 189.16 337.23 190.25 336.14 M178.32 336.14 183.74 339.39 188.08 339.39 189.16 338.31 190.25 336.14 190.25 333.98 M230.92 260.79 233.47 266.18 236.02 274.26 238.57 285.03 239.84 298.5 239.84 309.27 238.57 322.74 236.02 333.51 233.47 341.59 230.92 346.98 M233.47 266.18 236.02 276.95 237.29 285.03 238.57 298.5 238.57 309.27 237.29 322.74 236.02 330.82 233.47 341.59 M245.9 286.86 246.86 284.95 248.77 283.04 251.64 283.04 252.59 284 252.59 285.91 251.64 289.73 249.72 296.43 M250.68 283.04 251.64 284 251.64 285.91 250.68 289.73 248.77 296.43 M251.64 289.73 253.55 285.91 255.46 284 257.37 283.04 259.29 283.04 261.2 284 262.16 284.95 262.16 286.86 260.24 292.6 260.24 295.47 261.2 296.43 M259.29 283.04 261.2 284.95 261.2 286.86 259.29 292.6 259.29 295.47 260.24 296.43 263.11 296.43 265.02 294.51 265.98 292.6 M270.76 287.82 287.97 287.82 M295.62 280.17 296.58 281.13 295.62 282.08 294.67 281.13 294.67 280.17 295.62 278.26 296.58 277.3 299.45 276.34 303.27 276.34 306.14 277.3 307.1 278.26 308.06 280.17 308.06 282.08 307.1 284 304.23 285.91 299.45 287.82 297.54 288.78 295.62 290.69 294.67 293.56 294.67 296.43 M303.27 276.34 305.19 277.3 306.14 278.26 307.1 280.17 307.1 282.08 306.14 284 303.27 285.91 299.45 287.82 M294.67 294.51 295.62 293.56 297.54 293.56 302.32 295.47 305.19 295.47 307.1 294.51 308.06 293.56 M297.54 293.56 302.32 296.43 306.14 296.43 307.1 295.47 308.06 293.56 308.06 291.65 M324.95 260.79 322.4 266.18 319.85 274.26 317.3 285.03 316.02 298.5 316.02 309.27 317.3 322.74 319.85 333.51 322.4 341.59 324.95 346.98 M322.4 266.18 319.85 276.95 318.57 285.03 317.3 298.5 317.3 309.27 318.57 322.74 319.85 330.82 322.4 341.59 M336.42 298.02 338.97 296.75 342.8 292.92 342.8 319.7 M341.52 294.2 341.52 319.7 M336.42 319.7 347.9 319.7 M370.85 296.75 370.85 319.7 M359.37 308.22 382.32 308.22 M387.42 308.22 476.29 308.22 M393.93 278.13 396.09 277.05 399.35 273.8 399.35 296.55 M398.26 274.88 398.26 296.55 M393.93 296.55 403.68 296.55 M423.19 277.05 423.19 296.55 M413.43 286.8 432.94 286.8 M437.28 287.59 440.17 287.59 445.37 301.78 M439.59 288.77 445.37 304.14 M454.62 265.13 445.37 304.14 M454.62 265.13 476.29 265.13 M460.04 273.8 457.87 284.63 M457.87 284.63 460.04 282.47 463.29 281.38 466.54 281.38 469.79 282.47 471.96 284.63 473.04 287.88 473.04 290.05 471.96 293.3 469.79 295.47 466.54 296.55 463.29 296.55 460.04 295.47 458.95 294.39 457.87 292.22 457.87 291.14 458.95 290.05 460.04 291.14 458.95 292.22 M466.54 281.38 468.7 282.47 470.87 284.63 471.96 287.88 471.96 290.05 470.87 293.3 468.7 295.47 466.54 296.55 M460.04 273.8 470.87 273.8 M460.04 274.88 465.45 274.88 470.87 273.8 M425.36 320.97 426.44 322.05 425.36 323.14 424.27 322.05 424.27 320.97 425.36 318.8 426.44 317.72 429.69 316.64 434.03 316.64 437.28 317.72 438.36 318.8 439.44 320.97 439.44 323.14 438.36 325.31 435.11 327.47 429.69 329.64 427.52 330.72 425.36 332.89 424.27 336.14 424.27 339.39 M434.03 316.64 436.19 317.72 437.28 318.8 438.36 320.97 438.36 323.14 437.28 325.31 434.03 327.47 429.69 329.64 M424.27 337.23 425.36 336.14 427.52 336.14 432.94 338.31 436.19 338.31 438.36 337.23 439.44 336.14 M427.52 336.14 432.94 339.39 437.28 339.39 438.36 338.31 439.44 336.14 439.44 333.98 M480.12 260.79 482.67 266.18 485.22 274.26 487.77 285.03 489.04 298.5 489.04 309.27 487.77 322.74 485.22 333.51 482.67 341.59 480.12 346.98 M482.67 266.18 485.22 276.95 486.49 285.03 487.77 298.5 487.77 309.27 486.49 322.74 485.22 330.82 482.67 341.59 M499.24 308.22 522.19 308.22 M541.32 260.79 538.77 266.18 536.22 274.26 533.67 285.03 532.39 298.5 532.39 309.27 533.67 322.74 536.22 333.51 538.77 341.59 541.32 346.98 M538.77 266.18 536.22 276.95 534.94 285.03 533.67 298.5 533.67 309.27 534.94 322.74 536.22 330.82 538.77 341.59 M545.14 308.22 634.01 308.22 M551.64 278.13 553.81 277.05 557.06 273.8 557.06 296.55 M555.98 274.88 555.98 296.55 M551.64 296.55 561.4 296.55 M571.15 286.8 590.66 286.8 M594.99 287.59 597.88 287.59 603.09 301.78 M597.31 288.77 603.09 304.14 M612.33 265.13 603.09 304.14 M612.33 265.13 634.01 265.13 M617.75 273.8 615.59 284.63 M615.59 284.63 617.75 282.47 621 281.38 624.25 281.38 627.51 282.47 629.67 284.63 630.76 287.88 630.76 290.05 629.67 293.3 627.51 295.47 624.25 296.55 621 296.55 617.75 295.47 616.67 294.39 615.59 292.22 615.59 291.14 616.67 290.05 617.75 291.14 616.67 292.22 M624.25 281.38 626.42 282.47 628.59 284.63 629.67 287.88 629.67 290.05 628.59 293.3 626.42 295.47 624.25 296.55 M617.75 273.8 628.59 273.8 M617.75 274.88 623.17 274.88 628.59 273.8 M583.07 320.97 584.16 322.05 583.07 323.14 581.99 322.05 581.99 320.97 583.07 318.8 584.16 317.72 587.41 316.64 591.74 316.64 594.99 317.72 596.08 318.8 597.16 320.97 597.16 323.14 596.08 325.31 592.83 327.47 587.41 329.64 585.24 330.72 583.07 332.89 581.99 336.14 581.99 339.39 M591.74 316.64 593.91 317.72 594.99 318.8 596.08 320.97 596.08 323.14 594.99 325.31 591.74 327.47 587.41 329.64 M581.99 337.23 583.07 336.14 585.24 336.14 590.66 338.31 593.91 338.31 596.08 337.23 597.16 336.14 M585.24 336.14 590.66 339.39 594.99 339.39 596.08 338.31 597.16 336.14 597.16 333.98 M637.83 260.79 640.38 266.18 642.93 274.26 645.48 285.03 646.76 298.5 646.76 309.27 645.48 322.74 642.93 333.51 640.38 341.59 637.83 346.98 M640.38 266.18 642.93 276.95 644.21 285.03 645.48 298.5 645.48 309.27 644.21 322.74 642.93 330.82 640.38 341.59 M652.81 286.86 653.77 284.95 655.68 283.04 658.55 283.04 659.51 284 659.51 285.91 658.55 289.73 656.64 296.43 M657.6 283.04 658.55 284 658.55 285.91 657.6 289.73 655.68 296.43 M658.55 289.73 660.46 285.91 662.38 284 664.29 283.04 666.2 283.04 668.11 284 669.07 284.95 669.07 286.86 667.16 292.6 667.16 295.47 668.11 296.43 M666.2 283.04 668.11 284.95 668.11 286.86 666.2 292.6 666.2 295.47 667.16 296.43 670.03 296.43 671.94 294.51 672.9 292.6 M677.68 287.82 694.89 287.82 M702.54 280.17 703.5 281.13 702.54 282.08 701.58 281.13 701.58 280.17 702.54 278.26 703.5 277.3 706.37 276.34 710.19 276.34 713.06 277.3 714.01 278.26 714.97 280.17 714.97 282.08 714.01 284 711.15 285.91 706.37 287.82 704.45 288.78 702.54 290.69 701.58 293.56 701.58 296.43 M710.19 276.34 712.1 277.3 713.06 278.26 714.01 280.17 714.01 282.08 713.06 284 710.19 285.91 706.37 287.82 M701.58 294.51 702.54 293.56 704.45 293.56 709.23 295.47 712.1 295.47 714.01 294.51 714.97 293.56 M704.45 293.56 709.23 296.43 713.06 296.43 714.01 295.47 714.97 293.56 714.97 291.65 M731.87 260.79 729.31 266.18 726.76 274.26 724.21 285.03 722.94 298.5 722.94 309.27 724.21 322.74 726.76 333.51 729.31 341.59 731.87 346.98 M729.31 266.18 726.76 276.95 725.49 285.03 724.21 298.5 724.21 309.27 725.49 322.74 726.76 330.82 729.31 341.59 M743.34 298.02 745.89 296.75 749.72 292.92 749.72 319.7 M748.44 294.2 748.44 319.7 M743.34 319.7 754.82 319.7 M777.77 296.75 777.77 319.7 M766.29 308.22 789.24 308.22 M794.34 308.22 883.21 308.22 M800.84 278.13 803.01 277.05 806.26 273.8 806.26 296.55 M805.18 274.88 805.18 296.55 M800.84 296.55 810.6 296.55 M820.35 286.8 839.86 286.8 M844.19 287.59 847.08 287.59 852.28 301.78 M846.5 288.77 852.28 304.14 M861.53 265.13 852.28 304.14 M861.53 265.13 883.21 265.13 M866.95 273.8 864.78 284.63 M864.78 284.63 866.95 282.47 870.2 281.38 873.45 281.38 876.71 282.47 878.87 284.63 879.96 287.88 879.96 290.05 878.87 293.3 876.71 295.47 873.45 296.55 870.2 296.55 866.95 295.47 865.87 294.39 864.78 292.22 864.78 291.14 865.87 290.05 866.95 291.14 865.87 292.22 M873.45 281.38 875.62 282.47 877.79 284.63 878.87 287.88 878.87 290.05 877.79 293.3 875.62 295.47 873.45 296.55 M866.95 273.8 877.79 273.8 M866.95 274.88 872.37 274.88 877.79 273.8 M832.27 320.97 833.35 322.05 832.27 323.14 831.19 322.05 831.19 320.97 832.27 318.8 833.35 317.72 836.61 316.64 840.94 316.64 844.19 317.72 845.28 318.8 846.36 320.97 846.36 323.14 845.28 325.31 842.03 327.47 836.61 329.64 834.44 330.72 832.27 332.89 831.19 336.14 831.19 339.39 M840.94 316.64 843.11 317.72 844.19 318.8 845.28 320.97 845.28 323.14 844.19 325.31 840.94 327.47 836.61 329.64 M831.19 337.23 832.27 336.14 834.44 336.14 839.86 338.31 843.11 338.31 845.28 337.23 846.36 336.14 M834.44 336.14 839.86 339.39 844.19 339.39 845.28 338.31 846.36 336.14 846.36 333.98 M887.03 260.79 889.58 266.18 892.13 274.26 894.68 285.03 895.96 298.5 895.96 309.27 894.68 322.74 892.13 333.51 889.58 341.59 887.03 346.98 M889.58 266.18 892.13 276.95 893.41 285.03 894.68 298.5 894.68 309.27 893.41 322.74 892.13 330.82 889.58 341.59 M487.77 388.11 491.17 388.11 497.29 404.8 M490.49 389.5 497.29 407.58 M508.17 361.68 497.29 407.58 M508.17 361.68 533.67 361.68 M514.54 371.88 511.99 384.63 M511.99 384.63 514.54 382.08 518.37 380.81 522.19 380.81 526.02 382.08 528.57 384.63 529.84 388.46 529.84 391.01 528.57 394.83 526.02 397.38 522.19 398.66 518.37 398.66 514.54 397.38 513.27 396.11 511.99 393.56 511.99 392.28 513.27 391.01 514.54 392.28 513.27 393.56 M522.19 380.81 524.74 382.08 527.29 384.63 528.57 388.46 528.57 391.01 527.29 394.83 524.74 397.38 522.19 398.66 M514.54 371.88 527.29 371.88 M514.54 373.16 520.92 373.16 527.29 371.88 M87.38 506.07 114.38 506.07 M87.38 515.07 114.38 515.07 M120.38 510.57 822.01 510.57 M134.4 419.58 131.85 424.97 129.3 433.05 126.75 443.82 125.48 457.29 125.48 468.06 126.75 481.53 129.3 492.3 131.85 500.38 134.4 505.77 M131.85 424.97 129.3 435.74 128.02 443.82 126.75 457.29 126.75 468.06 128.02 481.53 129.3 489.61 131.85 500.38 M138.23 467.01 227.09 467.01 M144.73 436.92 146.9 435.84 150.15 432.59 150.15 455.34 M149.06 433.67 149.06 455.34 M144.73 455.34 154.48 455.34 M173.99 435.84 173.99 455.34 M164.24 445.59 183.74 445.59 M188.08 446.38 190.97 446.38 196.17 460.57 M190.39 447.56 196.17 462.93 M205.42 423.92 196.17 462.93 M205.42 423.92 227.09 423.92 M210.84 432.59 208.67 443.42 M208.67 443.42 210.84 441.26 214.09 440.17 217.34 440.17 220.59 441.26 222.76 443.42 223.84 446.67 223.84 448.84 222.76 452.09 220.59 454.26 217.34 455.34 214.09 455.34 210.84 454.26 209.75 453.18 208.67 451.01 208.67 449.92 209.75 448.84 210.84 449.92 209.75 451.01 M217.34 440.17 219.51 441.26 221.67 443.42 222.76 446.67 222.76 448.84 221.67 452.09 219.51 454.26 217.34 455.34 M210.84 432.59 221.67 432.59 M210.84 433.67 216.26 433.67 221.67 432.59 M176.16 479.76 177.24 480.84 176.16 481.93 175.07 480.84 175.07 479.76 176.16 477.59 177.24 476.51 180.49 475.42 184.83 475.42 188.08 476.51 189.16 477.59 190.25 479.76 190.25 481.93 189.16 484.1 185.91 486.26 180.49 488.43 178.32 489.51 176.16 491.68 175.07 494.93 175.07 498.18 M184.83 475.42 186.99 476.51 188.08 477.59 189.16 479.76 189.16 481.93 188.08 484.1 184.83 486.26 180.49 488.43 M175.07 496.02 176.16 494.93 178.32 494.93 183.74 497.1 186.99 497.1 189.16 496.02 190.25 494.93 M178.32 494.93 183.74 498.18 188.08 498.18 189.16 497.1 190.25 494.93 190.25 492.77 M230.92 419.58 233.47 424.97 236.02 433.05 238.57 443.82 239.84 457.29 239.84 468.06 238.57 481.53 236.02 492.3 233.47 500.38 230.92 505.77 M233.47 424.97 236.02 435.74 237.29 443.82 238.57 457.29 238.57 468.06 237.29 481.53 236.02 489.61 233.47 500.38 M245.9 445.65 246.86 443.74 248.77 441.83 251.64 441.83 252.59 442.79 252.59 444.7 251.64 448.52 249.72 455.22 M250.68 441.83 251.64 442.79 251.64 444.7 250.68 448.52 248.77 455.22 M251.64 448.52 253.55 444.7 255.46 442.79 257.37 441.83 259.29 441.83 261.2 442.79 262.16 443.74 262.16 445.65 260.24 451.39 260.24 454.26 261.2 455.22 M259.29 441.83 261.2 443.74 261.2 445.65 259.29 451.39 259.29 454.26 260.24 455.22 263.11 455.22 265.02 453.3 265.98 451.39 M270.76 446.61 287.97 446.61 M295.62 438.96 296.58 439.92 295.62 440.87 294.67 439.92 294.67 438.96 295.62 437.05 296.58 436.09 299.45 435.14 303.27 435.14 306.14 436.09 307.1 437.05 308.06 438.96 308.06 440.87 307.1 442.79 304.23 444.7 299.45 446.61 297.54 447.57 295.62 449.48 294.67 452.35 294.67 455.22 M303.27 435.14 305.19 436.09 306.14 437.05 307.1 438.96 307.1 440.87 306.14 442.79 303.27 444.7 299.45 446.61 M294.67 453.3 295.62 452.35 297.54 452.35 302.32 454.26 305.19 454.26 307.1 453.3 308.06 452.35 M297.54 452.35 302.32 455.22 306.14 455.22 307.1 454.26 308.06 452.35 308.06 450.44 M324.95 419.58 322.4 424.97 319.85 433.05 317.3 443.82 316.02 457.29 316.02 468.06 317.3 481.53 319.85 492.3 322.4 500.38 324.95 505.77 M322.4 424.97 319.85 435.74 318.57 443.82 317.3 457.29 317.3 468.06 318.57 481.53 319.85 489.61 322.4 500.38 M328.77 467.01 417.64 467.01 M335.28 436.92 337.44 435.84 340.69 432.59 340.69 455.34 M339.61 433.67 339.61 455.34 M335.28 455.34 345.03 455.34 M364.54 435.84 364.54 455.34 M354.78 445.59 374.29 445.59 M378.63 446.38 381.52 446.38 386.72 460.57 M380.94 447.56 386.72 462.93 M395.97 423.92 386.72 462.93 M395.97 423.92 417.64 423.92 M401.39 432.59 399.22 443.42 M399.22 443.42 401.39 441.26 404.64 440.17 407.89 440.17 411.14 441.26 413.31 443.42 414.39 446.67 414.39 448.84 413.31 452.09 411.14 454.26 407.89 455.34 404.64 455.34 401.39 454.26 400.3 453.18 399.22 451.01 399.22 449.92 400.3 448.84 401.39 449.92 400.3 451.01 M407.89 440.17 410.05 441.26 412.22 443.42 413.31 446.67 413.31 448.84 412.22 452.09 410.05 454.26 407.89 455.34 M401.39 432.59 412.22 432.59 M401.39 433.67 406.8 433.67 412.22 432.59 M366.7 479.76 367.79 480.84 366.7 481.93 365.62 480.84 365.62 479.76 366.7 477.59 367.79 476.51 371.04 475.42 375.37 475.42 378.63 476.51 379.71 477.59 380.79 479.76 380.79 481.93 379.71 484.1 376.46 486.26 371.04 488.43 368.87 489.51 366.7 491.68 365.62 494.93 365.62 498.18 M375.37 475.42 377.54 476.51 378.63 477.59 379.71 479.76 379.71 481.93 378.63 484.1 375.37 486.26 371.04 488.43 M365.62 496.02 366.7 494.93 368.87 494.93 374.29 497.1 377.54 497.1 379.71 496.02 380.79 494.93 M368.87 494.93 374.29 498.18 378.63 498.18 379.71 497.1 380.79 494.93 380.79 492.77 M421.47 419.58 424.02 424.97 426.57 433.05 429.12 443.82 430.39 457.29 430.39 468.06 429.12 481.53 426.57 492.3 424.02 500.38 421.47 505.77 M424.02 424.97 426.57 435.74 427.84 443.82 429.12 457.29 429.12 468.06 427.84 481.53 426.57 489.61 424.02 500.38 M439.32 438.96 440.27 439.92 439.32 440.87 438.36 439.92 438.36 438.96 439.32 437.05 440.27 436.09 443.14 435.14 446.97 435.14 449.84 436.09 450.79 437.05 451.75 438.96 451.75 440.87 450.79 442.79 447.92 444.7 443.14 446.61 441.23 447.57 439.32 449.48 438.36 452.35 438.36 455.22 M446.97 435.14 448.88 436.09 449.84 437.05 450.79 438.96 450.79 440.87 449.84 442.79 446.97 444.7 443.14 446.61 M438.36 453.3 439.32 452.35 441.23 452.35 446.01 454.26 448.88 454.26 450.79 453.3 451.75 452.35 M441.23 452.35 446.01 455.22 449.84 455.22 450.79 454.26 451.75 452.35 451.75 450.44 M459.72 467.01 482.67 467.01 M501.79 419.58 499.24 424.97 496.69 433.05 494.14 443.82 492.87 457.29 492.87 468.06 494.14 481.53 496.69 492.3 499.24 500.38 501.79 505.77 M499.24 424.97 496.69 435.74 495.42 443.82 494.14 457.29 494.14 468.06 495.42 481.53 496.69 489.61 499.24 500.38 M505.62 467.01 594.48 467.01 M512.12 436.92 514.29 435.84 517.54 432.59 517.54 455.34 M516.45 433.67 516.45 455.34 M512.12 455.34 521.87 455.34 M531.63 445.59 551.13 445.59 M555.47 446.38 558.36 446.38 563.56 460.57 M557.78 447.56 563.56 462.93 M572.81 423.92 563.56 462.93 M572.81 423.92 594.48 423.92 M578.23 432.59 576.06 443.42 M576.06 443.42 578.23 441.26 581.48 440.17 584.73 440.17 587.98 441.26 590.15 443.42 591.23 446.67 591.23 448.84 590.15 452.09 587.98 454.26 584.73 455.34 581.48 455.34 578.23 454.26 577.14 453.18 576.06 451.01 576.06 449.92 577.14 448.84 578.23 449.92 577.14 451.01 M584.73 440.17 586.9 441.26 589.06 443.42 590.15 446.67 590.15 448.84 589.06 452.09 586.9 454.26 584.73 455.34 M578.23 432.59 589.06 432.59 M578.23 433.67 583.65 433.67 589.06 432.59 M543.55 479.76 544.63 480.84 543.55 481.93 542.46 480.84 542.46 479.76 543.55 477.59 544.63 476.51 547.88 475.42 552.22 475.42 555.47 476.51 556.55 477.59 557.64 479.76 557.64 481.93 556.55 484.1 553.3 486.26 547.88 488.43 545.71 489.51 543.55 491.68 542.46 494.93 542.46 498.18 M552.22 475.42 554.39 476.51 555.47 477.59 556.55 479.76 556.55 481.93 555.47 484.1 552.22 486.26 547.88 488.43 M542.46 496.02 543.55 494.93 545.71 494.93 551.13 497.1 554.39 497.1 556.55 496.02 557.64 494.93 M545.71 494.93 551.13 498.18 555.47 498.18 556.55 497.1 557.64 494.93 557.64 492.77 M598.31 419.58 600.86 424.97 603.41 433.05 605.96 443.82 607.23 457.29 607.23 468.06 605.96 481.53 603.41 492.3 600.86 500.38 598.31 505.77 M600.86 424.97 603.41 435.74 604.68 443.82 605.96 457.29 605.96 468.06 604.68 481.53 603.41 489.61 600.86 500.38 M613.29 445.65 614.25 443.74 616.16 441.83 619.03 441.83 619.98 442.79 619.98 444.7 619.03 448.52 617.12 455.22 M618.07 441.83 619.03 442.79 619.03 444.7 618.07 448.52 616.16 455.22 M619.03 448.52 620.94 444.7 622.85 442.79 624.77 441.83 626.68 441.83 628.59 442.79 629.55 443.74 629.55 445.65 627.63 451.39 627.63 454.26 628.59 455.22 M626.68 441.83 628.59 443.74 628.59 445.65 626.68 451.39 626.68 454.26 627.63 455.22 630.5 455.22 632.42 453.3 633.37 451.39 M638.15 446.61 655.37 446.61 M663.02 438.96 663.97 439.92 663.02 440.87 662.06 439.92 662.06 438.96 663.02 437.05 663.97 436.09 666.84 435.14 670.67 435.14 673.53 436.09 674.49 437.05 675.45 438.96 675.45 440.87 674.49 442.79 671.62 444.7 666.84 446.61 664.93 447.57 663.02 449.48 662.06 452.35 662.06 455.22 M670.67 435.14 672.58 436.09 673.53 437.05 674.49 438.96 674.49 440.87 673.53 442.79 670.67 444.7 666.84 446.61 M662.06 453.3 663.02 452.35 664.93 452.35 669.71 454.26 672.58 454.26 674.49 453.3 675.45 452.35 M664.93 452.35 669.71 455.22 673.53 455.22 674.49 454.26 675.45 452.35 675.45 450.44 M692.34 419.58 689.79 424.97 687.24 433.05 684.69 443.82 683.42 457.29 683.42 468.06 684.69 481.53 687.24 492.3 689.79 500.38 692.34 505.77 M689.79 424.97 687.24 435.74 685.97 443.82 684.69 457.29 684.69 468.06 685.97 481.53 687.24 489.61 689.79 500.38 M696.17 467.01 785.03 467.01 M702.67 436.92 704.83 435.84 708.09 432.59 708.09 455.34 M707 433.67 707 455.34 M702.67 455.34 712.42 455.34 M722.18 445.59 741.68 445.59 M746.02 446.38 748.91 446.38 754.11 460.57 M748.33 447.56 754.11 462.93 M763.36 423.92 754.11 462.93 M763.36 423.92 785.03 423.92 M768.78 432.59 766.61 443.42 M766.61 443.42 768.78 441.26 772.03 440.17 775.28 440.17 778.53 441.26 780.7 443.42 781.78 446.67 781.78 448.84 780.7 452.09 778.53 454.26 775.28 455.34 772.03 455.34 768.78 454.26 767.69 453.18 766.61 451.01 766.61 449.92 767.69 448.84 768.78 449.92 767.69 451.01 M775.28 440.17 777.45 441.26 779.61 443.42 780.7 446.67 780.7 448.84 779.61 452.09 777.45 454.26 775.28 455.34 M768.78 432.59 779.61 432.59 M768.78 433.67 774.2 433.67 779.61 432.59 M734.1 479.76 735.18 480.84 734.1 481.93 733.01 480.84 733.01 479.76 734.1 477.59 735.18 476.51 738.43 475.42 742.77 475.42 746.02 476.51 747.1 477.59 748.19 479.76 748.19 481.93 747.1 484.1 743.85 486.26 738.43 488.43 736.26 489.51 734.1 491.68 733.01 494.93 733.01 498.18 M742.77 475.42 744.93 476.51 746.02 477.59 747.1 479.76 747.1 481.93 746.02 484.1 742.77 486.26 738.43 488.43 M733.01 496.02 734.1 494.93 736.26 494.93 741.68 497.1 744.93 497.1 747.1 496.02 748.19 494.93 M736.26 494.93 741.68 498.18 746.02 498.18 747.1 497.1 748.19 494.93 748.19 492.77 M788.86 419.58 791.41 424.97 793.96 433.05 796.51 443.82 797.78 457.29 797.78 468.06 796.51 481.53 793.96 492.3 791.41 500.38 788.86 505.77 M791.41 424.97 793.96 435.74 795.23 443.82 796.51 457.29 796.51 468.06 795.23 481.53 793.96 489.61 791.41 500.38 M806.71 438.96 807.66 439.92 806.71 440.87 805.75 439.92 805.75 438.96 806.71 437.05 807.66 436.09 810.53 435.14 814.36 435.14 817.23 436.09 818.18 437.05 819.14 438.96 819.14 440.87 818.18 442.79 815.31 444.7 810.53 446.61 808.62 447.57 806.71 449.48 805.75 452.35 805.75 455.22 M814.36 435.14 816.27 436.09 817.23 437.05 818.18 438.96 818.18 440.87 817.23 442.79 814.36 444.7 810.53 446.61 M805.75 453.3 806.71 452.35 808.62 452.35 813.4 454.26 816.27 454.26 818.18 453.3 819.14 452.35 M808.62 452.35 813.4 455.22 817.23 455.22 818.18 454.26 819.14 452.35 819.14 450.44 M448.24 546.9 451.64 546.9 457.76 563.59 M450.96 548.29 457.76 566.37 M468.64 520.47 457.76 566.37 M468.64 520.47 494.14 520.47 M475.02 530.67 472.47 543.42 M472.47 543.42 475.02 540.87 478.84 539.6 482.67 539.6 486.49 540.87 489.04 543.42 490.32 547.25 490.32 549.8 489.04 553.62 486.49 556.17 482.67 557.45 478.84 557.45 475.02 556.17 473.74 554.9 472.47 552.35 472.47 551.07 473.74 549.8 475.02 551.07 473.74 552.35 M482.67 539.6 485.22 540.87 487.77 543.42 489.04 547.25 489.04 549.8 487.77 553.62 485.22 556.17 482.67 557.45 M475.02 530.67 487.77 530.67 M475.02 531.95 481.39 531.95 487.77 530.67 M87.38 664.86 114.38 664.86 M87.38 673.86 114.38 673.86 M120.38 669.36 446.65 669.36 M134.4 578.37 131.85 583.76 129.3 591.84 126.75 602.61 125.48 616.08 125.48 626.85 126.75 640.32 129.3 651.09 131.85 659.17 134.4 664.56 M131.85 583.76 129.3 594.53 128.02 602.61 126.75 616.08 126.75 626.85 128.02 640.32 129.3 648.4 131.85 659.17 M138.23 625.8 227.09 625.8 M144.73 595.71 146.9 594.63 150.15 591.38 150.15 614.13 M149.06 592.46 149.06 614.13 M144.73 614.13 154.48 614.13 M173.99 594.63 173.99 614.13 M164.24 604.38 183.74 604.38 M188.08 605.17 190.97 605.17 196.17 619.36 M190.39 606.35 196.17 621.72 M205.42 582.71 196.17 621.72 M205.42 582.71 227.09 582.71 M210.84 591.38 208.67 602.21 M208.67 602.21 210.84 600.05 214.09 598.96 217.34 598.96 220.59 600.05 222.76 602.21 223.84 605.46 223.84 607.63 222.76 610.88 220.59 613.05 217.34 614.13 214.09 614.13 210.84 613.05 209.75 611.97 208.67 609.8 208.67 608.72 209.75 607.63 210.84 608.72 209.75 609.8 M217.34 598.96 219.51 600.05 221.67 602.21 222.76 605.46 222.76 607.63 221.67 610.88 219.51 613.05 217.34 614.13 M210.84 591.38 221.67 591.38 M210.84 592.46 216.26 592.46 221.67 591.38 M176.16 638.55 177.24 639.63 176.16 640.72 175.07 639.63 175.07 638.55 176.16 636.38 177.24 635.3 180.49 634.22 184.83 634.22 188.08 635.3 189.16 636.38 190.25 638.55 190.25 640.72 189.16 642.89 185.91 645.05 180.49 647.22 178.32 648.3 176.16 650.47 175.07 653.72 175.07 656.97 M184.83 634.22 186.99 635.3 188.08 636.38 189.16 638.55 189.16 640.72 188.08 642.89 184.83 645.05 180.49 647.22 M175.07 654.81 176.16 653.72 178.32 653.72 183.74 655.89 186.99 655.89 189.16 654.81 190.25 653.72 M178.32 653.72 183.74 656.97 188.08 656.97 189.16 655.89 190.25 653.72 190.25 651.56 M230.92 578.37 233.47 583.76 236.02 591.84 238.57 602.61 239.84 616.08 239.84 626.85 238.57 640.32 236.02 651.09 233.47 659.17 230.92 664.56 M233.47 583.76 236.02 594.53 237.29 602.61 238.57 616.08 238.57 626.85 237.29 640.32 236.02 648.4 233.47 659.17 M245.9 604.44 246.86 602.53 248.77 600.62 251.64 600.62 252.59 601.58 252.59 603.49 251.64 607.31 249.72 614.01 M250.68 600.62 251.64 601.58 251.64 603.49 250.68 607.31 248.77 614.01 M251.64 607.31 253.55 603.49 255.46 601.58 257.37 600.62 259.29 600.62 261.2 601.58 262.16 602.53 262.16 604.44 260.24 610.18 260.24 613.05 261.2 614.01 M259.29 600.62 261.2 602.53 261.2 604.44 259.29 610.18 259.29 613.05 260.24 614.01 263.11 614.01 265.02 612.09 265.98 610.18 M272.04 625.8 294.99 625.8 M314.11 578.37 311.56 583.76 309.01 591.84 306.46 602.61 305.19 616.08 305.19 626.85 306.46 640.32 309.01 651.09 311.56 659.17 314.11 664.56 M311.56 583.76 309.01 594.53 307.74 602.61 306.46 616.08 306.46 626.85 307.74 640.32 309.01 648.4 311.56 659.17 M317.94 625.8 406.8 625.8 M324.44 595.71 326.61 594.63 329.86 591.38 329.86 614.13 M328.77 592.46 328.77 614.13 M324.44 614.13 334.19 614.13 M343.95 604.38 363.45 604.38 M367.79 605.17 370.68 605.17 375.88 619.36 M370.1 606.35 375.88 621.72 M385.13 582.71 375.88 621.72 M385.13 582.71 406.8 582.71 M390.55 591.38 388.38 602.21 M388.38 602.21 390.55 600.05 393.8 598.96 397.05 598.96 400.3 600.05 402.47 602.21 403.55 605.46 403.55 607.63 402.47 610.88 400.3 613.05 397.05 614.13 393.8 614.13 390.55 613.05 389.46 611.97 388.38 609.8 388.38 608.72 389.46 607.63 390.55 608.72 389.46 609.8 M397.05 598.96 399.22 600.05 401.39 602.21 402.47 605.46 402.47 607.63 401.39 610.88 399.22 613.05 397.05 614.13 M390.55 591.38 401.39 591.38 M390.55 592.46 395.97 592.46 401.39 591.38 M355.87 638.55 356.95 639.63 355.87 640.72 354.78 639.63 354.78 638.55 355.87 636.38 356.95 635.3 360.2 634.22 364.54 634.22 367.79 635.3 368.87 636.38 369.96 638.55 369.96 640.72 368.87 642.89 365.62 645.05 360.2 647.22 358.04 648.3 355.87 650.47 354.78 653.72 354.78 656.97 M364.54 634.22 366.71 635.3 367.79 636.38 368.87 638.55 368.87 640.72 367.79 642.89 364.54 645.05 360.2 647.22 M354.78 654.81 355.87 653.72 358.04 653.72 363.45 655.89 366.71 655.89 368.87 654.81 369.96 653.72 M358.04 653.72 363.45 656.97 367.79 656.97 368.87 655.89 369.96 653.72 369.96 651.56 M410.63 578.37 413.18 583.76 415.73 591.84 418.28 602.61 419.55 616.08 419.55 626.85 418.28 640.32 415.73 651.09 413.18 659.17 410.63 664.56 M413.18 583.76 415.73 594.53 417 602.61 418.28 616.08 418.28 626.85 417 640.32 415.73 648.4 413.18 659.17 M425.61 604.44 426.57 602.53 428.48 600.62 431.35 600.62 432.3 601.58 432.3 603.49 431.35 607.31 429.43 614.01 M430.39 600.62 431.35 601.58 431.35 603.49 430.39 607.31 428.48 614.01 M431.35 607.31 433.26 603.49 435.17 601.58 437.09 600.62 439 600.62 440.91 601.58 441.87 602.53 441.87 604.44 439.95 610.18 439.95 613.05 440.91 614.01 M439 600.62 440.91 602.53 440.91 604.44 439 610.18 439 613.05 439.95 614.01 442.82 614.01 444.73 612.09 445.69 610.18 M260.56 705.69 263.96 705.69 270.08 722.38 M263.28 707.08 270.08 725.16 M280.96 679.26 270.08 725.16 M280.96 679.26 306.46 679.26 M287.34 689.46 284.79 702.21 M284.79 702.21 287.34 699.66 291.16 698.39 294.99 698.39 298.81 699.66 301.36 702.21 302.64 706.04 302.64 708.59 301.36 712.41 298.81 714.96 294.99 716.24 291.16 716.24 287.34 714.96 286.06 713.69 284.79 711.14 284.79 709.86 286.06 708.59 287.34 709.86 286.06 711.14 M294.99 698.39 297.54 699.66 300.09 702.21 301.36 706.04 301.36 708.59 300.09 712.41 297.54 714.96 294.99 716.24 M287.34 689.46 300.09 689.46 M287.34 690.74 293.71 690.74 300.09 689.46 "/></svg>