<svg 
      xmlns="http://www.w3.org/2000/svg" 
      width="1007.5" height="108"
      fill="none" stroke="black" stroke-width="2" 
      stroke-linecap="round" stroke-linejoin="round"
    ><rect x="0" y="0" width="1007.5" height="108" fill="white" stroke="none"></rect><path d="M30 40.5 28.5 48 M52.5 40.5 51 48 M36 54 34.5 61.5 M46.5 54 45 61.5 M30 67.5 28.5 75 M52.5 67.5 51 75 M30 43.5 51 43.5 M30 45 51 45 M36 57 45 57 M36 58.5 45 58.5 M30 70.5 51 70.5 M30 72 51 72 M79.5 57 76.5 54 73.5 52.5 67.5 52.5 64.5 54 64.5 57 67.5 60 72 61.5 M67.5 52.5 66 54 66 57 69 60 72 61.5 M72 61.5 64.5 63 61.5 66 61.5 69 63 72 67.5 73.5 72 73.5 75 72 78 69 M72 61.5 66 63 63 66 63 69 64.5 72 67.5 73.5 M112.5 52.5 97.5 52.5 93 54 90 58.5 88.5 63 88.5 67.5 90 70.5 91.5 72 94.5 73.5 97.5 73.5 102 72 105 67.5 106.5 63 106.5 58.5 105 55.5 103.5 54 100.5 52.5 M97.5 52.5 94.5 54 91.5 58.5 90 63 90 69 91.5 72 M97.5 73.5 100.5 72 103.5 67.5 105 63 105 57 103.5 54 M103.5 54 112.5 54 M124.5 52.5 118.5 73.5 M126 52.5 120 73.5 M139.5 52.5 141 54 142.5 54 141 52.5 138 52.5 135 54 129 60 126 61.5 123 61.5 M126 61.5 129 63 132 72 133.5 73.5 M126 61.5 127.5 63 130.5 72 132 73.5 135 73.5 138 72 141 67.5 M168 57 165 54 162 52.5 156 52.5 153 54 153 57 156 60 160.5 61.5 M156 52.5 154.5 54 154.5 57 157.5 60 160.5 61.5 M160.5 61.5 153 63 150 66 150 69 151.5 72 156 73.5 160.5 73.5 163.5 72 166.5 69 M160.5 61.5 154.5 63 151.5 66 151.5 69 153 72 156 73.5 M186 54 180 73.5 M186 54 181.5 73.5 M195 54 195 73.5 M195 54 196.5 73.5 M175.5 57 178.5 54 183 52.5 202.5 52.5 M175.5 57 178.5 55.5 183 54 202.5 54 M225.75 25.5 218.25 34.5 M225.75 25.5 227.25 27 218.25 34.5 M220.5 52.5 216 54 213 57 211.5 60 210 64.5 210 69 211.5 72 216 73.5 219 73.5 222 72 226.5 67.5 229.5 63 232.5 57 234 52.5 M220.5 52.5 217.5 54 214.5 57 213 60 211.5 64.5 211.5 69 213 72 216 73.5 M220.5 52.5 223.5 52.5 226.5 54 228 57 231 69 232.5 72 234 73.5 M223.5 52.5 225 54 226.5 57 229.5 69 231 72 234 73.5 235.5 73.5 M256.5 42 253.5 43.5 252 45 252 46.5 253.5 48 258 49.5 265.5 49.5 265.5 48 261 49.5 255 52.5 250.5 55.5 246 60 244.5 64.5 244.5 67.5 246 70.5 250.5 73.5 255 76.5 256.5 79.5 256.5 82.5 255 84 252 84 250.5 82.5 M258 51 252 55.5 247.5 60 246 64.5 246 67.5 247.5 70.5 250.5 73.5 M273 58.5 276 55.5 280.5 54 279 52.5 276 54 273 58.5 271.5 63 271.5 67.5 273 72 274.5 73.5 277.5 73.5 280.5 72 283.5 67.5 285 63 M271.5 67.5 273 70.5 274.5 72 277.5 72 280.5 70.5 283.5 67.5 M283.5 63 283.5 67.5 285 72 286.5 73.5 289.5 73.5 292.5 72 295.5 67.5 297 63 297 58.5 295.5 54 294 52.5 292.5 54 295.5 55.5 297 58.5 M283.5 67.5 285 70.5 286.5 72 289.5 72 292.5 70.5 295.5 67.5 M331.33 54 326.83 73.5 M331.33 54 328.33 73.5 M317.83 57 320.83 54 325.33 52.5 341.83 52.5 M317.83 57 320.83 55.5 325.33 54 341.83 54 M346.33 58.5 347.83 55.5 350.83 52.5 355.33 52.5 356.83 54 356.83 57 355.33 63 352.33 73.5 M353.83 52.5 355.33 54 355.33 57 353.83 63 350.83 73.5 M355.33 63 358.33 57 361.33 54 364.33 52.5 367.33 52.5 370.33 54 371.83 55.5 371.83 60 370.33 67.5 365.83 84 M367.33 52.5 370.33 55.5 370.33 60 368.83 67.5 364.33 84 M386.83 52.5 383.83 73.5 M388.33 52.5 386.83 61.5 385.33 69 383.83 73.5 M403.33 52.5 401.83 58.5 398.83 64.5 M404.83 52.5 403.33 57 401.83 60 398.83 64.5 395.83 67.5 391.33 70.5 388.33 72 383.83 73.5 M382.33 52.5 388.33 52.5 M443.67 42 434.67 84 M445.17 42 433.17 84 M422.67 58.5 424.17 55.5 427.17 52.5 431.67 52.5 433.17 54 433.17 57 431.67 64.5 431.67 69 434.67 72 439.17 72 442.17 70.5 446.67 66 449.67 61.5 M430.17 52.5 431.67 54 431.67 57 430.17 64.5 430.17 69 431.67 72 434.67 73.5 439.17 73.5 442.17 72 445.17 69 448.17 64.5 449.67 61.5 452.67 52.5 M457.17 58.5 458.67 55.5 461.67 52.5 466.17 52.5 467.67 54 467.67 57 464.67 66 464.67 70.5 467.67 73.5 M464.67 52.5 466.17 54 466.17 57 463.17 66 463.17 70.5 464.67 72 467.67 73.5 469.17 73.5 473.67 72 476.67 69 479.67 64.5 481.17 60 481.17 55.5 479.67 52.5 478.17 54 479.67 55.5 481.17 60 M479.67 64.5 481.17 55.5 M488.67 52.5 491.67 52.5 494.67 54 496.17 57 503.67 79.5 505.17 82.5 506.67 84 M491.67 52.5 493.17 54 494.67 57 502.17 79.5 503.67 82.5 506.67 84 509.67 84 M511.17 52.5 509.67 55.5 506.67 60 491.67 76.5 488.67 81 487.17 84 M526.17 52.5 521.67 54 518.67 58.5 517.17 63 517.17 67.5 518.67 70.5 520.17 72 523.17 73.5 526.17 73.5 530.67 72 533.67 67.5 535.17 63 535.17 58.5 533.67 55.5 532.17 54 529.17 52.5 526.17 52.5 M526.17 52.5 523.17 54 520.17 58.5 518.67 63 518.67 69 520.17 72 M526.17 73.5 529.17 72 532.17 67.5 533.67 63 533.67 57 532.17 54 M551.67 54 548.67 55.5 545.67 58.5 544.17 63 544.17 67.5 545.67 70.5 547.17 72 550.17 73.5 554.67 73.5 559.17 72 563.67 69 566.67 64.5 568.17 60 568.17 55.5 565.17 52.5 562.17 52.5 559.17 55.5 556.17 61.5 553.17 69 548.67 84 M544.17 67.5 547.17 70.5 550.17 72 554.67 72 559.17 70.5 563.67 67.5 566.67 64.5 M568.17 55.5 565.17 54 562.17 54 559.17 57 556.17 61.5 553.17 70.5 550.17 84 M589.17 42 584.67 43.5 581.67 48 580.17 51 578.67 55.5 577.17 63 577.17 69 578.67 72 581.67 73.5 584.67 73.5 589.17 72 592.17 67.5 593.67 64.5 595.17 60 596.67 52.5 596.67 46.5 595.17 43.5 592.17 42 589.17 42 M589.17 42 586.17 43.5 583.17 48 581.67 51 580.17 55.5 578.67 63 578.67 69 580.17 72 581.67 73.5 M584.67 73.5 587.67 72 590.67 67.5 592.17 64.5 593.67 60 595.17 52.5 595.17 46.5 593.67 43.5 592.17 42 M580.17 57 593.67 57 M617.67 25.5 610.17 34.5 M617.67 25.5 619.17 27 610.17 34.5 M614.67 52.5 610.17 54 607.17 58.5 605.67 63 605.67 67.5 607.17 70.5 608.67 72 611.67 73.5 614.67 73.5 619.17 72 622.17 67.5 623.67 63 623.67 58.5 622.17 55.5 620.67 54 617.67 52.5 614.67 52.5 M614.67 52.5 611.67 54 608.67 58.5 607.17 63 607.17 69 608.67 72 M614.67 73.5 617.67 72 620.67 67.5 622.17 63 622.17 57 620.67 54 M634.17 66 635.67 70.5 637.17 72 640.17 73.5 643.17 73.5 647.67 72 650.67 67.5 652.17 63 652.17 58.5 650.67 55.5 649.17 54 646.17 52.5 643.17 52.5 638.67 54 635.67 58.5 634.17 63 628.17 84 M643.17 73.5 646.17 72 649.17 67.5 650.67 63 650.67 57 649.17 54 M643.17 52.5 640.17 54 637.17 58.5 635.67 63 629.67 84 M671.67 52.5 667.17 54 664.17 57 662.67 60 661.17 64.5 661.17 69 662.67 72 667.17 73.5 670.17 73.5 673.17 72 677.67 67.5 680.67 63 683.67 57 685.17 52.5 M671.67 52.5 668.67 54 665.67 57 664.17 60 662.67 64.5 662.67 69 664.17 72 667.17 73.5 M671.67 52.5 674.67 52.5 677.67 54 679.17 57 682.17 69 683.67 72 685.17 73.5 M674.67 52.5 676.17 54 677.67 57 680.67 69 682.17 72 685.17 73.5 686.67 73.5 M724 42 719.5 43.5 716.5 46.5 713.5 52.5 712 57 710.5 63 709 72 707.5 84 M724 42 721 43.5 718 46.5 715 52.5 713.5 57 712 63 710.5 72 709 84 M724 42 727 42 730 43.5 731.5 45 731.5 49.5 730 52.5 728.5 54 724 55.5 718 55.5 M727 42 730 45 730 49.5 728.5 52.5 727 54 724 55.5 M718 55.5 724 57 727 60 728.5 63 728.5 67.5 727 70.5 725.5 72 721 73.5 718 73.5 715 72 713.5 70.5 712 66 M718 55.5 722.5 57 725.5 60 727 63 727 67.5 725.5 70.5 724 72 721 73.5 M755.5 54 752.5 52.5 749.5 52.5 745 54 742 58.5 740.5 63 740.5 67.5 742 70.5 743.5 72 746.5 73.5 749.5 73.5 754 72 757 67.5 758.5 63 758.5 58.5 757 55.5 751 48 749.5 45 749.5 42 751 40.5 754 40.5 757 42 760 45 M749.5 52.5 746.5 54 743.5 58.5 742 63 742 69 743.5 72 M749.5 73.5 752.5 72 755.5 67.5 757 63 757 57 755.5 54 752.5 49.5 751 46.5 751 43.5 752.5 42 755.5 42 760 45 M787 57 784 54 781 52.5 775 52.5 772 54 772 57 775 60 779.5 61.5 M775 52.5 773.5 54 773.5 57 776.5 60 779.5 61.5 M779.5 61.5 772 63 769 66 769 69 770.5 72 775 73.5 779.5 73.5 782.5 72 785.5 69 M779.5 61.5 773.5 63 770.5 66 770.5 69 772 72 775 73.5 M796 42 799 42 802 43.5 803.5 45 805 48 814 69 815.5 72 817 73.5 M799 42 802 45 803.5 48 812.5 69 814 72 817 73.5 818.5 73.5 M806.5 52.5 794.5 73.5 M806.5 52.5 796 73.5 M823 58.5 824.5 55.5 827.5 52.5 832 52.5 833.5 54 833.5 57 830.5 66 830.5 70.5 833.5 73.5 M830.5 52.5 832 54 832 57 829 66 829 70.5 830.5 72 833.5 73.5 835 73.5 839.5 72 842.5 69 845.5 64.5 847 60 847 55.5 845.5 52.5 844 54 845.5 55.5 847 60 M845.5 64.5 847 55.5 M853 57 856 54 859 52.5 862 52.5 865 54 866.5 55.5 868 60 868 66 866.5 72 862 84 M854.5 55.5 857.5 54 863.5 54 866.5 55.5 M878.5 52.5 877 57 875.5 60 868 70.5 863.5 78 860.5 84 M877 52.5 875.5 57 874 60 868 70.5 M892 52.5 883 84 M893.5 52.5 884.5 84 M892 57 890.5 66 890.5 70.5 893.5 73.5 896.5 73.5 899.5 72 902.5 69 905.5 64.5 M908.5 52.5 904 69 904 72 905.5 73.5 910 73.5 913 70.5 914.5 67.5 M910 52.5 905.5 69 905.5 72 907 73.5 M928 25.5 920.5 34.5 M928 25.5 929.5 27 920.5 34.5 M925 52.5 922 63 920.5 69 920.5 72 922 73.5 926.5 73.5 929.5 70.5 931 67.5 M926.5 52.5 923.5 63 922 69 922 72 923.5 73.5 M949 52.5 944.5 54 941.5 57 940 60 938.5 64.5 938.5 69 940 72 944.5 73.5 947.5 73.5 950.5 72 955 67.5 958 63 961 57 962.5 52.5 M949 52.5 946 54 943 57 941.5 60 940 64.5 940 69 941.5 72 944.5 73.5 M949 52.5 952 52.5 955 54 956.5 57 959.5 69 961 72 962.5 73.5 M952 52.5 953.5 54 955 57 958 69 959.5 72 962.5 73.5 964 73.5 M976 70.5 974.5 72 976 73.5 977.5 72 976 70.5 "/></svg>