<svg 
      xmlns="http://www.w3.org/2000/svg" 
      width="814.2" height="174.9"
      fill="none" stroke="black" stroke-width="2" 
      stroke-linecap="round" stroke-linejoin="round"
    ><rect x="0" y="0" width="814.2" height="174.9" fill="white" stroke="none"></rect><path d="M24 105.3 91.57 105.3 M38.49 47.59 48.22 41.21 57.96 47.59 M38.49 47.59 48.22 42.49 57.96 47.59 M57.15 52.56 61.61 54.6 57.15 56.64 M52.69 49.5 60.12 54.6 52.69 59.7 M34.84 54.6 60.12 54.6 M41.21 73.72 41.21 100.5 M42.49 75 42.49 99.23 M37.39 73.72 43.76 73.72 43.76 100.5 M43.76 77.55 45.04 75 47.59 73.72 50.14 73.72 53.96 75 56.51 77.55 57.79 81.38 57.79 83.93 56.51 87.75 53.96 90.3 50.14 91.57 47.59 91.57 45.04 90.3 43.76 87.75 M55.24 77.55 56.51 80.1 56.51 85.2 55.24 87.75 M50.14 73.72 52.69 75 53.96 76.28 55.24 80.1 55.24 85.2 53.96 89.03 52.69 90.3 50.14 91.57 M37.39 100.5 47.59 100.5 M38.66 73.72 41.21 75 M39.94 73.72 41.21 76.28 M41.21 99.23 38.66 100.5 M41.21 97.95 39.94 100.5 M43.76 97.95 45.04 100.5 M43.76 99.23 46.31 100.5 M65.44 31.65 66.39 32.61 65.44 33.56 64.48 32.61 64.48 31.65 65.44 29.74 66.39 28.78 69.26 27.83 73.09 27.83 75.96 28.78 76.91 29.74 77.87 31.65 77.87 33.56 76.91 35.48 74.04 37.39 69.26 39.3 67.35 40.26 65.44 42.17 64.48 45.04 64.48 47.91 M73.09 27.83 75 28.78 75.96 29.74 76.91 31.65 76.91 33.56 75.96 35.48 73.09 37.39 69.26 39.3 M64.48 45.99 65.44 45.04 67.35 45.04 72.13 46.95 75 46.95 76.91 45.99 77.87 45.04 M67.35 45.04 72.13 47.91 75.96 47.91 76.91 46.95 77.87 45.04 77.87 43.13 M29.1 120.3 30.38 121.57 29.1 122.85 27.83 121.57 27.83 120.3 29.1 117.75 30.38 116.48 34.2 115.2 39.3 115.2 43.13 116.48 44.4 117.75 45.68 120.3 45.68 122.85 44.4 125.4 40.58 127.95 34.2 130.5 31.65 131.77 29.1 134.32 27.83 138.15 27.83 141.98 M39.3 115.2 41.85 116.48 43.13 117.75 44.4 120.3 44.4 122.85 43.13 125.4 39.3 127.95 34.2 130.5 M27.83 139.43 29.1 138.15 31.65 138.15 38.03 140.7 41.85 140.7 44.4 139.43 45.68 138.15 M31.65 138.15 38.03 141.98 43.13 141.98 44.4 140.7 45.68 138.15 45.68 135.6 M50.78 129.23 52.05 126.68 54.6 124.13 58.43 124.13 59.7 125.4 59.7 127.95 58.43 133.05 55.88 141.98 M57.15 124.13 58.43 125.4 58.43 127.95 57.15 133.05 54.6 141.98 M58.43 133.05 60.97 127.95 63.53 125.4 66.07 124.13 68.63 124.13 71.18 125.4 72.45 126.68 72.45 129.23 68.63 141.98 M68.63 124.13 71.18 126.68 71.18 129.23 67.35 141.98 M71.18 133.05 73.72 127.95 76.27 125.4 78.82 124.13 81.38 124.13 83.93 125.4 85.2 126.68 85.2 129.23 82.65 136.88 82.65 140.7 83.93 141.98 M81.38 124.13 83.93 126.68 83.93 129.23 81.38 136.88 81.38 140.7 82.65 141.98 86.48 141.98 89.03 139.43 90.3 136.88 M97.57 81.3 97.57 129.3 M120.07 87.3 120.07 118.8 M121.57 87.3 121.57 118.8 M106.57 97.8 108.07 96.3 111.07 97.8 112.57 103.8 114.07 106.8 115.57 108.3 118.57 109.8 M108.07 96.3 109.57 97.8 111.07 103.8 112.57 106.8 114.07 108.3 118.57 109.8 123.07 109.8 127.57 108.3 129.07 106.8 130.57 103.8 132.07 97.8 133.57 96.3 M123.07 109.8 126.07 108.3 127.57 106.8 129.07 103.8 130.57 97.8 133.57 96.3 135.07 97.8 M115.57 87.3 126.07 87.3 M115.57 118.8 126.07 118.8 M154.57 81.3 151.57 84.3 148.57 88.8 145.57 94.8 144.07 102.3 144.07 108.3 145.57 115.8 148.57 121.8 151.57 126.3 154.57 129.3 M151.57 84.3 148.57 90.3 147.07 94.8 145.57 102.3 145.57 108.3 147.07 115.8 148.57 120.3 151.57 126.3 M172.58 87.3 166.58 108.3 165.08 114.3 165.08 117.3 166.58 118.8 171.08 118.8 174.08 115.8 175.58 112.8 M174.08 87.3 168.08 108.3 166.58 114.3 166.58 117.3 168.08 118.8 M163.57 97.8 177.08 97.8 M184.58 81.3 187.58 84.3 190.58 88.8 193.58 94.8 195.08 102.3 195.08 108.3 193.58 115.8 190.58 121.8 187.58 126.3 184.58 129.3 M187.58 84.3 190.58 90.3 192.08 94.8 193.58 102.3 193.58 108.3 192.08 115.8 190.58 120.3 187.58 126.3 M207.08 81.3 217.58 105.3 207.08 129.3 M241.58 91.8 241.58 118.8 M228.08 105.3 255.08 105.3 M270.08 87.3 271.58 118.8 M271.58 87.3 273.08 115.8 M291.08 87.3 271.58 118.8 M267.08 87.3 276.08 87.3 M285.08 87.3 294.08 87.3 M307.58 81.3 304.58 84.3 301.58 88.8 298.58 94.8 297.08 102.3 297.08 108.3 298.58 115.8 301.58 121.8 304.58 126.3 307.58 129.3 M304.58 84.3 301.58 90.3 300.08 94.8 298.58 102.3 298.58 108.3 300.08 115.8 301.58 120.3 304.58 126.3 M315.55 67.05 324.83 59.55 334.1 67.05 M315.55 67.05 324.83 61.05 334.1 67.05 M333.33 72.9 337.58 75.3 333.33 77.7 M329.08 69.3 336.16 75.3 329.08 81.3 M312.08 75.3 336.16 75.3 M319.58 97.8 319.58 118.8 M321.08 99.3 321.08 117.3 M315.08 97.8 322.58 97.8 322.58 118.8 M333.08 100.8 333.08 99.3 331.58 99.3 331.58 102.3 334.58 102.3 334.58 99.3 333.08 97.8 330.08 97.8 327.08 99.3 324.08 102.3 322.58 106.8 M315.08 118.8 327.08 118.8 M316.58 97.8 319.58 99.3 M318.08 97.8 319.58 100.8 M319.58 117.3 316.58 118.8 M319.58 115.8 318.08 118.8 M322.58 115.8 324.08 118.8 M322.58 117.3 325.58 118.8 M345.08 118.8 343.58 117.3 345.08 115.8 346.58 117.3 346.58 120.3 345.08 123.3 343.58 124.8 M366.08 87.3 360.08 108.3 358.58 114.3 358.58 117.3 360.08 118.8 364.58 118.8 367.58 115.8 369.08 112.8 M367.58 87.3 361.58 108.3 360.08 114.3 360.08 117.3 361.58 118.8 M357.08 97.8 370.58 97.8 M378.08 81.3 381.08 84.3 384.08 88.8 387.08 94.8 388.58 102.3 388.58 108.3 387.08 115.8 384.08 121.8 381.08 126.3 378.08 129.3 M381.08 84.3 384.08 90.3 385.58 94.8 387.08 102.3 387.08 108.3 385.58 115.8 384.08 120.3 381.08 126.3 M400.58 81.3 400.58 129.3 M423.08 87.3 423.08 118.8 M424.58 87.3 424.58 118.8 M409.58 97.8 411.08 96.3 414.08 97.8 415.58 103.8 417.08 106.8 418.58 108.3 421.58 109.8 M411.08 96.3 412.58 97.8 414.08 103.8 415.58 106.8 417.08 108.3 421.58 109.8 426.08 109.8 430.58 108.3 432.08 106.8 433.58 103.8 435.08 97.8 436.58 96.3 M426.08 109.8 429.08 108.3 430.58 106.8 432.08 103.8 433.58 97.8 436.58 96.3 438.08 97.8 M418.58 87.3 429.08 87.3 M418.58 118.8 429.08 118.8 M457.58 81.3 454.58 84.3 451.58 88.8 448.58 94.8 447.08 102.3 447.08 108.3 448.58 115.8 451.58 121.8 454.58 126.3 457.58 129.3 M454.58 84.3 451.58 90.3 450.08 94.8 448.58 102.3 448.58 108.3 450.08 115.8 451.58 120.3 454.58 126.3 M475.58 87.3 469.58 108.3 468.08 114.3 468.08 117.3 469.58 118.8 474.08 118.8 477.08 115.8 478.58 112.8 M477.08 87.3 471.08 108.3 469.58 114.3 469.58 117.3 471.08 118.8 M466.58 97.8 480.08 97.8 M487.58 81.3 490.58 84.3 493.58 88.8 496.58 94.8 498.08 102.3 498.08 108.3 496.58 115.8 493.58 121.8 490.58 126.3 487.58 129.3 M490.58 84.3 493.58 90.3 495.08 94.8 496.58 102.3 496.58 108.3 495.08 115.8 493.58 120.3 490.58 126.3 M510.08 81.3 520.58 105.3 510.08 129.3 M531.08 100.8 558.08 100.8 M531.08 109.8 558.08 109.8 M577.58 87.3 576.08 88.8 577.58 90.3 579.08 88.8 577.58 87.3 M565.58 103.8 567.08 100.8 570.08 97.8 574.58 97.8 576.08 99.3 576.08 103.8 573.08 112.8 573.08 117.3 574.58 118.8 M573.08 97.8 574.58 99.3 574.58 103.8 571.58 112.8 571.58 117.3 573.08 118.8 577.58 118.8 580.58 115.8 582.08 112.8 M595.58 87.3 586.58 118.8 M597.08 87.3 588.08 118.8 M591.08 108.3 594.08 102.3 597.08 99.3 600.08 97.8 603.08 97.8 606.08 99.3 607.58 100.8 607.58 103.8 604.58 112.8 604.58 117.3 606.08 118.8 M603.08 97.8 606.08 100.8 606.08 103.8 603.08 112.8 603.08 117.3 604.58 118.8 609.08 118.8 612.08 115.8 613.58 112.8 M591.08 87.3 597.08 87.3 M615.08 105.3 659.7 105.3 M646.95 64.8 641.85 82.65 640.58 87.75 640.58 90.3 641.85 91.58 645.67 91.58 648.22 89.03 649.5 86.48 M648.22 64.8 643.13 82.65 641.85 87.75 641.85 90.3 643.13 91.58 M641.85 82.65 641.85 78.83 640.58 75 638.03 73.73 635.47 73.73 631.65 75 629.1 78.83 627.83 82.65 627.83 86.48 629.1 89.03 630.38 90.3 632.92 91.58 635.47 91.58 638.03 90.3 640.58 86.48 641.85 82.65 M635.47 73.73 632.92 75 630.38 78.83 629.1 82.65 629.1 87.75 630.38 90.3 M643.13 64.8 648.22 64.8 M638.03 115.2 632.92 133.05 631.65 138.15 631.65 140.7 632.92 141.98 636.75 141.98 639.3 139.43 640.58 136.88 M639.3 115.2 634.2 133.05 632.92 138.15 632.92 140.7 634.2 141.98 M632.92 133.05 632.92 129.23 631.65 125.4 629.1 124.13 626.55 124.13 622.73 125.4 620.17 129.23 618.9 133.05 618.9 136.88 620.17 139.43 621.45 140.7 624 141.98 626.55 141.98 629.1 140.7 631.65 136.88 632.92 133.05 M626.55 124.13 624 125.4 621.45 129.23 620.17 133.05 620.17 138.15 621.45 140.7 M634.2 115.2 639.3 115.2 M653.33 115.2 648.23 133.05 646.95 138.15 646.95 140.7 648.23 141.98 652.05 141.98 654.6 139.43 655.88 136.88 M654.6 115.2 649.5 133.05 648.23 138.15 648.23 140.7 649.5 141.98 M645.68 124.13 657.15 124.13 M665.7 81.3 665.7 129.3 M688.2 87.3 688.2 118.8 M689.7 87.3 689.7 118.8 M674.7 97.8 676.2 96.3 679.2 97.8 680.7 103.8 682.2 106.8 683.7 108.3 686.7 109.8 M676.2 96.3 677.7 97.8 679.2 103.8 680.7 106.8 682.2 108.3 686.7 109.8 691.2 109.8 695.7 108.3 697.2 106.8 698.7 103.8 700.2 97.8 701.7 96.3 M691.2 109.8 694.2 108.3 695.7 106.8 697.2 103.8 698.7 97.8 701.7 96.3 703.2 97.8 M683.7 87.3 694.2 87.3 M683.7 118.8 694.2 118.8 M722.7 81.3 719.7 84.3 716.7 88.8 713.7 94.8 712.2 102.3 712.2 108.3 713.7 115.8 716.7 121.8 719.7 126.3 722.7 129.3 M719.7 84.3 716.7 90.3 715.2 94.8 713.7 102.3 713.7 108.3 715.2 115.8 716.7 120.3 719.7 126.3 M740.7 87.3 734.7 108.3 733.2 114.3 733.2 117.3 734.7 118.8 739.2 118.8 742.2 115.8 743.7 112.8 M742.2 87.3 736.2 108.3 734.7 114.3 734.7 117.3 736.2 118.8 M731.7 97.8 745.2 97.8 M752.7 81.3 755.7 84.3 758.7 88.8 761.7 94.8 763.2 102.3 763.2 108.3 761.7 115.8 758.7 121.8 755.7 126.3 752.7 129.3 M755.7 84.3 758.7 90.3 760.2 94.8 761.7 102.3 761.7 108.3 760.2 115.8 758.7 120.3 755.7 126.3 M775.2 81.3 785.7 105.3 775.2 129.3 "/></svg>