<svg 
      xmlns="http://www.w3.org/2000/svg" 
      width="800" height="80"
      viewBox="0 0 957.5 96"
      fill="none" stroke="black" stroke-width="2" 
      stroke-linecap="round" stroke-linejoin="round"
    ><rect x="0" y="0" width="957.5000000000002" height="96" fill="white" stroke="none"></rect><path d="M58.5 33 57 31.5 58.5 30 60 31.5 60 34.5 58.5 37.5 55.5 37.5 49.5 34.5 45 33 39 33 33 34.5 30 37.5 M54 36 49.5 33 45 31.5 39 31.5 34.5 33 M60 34.5 58.5 36 55.5 36 49.5 31.5 45 30 39 30 34.5 31.5 31.5 34.5 30 37.5 28.5 42 28.5 48 30 52.5 31.5 55.5 34.5 58.5 37.5 60 42 61.5 48 61.5 52.5 60 55.5 58.5 58.5 55.5 60 51 60 46.5 58.5 43.5 55.5 42 51 42 48 43.5 45 48 42 49.5 39 49.5 M34.5 57 37.5 58.5 42 60 48 60 54 58.5 M30 52.5 33 55.5 36 57 40.5 58.5 48 58.5 54 57 57 55.5 58.5 54 60 51 M52.5 43.5 51 43.5 45 49.5 43.5 49.5 M60 46.5 57 43.5 54 43.5 51 45 48 49.5 45 51 42 51 39 49.5 37.5 46.5 37.5 43.5 39 40.5 42 39 M72 36 69 39 69 42 70.5 46.5 70.5 57 67.5 60 M70.5 58.5 72 69 M70.5 40.5 70.5 42 72 46.5 72 61.5 M70.5 37.5 70.5 39 72 42 73.5 46.5 73.5 57 75 57 78 58.5 79.5 60 M73.5 58.5 72 69 M78 60 75 58.5 M79.5 60 76.5 61.5 73.5 58.5 M70.5 58.5 67.5 60 M73.5 45 82.5 40.5 84 43.5 85.5 48 85.5 52.5 84 57 82.5 58.5 79.5 60 M81 42 82.5 43.5 84 46.5 M79.5 42 82.5 45 84 49.5 84 52.5 82.5 57 79.5 60 M93 33 94.5 34.5 96 37.5 M105 30 100.5 31.5 97.5 34.5 96 37.5 96 57 94.5 58.5 M99 34.5 97.5 37.5 97.5 58.5 99 60 M105 30 102 31.5 100.5 33 99 37.5 99 57 100.5 58.5 102 58.5 M94.5 58.5 97.5 60 99 61.5 103.5 57 M99 45 108 40.5 109.5 43.5 111 49.5 111 55.5 109.5 60 108 63 105 66 100.5 69 M106.5 42 108 43.5 109.5 48 M105 42 108 46.5 109.5 51 109.5 55.5 108 61.5 105 66 M123 30 121.5 31.5 121.5 33 123 34.5 124.5 33 124.5 31.5 123 30 M121.5 31.5 124.5 33 M121.5 33 124.5 31.5 M118.5 43.5 120 43.5 121.5 45 121.5 58.5 124.5 61.5 129 57 M120 42 123 43.5 123 57 126 60 M117 45 121.5 40.5 123 42 126 43.5 M124.5 45 126 43.5 M124.5 45 124.5 57 126 58.5 127.5 58.5 M133.5 43.5 135 43.5 136.5 45 136.5 57 135 58.5 138 61.5 M135 42 138 45 138 57 136.5 58.5 138 60 139.5 58.5 138 57 M132 45 136.5 40.5 139.5 43.5 139.5 57 141 58.5 138 61.5 M144 42 145.5 43.5 148.5 45 148.5 58.5 151.5 61.5 156 57 M145.5 42 150 45 150 57 153 60 M139.5 45 144 42 147 40.5 148.5 42 151.5 43.5 153 43.5 M151.5 45 153 43.5 M151.5 45 151.5 57 153 58.5 154.5 58.5 M163.5 43.5 165 43.5 166.5 45 166.5 57 165 57 162 58.5 160.5 61.5 160.5 64.5 162 67.5 165 69 169.5 69 174 67.5 174 66 172.5 66 172.5 67.5 M165 42 168 45 168 57 172.5 60 M162 45 166.5 40.5 169.5 43.5 169.5 57 172.5 58.5 174 60 M177 58.5 171 61.5 169.5 60 166.5 58.5 163.5 58.5 160.5 61.5 M172.5 42 174 45 177 43.5 175.5 40.5 169.5 43.5 M174 42 175.5 43.5 M206.83 40.5 202.33 42 199.33 46.5 197.83 51 197.83 55.5 199.33 58.5 200.83 60 203.83 61.5 206.83 61.5 211.33 60 214.33 55.5 215.83 51 215.83 46.5 214.33 43.5 212.83 42 209.83 40.5 206.83 40.5 M206.83 40.5 203.83 42 200.83 46.5 199.33 51 199.33 57 200.83 60 M206.83 61.5 209.83 60 212.83 55.5 214.33 51 214.33 45 212.83 42 M242.83 31.5 241.33 33 242.83 34.5 244.33 33 244.33 31.5 242.83 30 239.83 30 236.83 31.5 235.33 33 233.83 36 232.33 40.5 227.83 61.5 226.33 67.5 224.83 70.5 M239.83 30 236.83 33 235.33 36 233.83 42 230.83 55.5 229.33 61.5 227.83 66 226.33 69 224.83 70.5 221.83 72 218.83 72 217.33 70.5 217.33 69 218.83 67.5 220.33 69 218.83 70.5 M226.33 40.5 241.33 40.5 M263.67 30 263.67 61.5 M265.17 31.5 265.17 60 M266.67 30 266.67 61.5 M259.17 30 277.17 30 281.67 31.5 283.17 33 284.67 36 284.67 39 283.17 42 281.67 43.5 277.17 45 M281.67 33 283.17 36 283.17 39 281.67 42 M277.17 30 280.17 31.5 281.67 34.5 281.67 40.5 280.17 43.5 277.17 45 M266.67 45 277.17 45 281.67 46.5 283.17 48 284.67 51 284.67 55.5 283.17 58.5 281.67 60 277.17 61.5 259.17 61.5 M281.67 48 283.17 51 283.17 55.5 281.67 58.5 M277.17 45 280.17 46.5 281.67 49.5 281.67 57 280.17 60 277.17 61.5 M260.67 30 263.67 31.5 M262.17 30 263.67 33 M268.17 30 266.67 33 M269.67 30 266.67 31.5 M263.67 60 260.67 61.5 M263.67 58.5 262.17 61.5 M266.67 58.5 268.17 61.5 M266.67 60 269.67 61.5 M296.67 30 296.67 61.5 M298.17 31.5 298.17 60 M292.17 30 299.67 30 299.67 61.5 M292.17 61.5 304.17 61.5 M293.67 30 296.67 31.5 M295.17 30 296.67 33 M296.67 60 293.67 61.5 M296.67 58.5 295.17 61.5 M299.67 58.5 301.17 61.5 M299.67 60 302.67 61.5 M314.67 45 314.67 43.5 316.17 43.5 316.17 46.5 313.17 46.5 313.17 43.5 314.67 42 317.67 40.5 323.67 40.5 326.67 42 328.17 43.5 329.67 46.5 329.67 57 331.17 60 332.67 61.5 M326.67 43.5 328.17 46.5 328.17 57 329.67 60 M323.67 40.5 325.17 42 326.67 45 326.67 57 328.17 60 332.67 61.5 334.17 61.5 M326.67 48 325.17 49.5 317.67 51 313.17 52.5 311.67 55.5 311.67 57 313.17 60 317.67 61.5 322.17 61.5 325.17 60 326.67 57 M314.67 52.5 313.17 55.5 313.17 57 314.67 60 M325.17 49.5 319.17 51 316.17 52.5 314.67 55.5 314.67 57 316.17 60 317.67 61.5 M359.67 46.5 359.67 45 358.17 45 358.17 48 361.17 48 361.17 45 358.17 42 355.17 40.5 350.67 40.5 346.17 42 343.17 45 341.67 49.5 341.67 52.5 343.17 57 346.17 60 350.67 61.5 353.67 61.5 358.17 60 361.17 57 M344.67 45 343.17 48 343.17 54 344.67 57 M350.67 40.5 347.67 42 346.17 43.5 344.67 48 344.67 54 346.17 58.5 347.67 60 350.67 61.5 M373.17 30 373.17 61.5 M374.67 31.5 374.67 60 M368.67 30 376.17 30 376.17 61.5 M389.67 42 376.17 55.5 M382.17 49.5 392.67 61.5 M382.17 51 391.17 61.5 M380.67 51 389.67 61.5 M385.17 40.5 395.67 40.5 M368.67 61.5 380.67 61.5 M385.17 61.5 395.67 61.5 M370.17 30 373.17 31.5 M371.67 30 373.17 33 M386.67 40.5 389.67 42 M394.17 40.5 389.67 42 M373.17 60 370.17 61.5 M373.17 58.5 371.67 61.5 M376.17 58.5 377.67 61.5 M376.17 60 379.17 61.5 M389.67 58.5 386.67 61.5 M388.17 58.5 394.17 61.5 M431.5 36 431.5 39 430 42 428.5 43.5 425.5 45 422.5 45 421 42 421 39 422.5 34.5 425.5 31.5 430 30 434.5 30 437.5 31.5 439 34.5 439 40.5 437.5 45 434.5 49.5 428.5 55.5 424 58.5 421 60 416.5 61.5 413.5 61.5 412 60 412 57 413.5 55.5 416.5 55.5 419.5 57 424 60 428.5 61.5 433 61.5 436 60 439 57 M434.5 30 436 31.5 437.5 34.5 437.5 40.5 436 45 433 49.5 428.5 54 422.5 58.5 416.5 61.5 M448 48 445 57 445 60 448 61.5 449.5 61.5 452.5 60 455.5 57 458.5 52.5 M449.5 48 446.5 57 446.5 60 448 61.5 M460 48 457 57 457 60 460 61.5 463 60 464.5 58.5 467.5 54 M461.5 48 458.5 57 458.5 60 460 61.5 M482.5 52.5 481 49.5 478 48 475 48 472 49.5 470.5 51 469 54 469 57 470.5 60 473.5 61.5 476.5 61.5 479.5 60 481 57 M475 48 472 51 470.5 54 470.5 58.5 473.5 61.5 M484 48 481 57 481 60 484 61.5 487 60 488.5 58.5 491.5 54 M485.5 48 482.5 57 482.5 60 484 61.5 M491.5 54 494.5 49.5 497.5 48 500.5 49.5 500.5 52.5 497.5 61.5 M497.5 48 499 49.5 499 52.5 496 61.5 M500.5 52.5 503.5 49.5 506.5 48 508 48 506.5 52.5 M506.5 48 506.5 52.5 508 55.5 509.5 55.5 512.5 54 M512.5 54 515.5 49.5 518.5 43.5 M523 30 514 57 514 60 517 61.5 520 60 521.5 58.5 524.5 54 M524.5 30 515.5 57 515.5 60 517 61.5 M515.5 42 524.5 42 M524.5 54 527.5 49.5 530.5 48 533.5 48 536.5 49.5 536.5 54 535 57 530.5 60 527.5 61.5 M533.5 48 535 49.5 535 54 533.5 57 530.5 60 M527.5 61.5 530.5 63 532 66 532 70.5 530.5 75 527.5 78 524.5 79.5 523 78 523 75 524.5 70.5 529 66 533.5 63 539.5 58.5 544 54 M527.5 61.5 529 63 530.5 66 530.5 70.5 529 75 527.5 78 M551.5 61.5 550 60 551.5 58.5 553 60 553 63 551.5 66 550 67.5 M590.33 30 590.33 54 588.83 58.5 585.83 60 582.83 60 579.83 58.5 578.33 54 576.83 54 M590.33 30 591.83 30 591.83 54 590.33 58.5 588.83 60 585.83 61.5 582.83 61.5 579.83 60 578.33 58.5 576.83 54 M603.83 40.5 603.83 55.5 605.33 60 608.33 61.5 612.83 61.5 615.83 60 620.33 55.5 M603.83 40.5 605.33 40.5 605.33 55.5 606.83 58.5 609.83 60 612.83 60 615.83 58.5 620.33 55.5 M620.33 40.5 620.33 61.5 621.83 61.5 M620.33 40.5 621.83 40.5 621.83 61.5 M650.33 30 650.33 61.5 651.83 61.5 M650.33 30 651.83 30 651.83 61.5 M650.33 45 647.33 42 644.33 40.5 639.83 40.5 636.83 42 633.83 45 632.33 49.5 632.33 52.5 633.83 57 636.83 60 639.83 61.5 644.33 61.5 647.33 60 650.33 57 M650.33 45 644.33 42 639.83 42 636.83 43.5 635.33 45 633.83 49.5 633.83 52.5 635.33 57 636.83 58.5 639.83 60 644.33 60 650.33 57 M681.83 40.5 680.33 40.5 680.33 63 678.83 67.5 677.33 69 674.33 70.5 671.33 70.5 668.33 69 666.83 67.5 663.83 67.5 M681.83 40.5 681.83 63 680.33 67.5 677.33 70.5 674.33 72 669.83 72 666.83 70.5 663.83 67.5 M680.33 45 677.33 42 674.33 40.5 669.83 40.5 666.83 42 663.83 45 662.33 49.5 662.33 52.5 663.83 57 666.83 60 669.83 61.5 674.33 61.5 677.33 60 680.33 57 M680.33 45 674.33 42 669.83 42 666.83 43.5 665.33 45 663.83 49.5 663.83 52.5 665.33 57 666.83 58.5 669.83 60 674.33 60 680.33 57 M693.83 51 710.33 51 710.33 46.5 708.83 43.5 707.33 42 704.33 40.5 699.83 40.5 696.83 42 693.83 45 692.33 49.5 692.33 52.5 693.83 57 696.83 60 699.83 61.5 704.33 61.5 707.33 60 710.33 57 M693.83 49.5 708.83 49.5 708.83 46.5 707.33 43.5 704.33 42 699.83 42 696.83 43.5 695.33 45 693.83 49.5 693.83 52.5 695.33 57 696.83 58.5 699.83 60 704.33 60 707.33 58.5 708.83 55.5 710.33 57 M729.67 46.5 731.17 43.5 734.17 40.5 738.67 40.5 740.17 42 740.17 45 738.67 51 735.67 61.5 M737.17 40.5 738.67 42 738.67 45 737.17 51 734.17 61.5 M738.67 51 741.67 45 744.67 42 747.67 40.5 750.67 40.5 753.67 42 755.17 43.5 755.17 46.5 750.67 61.5 M750.67 40.5 753.67 43.5 753.67 46.5 749.17 61.5 M753.67 51 756.67 45 759.67 42 762.67 40.5 765.67 40.5 768.67 42 770.17 43.5 770.17 46.5 767.17 55.5 767.17 60 768.67 61.5 M765.67 40.5 768.67 43.5 768.67 46.5 765.67 55.5 765.67 60 767.17 61.5 771.67 61.5 774.67 58.5 776.17 55.5 M779.17 46.5 780.67 43.5 783.67 40.5 788.17 40.5 789.67 42 789.67 46.5 786.67 55.5 786.67 58.5 789.67 61.5 M786.67 40.5 788.17 42 788.17 46.5 785.17 55.5 785.17 58.5 786.67 60 789.67 61.5 792.67 61.5 795.67 60 798.67 57 801.67 51 M806.17 40.5 800.17 61.5 798.67 66 795.67 70.5 791.17 72 786.67 72 783.67 70.5 782.17 69 782.17 67.5 783.67 66 785.17 67.5 783.67 69 M804.67 40.5 798.67 61.5 797.17 66 794.17 70.5 791.17 72 M827 30 837.5 61.5 M828.5 30 837.5 57 M848 30 837.5 61.5 M824 30 833 30 M842 30 851 30 M866 40.5 861.5 42 858.5 45 857 49.5 857 52.5 858.5 57 861.5 60 866 61.5 869 61.5 873.5 60 876.5 57 878 52.5 878 49.5 876.5 45 873.5 42 869 40.5 866 40.5 M866 40.5 863 42 860 45 858.5 49.5 858.5 52.5 860 57 863 60 866 61.5 M869 61.5 872 60 875 57 876.5 52.5 876.5 49.5 875 45 872 42 869 40.5 M888.5 40.5 894.5 61.5 M890 40.5 894.5 57 M900.5 40.5 894.5 61.5 M900.5 40.5 906.5 61.5 M902 40.5 906.5 57 M912.5 40.5 906.5 61.5 M884 40.5 894.5 40.5 M908 40.5 917 40.5 M926 30 924.5 33 926 51 927.5 33 926 30 M926 33 926 42 M926 58.5 924.5 60 926 61.5 927.5 60 926 58.5 "/></svg>