<svg 
      xmlns="http://www.w3.org/2000/svg" 
      width="470.68125000000003" height="162"
      fill="none" stroke="black" stroke-width="2" 
      stroke-linecap="round" stroke-linejoin="round"
    >
      <defs>
    <linearGradient id="myGradient" gradientTransform="rotate(80)">
      <stop offset="5%"  stop-color="black" />
      <stop offset="95%" stop-color="maroon" />
    </linearGradient>

  </defs>

    <style>

.path {
  stroke-dasharray: 100;
  animation: dash 1s linear alternate infinite;
}

@keyframes dash {
  from {
    stroke-dashoffset: 200;
  }
  to {
    stroke-dashoffset: 0;
  }
}
    </style>
    
    <rect x="0" y="0" width="470.68125000000003" height="162" fill="antiquewhite" stroke="none"></rect>
    <path stroke="rgba(0,0,0,0.1)" d="M46.5 65.7 45 67.2 46.5 68.7 48 67.2 48 65.7 46.5 64.2 43.5 64.2 40.5 65.7 39 67.2 37.5 70.2 36 74.7 31.5 95.7 30 101.7 28.5 104.7 M43.5 64.2 40.5 67.2 39 70.2 37.5 76.2 34.5 89.7 33 95.7 31.5 100.2 30 103.2 28.5 104.7 25.5 106.2 22.5 106.2 21 104.7 21 103.2 22.5 101.7 24 103.2 22.5 104.7 M30 74.7 45 74.7 M63 58.2 60 61.2 57 65.7 54 71.7 52.5 79.2 52.5 85.2 54 92.7 57 98.7 60 103.2 63 106.2 M60 61.2 57 67.2 55.5 71.7 54 79.2 54 85.2 55.5 92.7 57 97.2 60 103.2 M72 80.7 75 76.2 78 74.7 82.5 74.7 84 77.7 84 82.2 M81 74.7 82.5 77.7 82.5 82.2 81 88.2 79.5 91.2 76.5 94.2 73.5 95.7 72 95.7 70.5 94.2 70.5 92.7 72 91.2 73.5 92.7 72 94.2 M81 88.2 81 92.7 82.5 95.7 87 95.7 90 94.2 93 89.7 M93 76.2 91.5 77.7 93 79.2 94.5 77.7 94.5 76.2 93 74.7 91.5 74.7 88.5 76.2 85.5 79.2 84 82.2 82.5 88.2 82.5 92.7 84 95.7 M102 58.2 105 61.2 108 65.7 111 71.7 112.5 79.2 112.5 85.2 111 92.7 108 98.7 105 103.2 102 106.2 M105 61.2 108 67.2 109.5 71.7 111 79.2 111 85.2 109.5 92.7 108 97.2 105 103.2 M124.5 77.7 151.5 77.7 M124.5 86.7 151.5 86.7 M157.5 82.2 256.95 82.2 M202.13 46.8 204.68 45.53 208.5 41.7 208.5 68.47 M207.23 42.98 207.23 68.47 M202.13 68.47 213.6 68.47 M162.6 107.4 163.88 108.68 162.6 109.95 161.32 108.68 161.32 107.4 162.6 104.85 163.88 103.57 167.7 102.3 172.8 102.3 176.63 103.57 177.9 104.85 179.18 107.4 179.18 109.95 177.9 112.5 174.08 115.05 167.7 117.6 165.15 118.88 162.6 121.43 161.32 125.25 161.32 129.07 M172.8 102.3 175.35 103.57 176.63 104.85 177.9 107.4 177.9 109.95 176.63 112.5 172.8 115.05 167.7 117.6 M161.32 126.53 162.6 125.25 165.15 125.25 171.52 127.8 175.35 127.8 177.9 126.53 179.18 125.25 M165.15 125.25 171.52 129.07 176.63 129.07 177.9 127.8 179.18 125.25 179.18 122.7 M183 118.53 186.4 118.53 192.52 135.22 M185.72 119.92 192.52 138 M203.4 92.1 192.52 138 M203.4 92.1 256.95 92.1 M208.5 107.4 209.77 108.68 208.5 109.95 207.23 108.68 207.23 107.4 208.5 104.85 209.77 103.57 213.6 102.3 218.7 102.3 222.52 103.57 223.8 104.85 225.08 107.4 225.08 109.95 223.8 112.5 219.98 115.05 213.6 117.6 211.05 118.88 208.5 121.43 207.23 125.25 207.23 129.07 M218.7 102.3 221.25 103.57 222.52 104.85 223.8 107.4 223.8 109.95 222.52 112.5 218.7 115.05 213.6 117.6 M207.23 126.53 208.5 125.25 211.05 125.25 217.43 127.8 221.25 127.8 223.8 126.53 225.08 125.25 M211.05 125.25 217.43 129.07 222.52 129.07 223.8 127.8 225.08 125.25 225.08 122.7 M240.38 112.5 235.27 129.07 M240.38 112.5 236.55 129.07 M248.02 112.5 248.02 129.07 M248.02 112.5 249.3 129.07 M231.45 115.05 234 112.5 237.83 111.23 254.4 111.23 M231.45 115.05 234 113.78 237.83 112.5 254.4 112.5 M262.95 88.2 268.95 86.7 273.45 85.2 277.95 82.2 279.45 79.2 277.95 76.2 274.95 74.7 270.45 74.7 265.95 76.2 262.95 80.7 261.45 85.2 261.45 89.7 262.95 92.7 264.45 94.2 267.45 95.7 270.45 95.7 274.95 94.2 277.95 91.2 M270.45 74.7 267.45 76.2 264.45 80.7 262.95 85.2 262.95 91.2 264.45 94.2 M288.45 58.2 308.7 58.2 M313.2 58.2 332.33 58.2 M318.94 31.65 320.85 30.69 323.72 27.83 323.72 47.91 M322.76 28.78 322.76 47.91 M318.94 47.91 327.54 47.91 M317.03 69.45 317.98 70.41 317.03 71.36 316.07 70.41 316.07 69.45 317.03 67.54 317.98 66.58 320.85 65.63 324.68 65.63 327.54 66.58 328.5 67.54 329.46 69.45 329.46 71.36 328.5 73.28 325.63 75.19 320.85 77.1 318.94 78.06 317.03 79.97 316.07 82.84 316.07 85.71 M324.68 65.63 326.59 66.58 327.54 67.54 328.5 69.45 328.5 71.36 327.54 73.28 324.68 75.19 320.85 77.1 M316.07 83.79 317.03 82.84 318.94 82.84 323.72 84.75 326.59 84.75 328.5 83.79 329.46 82.84 M318.94 82.84 323.72 85.71 327.54 85.71 328.5 84.75 329.46 82.84 329.46 80.93 M344.7 40.2 342.45 42.45 340.2 45.83 337.95 50.33 336.83 55.95 336.83 60.45 337.95 66.07 340.2 70.57 342.45 73.95 344.7 76.2 M342.45 42.45 340.2 46.95 339.08 50.33 337.95 55.95 337.95 60.45 339.08 66.07 340.2 69.45 342.45 73.95 M348.08 58.2 414.06 58.2 M350.94 38.34 352.86 35.48 354.77 34.52 357.64 34.52 358.59 36.43 358.59 39.3 M356.68 34.52 357.64 36.43 357.64 39.3 356.68 43.13 355.73 45.04 353.81 46.95 351.9 47.91 350.94 47.91 349.99 46.95 349.99 45.99 350.94 45.04 351.9 45.99 350.94 46.95 M356.68 43.13 356.68 45.99 357.64 47.91 360.51 47.91 362.42 46.95 364.33 44.08 M364.33 35.48 363.38 36.43 364.33 37.39 365.29 36.43 365.29 35.48 364.33 34.52 363.38 34.52 361.46 35.48 359.55 37.39 358.59 39.3 357.64 43.13 357.64 45.99 358.59 47.91 M371.03 39.3 388.24 39.3 M398.76 34.52 393.02 54.6 M399.71 34.52 393.98 54.6 M398.76 37.39 397.8 43.13 397.8 45.99 399.71 47.91 401.63 47.91 403.54 46.95 405.45 45.04 407.36 42.17 M409.28 34.52 406.41 45.04 406.41 46.95 407.36 47.91 410.23 47.91 412.14 45.99 413.1 44.08 M410.23 34.52 407.36 45.04 407.36 46.95 408.32 47.91 M389.19 72.32 379.63 72.32 376.76 73.28 374.85 76.14 373.89 79.01 373.89 81.88 374.85 83.79 375.81 84.75 377.72 85.71 379.63 85.71 382.5 84.75 384.41 81.88 385.37 79.01 385.37 76.14 384.41 74.23 383.46 73.28 381.54 72.32 M379.63 72.32 377.72 73.28 375.81 76.14 374.85 79.01 374.85 82.84 375.81 84.75 M379.63 85.71 381.54 84.75 383.46 81.88 384.41 79.01 384.41 75.19 383.46 73.28 M383.46 73.28 389.19 73.28 M417.43 40.2 419.68 42.45 421.93 45.83 424.18 50.33 425.31 55.95 425.31 60.45 424.18 66.07 421.93 70.57 419.68 73.95 417.43 76.2 M419.68 42.45 421.93 46.95 423.06 50.33 424.18 55.95 424.18 60.45 423.06 66.07 421.93 69.45 419.68 73.95 M433.18 33.45 434.03 34.29 433.18 35.14 432.34 34.29 432.34 33.45 433.18 31.76 434.03 30.92 436.56 30.08 439.93 30.08 442.46 30.92 443.31 31.76 444.15 33.45 444.15 35.14 443.31 36.83 440.78 38.51 436.56 40.2 434.87 41.04 433.18 42.73 432.34 45.26 432.34 47.79 M439.93 30.08 441.62 30.92 442.46 31.76 443.31 33.45 443.31 35.14 442.46 36.83 439.93 38.51 436.56 40.2 M432.34 46.11 433.18 45.26 434.87 45.26 439.09 46.95 441.62 46.95 443.31 46.11 444.15 45.26 M434.87 45.26 439.09 47.79 442.46 47.79 443.31 46.95 444.15 45.26 444.15 43.58 "/>

    <path stroke="url('#myGradient')" class="path" d="M46.5 65.7 45 67.2 46.5 68.7 48 67.2 48 65.7 46.5 64.2 43.5 64.2 40.5 65.7 39 67.2 37.5 70.2 36 74.7 31.5 95.7 30 101.7 28.5 104.7 M43.5 64.2 40.5 67.2 39 70.2 37.5 76.2 34.5 89.7 33 95.7 31.5 100.2 30 103.2 28.5 104.7 25.5 106.2 22.5 106.2 21 104.7 21 103.2 22.5 101.7 24 103.2 22.5 104.7 M30 74.7 45 74.7 M63 58.2 60 61.2 57 65.7 54 71.7 52.5 79.2 52.5 85.2 54 92.7 57 98.7 60 103.2 63 106.2 M60 61.2 57 67.2 55.5 71.7 54 79.2 54 85.2 55.5 92.7 57 97.2 60 103.2 M72 80.7 75 76.2 78 74.7 82.5 74.7 84 77.7 84 82.2 M81 74.7 82.5 77.7 82.5 82.2 81 88.2 79.5 91.2 76.5 94.2 73.5 95.7 72 95.7 70.5 94.2 70.5 92.7 72 91.2 73.5 92.7 72 94.2 M81 88.2 81 92.7 82.5 95.7 87 95.7 90 94.2 93 89.7 M93 76.2 91.5 77.7 93 79.2 94.5 77.7 94.5 76.2 93 74.7 91.5 74.7 88.5 76.2 85.5 79.2 84 82.2 82.5 88.2 82.5 92.7 84 95.7 M102 58.2 105 61.2 108 65.7 111 71.7 112.5 79.2 112.5 85.2 111 92.7 108 98.7 105 103.2 102 106.2 M105 61.2 108 67.2 109.5 71.7 111 79.2 111 85.2 109.5 92.7 108 97.2 105 103.2 M124.5 77.7 151.5 77.7 M124.5 86.7 151.5 86.7 M157.5 82.2 256.95 82.2 M202.13 46.8 204.68 45.53 208.5 41.7 208.5 68.47 M207.23 42.98 207.23 68.47 M202.13 68.47 213.6 68.47 M162.6 107.4 163.88 108.68 162.6 109.95 161.32 108.68 161.32 107.4 162.6 104.85 163.88 103.57 167.7 102.3 172.8 102.3 176.63 103.57 177.9 104.85 179.18 107.4 179.18 109.95 177.9 112.5 174.08 115.05 167.7 117.6 165.15 118.88 162.6 121.43 161.32 125.25 161.32 129.07 M172.8 102.3 175.35 103.57 176.63 104.85 177.9 107.4 177.9 109.95 176.63 112.5 172.8 115.05 167.7 117.6 M161.32 126.53 162.6 125.25 165.15 125.25 171.52 127.8 175.35 127.8 177.9 126.53 179.18 125.25 M165.15 125.25 171.52 129.07 176.63 129.07 177.9 127.8 179.18 125.25 179.18 122.7 M183 118.53 186.4 118.53 192.52 135.22 M185.72 119.92 192.52 138 M203.4 92.1 192.52 138 M203.4 92.1 256.95 92.1 M208.5 107.4 209.77 108.68 208.5 109.95 207.23 108.68 207.23 107.4 208.5 104.85 209.77 103.57 213.6 102.3 218.7 102.3 222.52 103.57 223.8 104.85 225.08 107.4 225.08 109.95 223.8 112.5 219.98 115.05 213.6 117.6 211.05 118.88 208.5 121.43 207.23 125.25 207.23 129.07 M218.7 102.3 221.25 103.57 222.52 104.85 223.8 107.4 223.8 109.95 222.52 112.5 218.7 115.05 213.6 117.6 M207.23 126.53 208.5 125.25 211.05 125.25 217.43 127.8 221.25 127.8 223.8 126.53 225.08 125.25 M211.05 125.25 217.43 129.07 222.52 129.07 223.8 127.8 225.08 125.25 225.08 122.7 M240.38 112.5 235.27 129.07 M240.38 112.5 236.55 129.07 M248.02 112.5 248.02 129.07 M248.02 112.5 249.3 129.07 M231.45 115.05 234 112.5 237.83 111.23 254.4 111.23 M231.45 115.05 234 113.78 237.83 112.5 254.4 112.5 M262.95 88.2 268.95 86.7 273.45 85.2 277.95 82.2 279.45 79.2 277.95 76.2 274.95 74.7 270.45 74.7 265.95 76.2 262.95 80.7 261.45 85.2 261.45 89.7 262.95 92.7 264.45 94.2 267.45 95.7 270.45 95.7 274.95 94.2 277.95 91.2 M270.45 74.7 267.45 76.2 264.45 80.7 262.95 85.2 262.95 91.2 264.45 94.2 M288.45 58.2 308.7 58.2 M313.2 58.2 332.33 58.2 M318.94 31.65 320.85 30.69 323.72 27.83 323.72 47.91 M322.76 28.78 322.76 47.91 M318.94 47.91 327.54 47.91 M317.03 69.45 317.98 70.41 317.03 71.36 316.07 70.41 316.07 69.45 317.03 67.54 317.98 66.58 320.85 65.63 324.68 65.63 327.54 66.58 328.5 67.54 329.46 69.45 329.46 71.36 328.5 73.28 325.63 75.19 320.85 77.1 318.94 78.06 317.03 79.97 316.07 82.84 316.07 85.71 M324.68 65.63 326.59 66.58 327.54 67.54 328.5 69.45 328.5 71.36 327.54 73.28 324.68 75.19 320.85 77.1 M316.07 83.79 317.03 82.84 318.94 82.84 323.72 84.75 326.59 84.75 328.5 83.79 329.46 82.84 M318.94 82.84 323.72 85.71 327.54 85.71 328.5 84.75 329.46 82.84 329.46 80.93 M344.7 40.2 342.45 42.45 340.2 45.83 337.95 50.33 336.83 55.95 336.83 60.45 337.95 66.07 340.2 70.57 342.45 73.95 344.7 76.2 M342.45 42.45 340.2 46.95 339.08 50.33 337.95 55.95 337.95 60.45 339.08 66.07 340.2 69.45 342.45 73.95 M348.08 58.2 414.06 58.2 M350.94 38.34 352.86 35.48 354.77 34.52 357.64 34.52 358.59 36.43 358.59 39.3 M356.68 34.52 357.64 36.43 357.64 39.3 356.68 43.13 355.73 45.04 353.81 46.95 351.9 47.91 350.94 47.91 349.99 46.95 349.99 45.99 350.94 45.04 351.9 45.99 350.94 46.95 M356.68 43.13 356.68 45.99 357.64 47.91 360.51 47.91 362.42 46.95 364.33 44.08 M364.33 35.48 363.38 36.43 364.33 37.39 365.29 36.43 365.29 35.48 364.33 34.52 363.38 34.52 361.46 35.48 359.55 37.39 358.59 39.3 357.64 43.13 357.64 45.99 358.59 47.91 M371.03 39.3 388.24 39.3 M398.76 34.52 393.02 54.6 M399.71 34.52 393.98 54.6 M398.76 37.39 397.8 43.13 397.8 45.99 399.71 47.91 401.63 47.91 403.54 46.95 405.45 45.04 407.36 42.17 M409.28 34.52 406.41 45.04 406.41 46.95 407.36 47.91 410.23 47.91 412.14 45.99 413.1 44.08 M410.23 34.52 407.36 45.04 407.36 46.95 408.32 47.91 M389.19 72.32 379.63 72.32 376.76 73.28 374.85 76.14 373.89 79.01 373.89 81.88 374.85 83.79 375.81 84.75 377.72 85.71 379.63 85.71 382.5 84.75 384.41 81.88 385.37 79.01 385.37 76.14 384.41 74.23 383.46 73.28 381.54 72.32 M379.63 72.32 377.72 73.28 375.81 76.14 374.85 79.01 374.85 82.84 375.81 84.75 M379.63 85.71 381.54 84.75 383.46 81.88 384.41 79.01 384.41 75.19 383.46 73.28 M383.46 73.28 389.19 73.28 M417.43 40.2 419.68 42.45 421.93 45.83 424.18 50.33 425.31 55.95 425.31 60.45 424.18 66.07 421.93 70.57 419.68 73.95 417.43 76.2 M419.68 42.45 421.93 46.95 423.06 50.33 424.18 55.95 424.18 60.45 423.06 66.07 421.93 69.45 419.68 73.95 M433.18 33.45 434.03 34.29 433.18 35.14 432.34 34.29 432.34 33.45 433.18 31.76 434.03 30.92 436.56 30.08 439.93 30.08 442.46 30.92 443.31 31.76 444.15 33.45 444.15 35.14 443.31 36.83 440.78 38.51 436.56 40.2 434.87 41.04 433.18 42.73 432.34 45.26 432.34 47.79 M439.93 30.08 441.62 30.92 442.46 31.76 443.31 33.45 443.31 35.14 442.46 36.83 439.93 38.51 436.56 40.2 M432.34 46.11 433.18 45.26 434.87 45.26 439.09 46.95 441.62 46.95 443.31 46.11 444.15 45.26 M434.87 45.26 439.09 47.79 442.46 47.79 443.31 46.95 444.15 45.26 444.15 43.58 "/>
        
    </svg>