<svg 
      xmlns="http://www.w3.org/2000/svg" 
      width="800" height="168"
      fill="none" stroke="black" stroke-width="2" 
      stroke-linecap="round" stroke-linejoin="round"
    ><rect x="0" y="0" width="800" height="168" fill="white" stroke="none"></rect><path d="M63 28.62 61.5 28.62 60 30.15 60 31.69 61.5 33.23 63 33.23 64.5 31.69 64.5 28.62 63 25.54 60 24 57 24 54 25.54 51 28.62 49.5 31.69 48 36.31 46.5 47.08 45 71.69 45 120.92 43.5 134.77 42 139.38 M61.5 30.15 61.5 31.69 63 31.69 63 30.15 61.5 30.15 M46.5 47.08 46.5 120.92 M51 28.62 49.5 33.23 48 47.08 48 96.31 46.5 120.92 45 131.69 43.5 136.31 42 139.38 39 142.46 36 144 33 144 30 142.46 28.5 139.38 28.5 136.31 30 134.77 31.5 134.77 33 136.31 33 137.85 31.5 139.38 30 139.38 M30 136.31 30 137.85 31.5 137.85 31.5 136.31 30 136.31 M70.5 82.5 72 79.5 75 76.5 79.5 76.5 81 78 81 82.5 78 91.5 78 94.5 81 97.5 M78 76.5 79.5 78 79.5 82.5 76.5 91.5 76.5 94.5 78 96 81 97.5 84 97.5 87 96 90 93 93 87 M96 76.5 93 87 91.5 93 91.5 96 93 97.5 97.5 97.5 100.5 94.5 102 91.5 M97.5 76.5 94.5 87 93 93 93 96 94.5 97.5 M103.5 84 155.77 84 M122.63 43.5 122.63 70.28 M123.9 43.5 123.9 70.28 M122.63 56.25 120.07 53.7 117.53 52.43 114.98 52.43 111.15 53.7 108.6 56.25 107.32 60.08 107.32 62.63 108.6 66.45 111.15 69 114.98 70.28 117.53 70.28 120.07 69 122.63 66.45 M114.98 52.43 112.43 53.7 109.88 56.25 108.6 60.08 108.6 62.63 109.88 66.45 112.43 69 114.98 70.28 M118.8 43.5 123.9 43.5 M122.63 70.28 127.73 70.28 M131.55 57.53 132.82 54.98 135.38 52.43 139.2 52.43 140.48 53.7 140.48 57.53 137.92 65.18 137.92 67.72 140.48 70.28 M137.92 52.43 139.2 53.7 139.2 57.53 136.65 65.18 136.65 67.72 137.92 69 140.48 70.28 141.75 70.28 145.57 69 148.13 66.45 150.67 62.63 151.95 57.53 151.95 52.43 150.67 52.43 151.95 54.98 M122.63 93.9 122.63 120.68 M123.9 93.9 123.9 120.68 M122.63 106.65 120.07 104.1 117.53 102.83 114.98 102.83 111.15 104.1 108.6 106.65 107.32 110.48 107.32 113.03 108.6 116.85 111.15 119.4 114.98 120.68 117.53 120.68 120.07 119.4 122.63 116.85 M114.98 102.83 112.43 104.1 109.88 106.65 108.6 110.48 108.6 113.03 109.88 116.85 112.43 119.4 114.98 120.68 M118.8 93.9 123.9 93.9 M122.63 120.68 127.73 120.68 M134.1 107.93 136.65 104.1 139.2 102.83 143.02 102.83 144.3 105.38 144.3 109.2 M141.75 102.83 143.02 105.38 143.02 109.2 141.75 114.3 140.48 116.85 137.92 119.4 135.38 120.68 134.1 120.68 132.82 119.4 132.82 118.13 134.1 116.85 135.38 118.13 134.1 119.4 M141.75 114.3 141.75 118.13 143.02 120.68 146.85 120.68 149.4 119.4 151.95 115.58 M151.95 104.1 150.67 105.38 151.95 106.65 153.23 105.38 153.23 104.1 151.95 102.83 150.67 102.83 148.13 104.1 145.57 106.65 144.3 109.2 143.02 114.3 143.02 118.13 144.3 120.68 M186.27 66 186.27 97.5 M187.77 66 187.77 97.5 M186.27 81 183.27 78 180.27 76.5 177.27 76.5 172.77 78 169.77 81 168.27 85.5 168.27 88.5 169.77 93 172.77 96 177.27 97.5 180.27 97.5 183.27 96 186.27 93 M177.27 76.5 174.27 78 171.27 81 169.77 85.5 169.77 88.5 171.27 93 174.27 96 177.27 97.5 M181.77 66 187.77 66 M186.27 97.5 192.27 97.5 M199.77 82.5 202.77 78 205.77 76.5 210.27 76.5 211.77 79.5 211.77 84 M208.77 76.5 210.27 79.5 210.27 84 208.77 90 207.27 93 204.27 96 201.27 97.5 199.77 97.5 198.27 96 198.27 94.5 199.77 93 201.27 94.5 199.77 96 M208.77 90 208.77 94.5 210.27 97.5 214.77 97.5 217.78 96 220.78 91.5 M220.78 78 219.28 79.5 220.78 81 222.28 79.5 222.28 78 220.78 76.5 219.28 76.5 216.28 78 213.27 81 211.77 84 210.27 90 210.27 94.5 211.77 97.5 M231.28 79.5 258.27 79.5 M231.28 88.5 258.27 88.5 M265.77 82.5 267.27 79.5 270.27 76.5 274.77 76.5 276.27 78 276.27 82.5 273.27 91.5 273.27 94.5 276.27 97.5 M273.27 76.5 274.77 78 274.77 82.5 271.77 91.5 271.77 94.5 273.27 96 276.27 97.5 279.27 97.5 282.27 96 285.27 93 288.27 87 M291.27 76.5 288.27 87 286.77 93 286.77 96 288.27 97.5 292.77 97.5 295.77 94.5 297.27 91.5 M292.77 76.5 289.77 87 288.27 93 288.27 96 289.77 97.5 M300.27 82.5 301.77 79.5 304.77 76.5 309.27 76.5 310.77 78 310.77 82.5 307.77 91.5 307.77 94.5 310.77 97.5 M307.77 76.5 309.27 78 309.27 82.5 306.27 91.5 306.27 94.5 307.77 96 310.77 97.5 312.27 97.5 316.77 96 319.77 93 322.77 88.5 324.27 82.5 324.27 76.5 322.77 76.5 324.27 79.5 M334.78 84 361.78 84 M406.78 28.62 405.28 28.62 403.78 30.15 403.78 31.69 405.28 33.23 406.78 33.23 408.28 31.69 408.28 28.62 406.78 25.54 403.78 24 400.78 24 397.78 25.54 394.78 28.62 393.28 31.69 391.78 36.31 390.28 47.08 388.78 71.69 388.78 120.92 387.28 134.77 385.78 139.38 M405.28 30.15 405.28 31.69 406.78 31.69 406.78 30.15 405.28 30.15 M390.28 47.08 390.28 120.92 M394.78 28.62 393.28 33.23 391.78 47.08 391.78 96.31 390.28 120.92 388.78 131.69 387.28 136.31 385.78 139.38 382.78 142.46 379.78 144 376.78 144 373.78 142.46 372.28 139.38 372.28 136.31 373.78 134.77 375.28 134.77 376.78 136.31 376.78 137.85 375.28 139.38 373.78 139.38 M373.78 136.31 373.78 137.85 375.28 137.85 375.28 136.31 373.78 136.31 M412.78 84 468.88 84 M431.9 43.5 431.9 70.28 M433.18 43.5 433.18 70.28 M431.9 56.25 429.35 53.7 426.8 52.43 424.25 52.43 420.43 53.7 417.88 56.25 416.6 60.08 416.6 62.63 417.88 66.45 420.43 69 424.25 70.28 426.8 70.28 429.35 69 431.9 66.45 M424.25 52.43 421.7 53.7 419.15 56.25 417.88 60.08 417.88 62.63 419.15 66.45 421.7 69 424.25 70.28 M428.08 43.5 433.18 43.5 M431.9 70.28 437 70.28 M440.83 57.53 442.1 54.98 444.65 52.43 448.48 52.43 449.75 53.7 449.75 57.53 447.2 65.18 447.2 67.72 449.75 70.28 M447.2 52.43 448.48 53.7 448.48 57.53 445.93 65.18 445.93 67.72 447.2 69 449.75 70.28 452.3 70.28 454.85 69 457.4 66.45 459.95 61.35 M462.5 52.43 459.95 61.35 458.68 66.45 458.68 69 459.95 70.28 463.78 70.28 466.33 67.72 467.6 65.18 M463.78 52.43 461.23 61.35 459.95 66.45 459.95 69 461.23 70.28 M433.81 93.9 433.81 120.68 M435.09 93.9 435.09 120.68 M433.81 106.65 431.26 104.1 428.71 102.83 426.16 102.83 422.34 104.1 419.79 106.65 418.51 110.48 418.51 113.03 419.79 116.85 422.34 119.4 426.16 120.68 428.71 120.68 431.26 119.4 433.81 116.85 M426.16 102.83 423.61 104.1 421.06 106.65 419.79 110.48 419.79 113.03 421.06 116.85 423.61 119.4 426.16 120.68 M429.99 93.9 435.09 93.9 M433.81 120.68 438.91 120.68 M445.29 107.93 447.84 104.1 450.39 102.83 454.21 102.83 455.49 105.38 455.49 109.2 M452.94 102.83 454.21 105.38 454.21 109.2 452.94 114.3 451.66 116.85 449.11 119.4 446.56 120.68 445.29 120.68 444.01 119.4 444.01 118.13 445.29 116.85 446.56 118.13 445.29 119.4 M452.94 114.3 452.94 118.13 454.21 120.68 458.04 120.68 460.59 119.4 463.14 115.58 M463.14 104.1 461.86 105.38 463.14 106.65 464.41 105.38 464.41 104.1 463.14 102.83 461.86 102.83 459.31 104.1 456.76 106.65 455.49 109.2 454.21 114.3 454.21 118.13 455.49 120.68 M470.38 82.5 471.88 79.5 474.88 76.5 479.38 76.5 480.88 78 480.88 82.5 477.88 91.5 477.88 94.5 480.88 97.5 M477.88 76.5 479.38 78 479.38 82.5 476.38 91.5 476.38 94.5 477.88 96 480.88 97.5 482.38 97.5 486.88 96 489.88 93 492.88 88.5 494.38 82.5 494.38 76.5 492.88 76.5 494.38 79.5 M529.38 66 529.38 97.5 M530.88 66 530.88 97.5 M529.38 81 526.38 78 523.38 76.5 520.38 76.5 515.88 78 512.88 81 511.37 85.5 511.37 88.5 512.88 93 515.88 96 520.38 97.5 523.38 97.5 526.38 96 529.38 93 M520.38 76.5 517.38 78 514.38 81 512.88 85.5 512.88 88.5 514.38 93 517.38 96 520.38 97.5 M524.88 66 530.88 66 M529.38 97.5 535.38 97.5 M542.88 82.5 545.88 78 548.88 76.5 553.38 76.5 554.88 79.5 554.88 84 M551.88 76.5 553.38 79.5 553.38 84 551.88 90 550.38 93 547.38 96 544.38 97.5 542.88 97.5 541.38 96 541.38 94.5 542.88 93 544.38 94.5 542.88 96 M551.88 90 551.88 94.5 553.38 97.5 557.88 97.5 560.88 96 563.88 91.5 M563.88 78 562.38 79.5 563.88 81 565.38 79.5 565.38 78 563.88 76.5 562.38 76.5 559.38 78 556.38 81 554.88 84 553.38 90 553.38 94.5 554.88 97.5 "/></svg>