<svg 
      xmlns="http://www.w3.org/2000/svg" 
      width="800" height="272"
      viewBox="0 0 1019.5 345.59"
      fill="none" stroke="black" stroke-width="2" 
      stroke-linecap="round" stroke-linejoin="round"
    ><rect x="0" y="0" width="1019.5" height="345.59999999999997" fill="white" stroke="none"></rect><path d="M42.86 61.8 39.43 75.67 36 96.49 32.57 124.24 30.86 158.92 30.86 186.68 32.57 221.36 36 249.11 39.43 269.92 42.86 283.8 M39.43 75.67 36 103.42 34.29 124.24 32.57 158.92 32.57 186.68 34.29 221.36 36 242.18 39.43 269.92 M84 78.3 81 88.8 79.5 94.8 79.5 97.8 81 99.3 85.5 99.3 88.5 96.3 90 93.3 M85.5 78.3 82.5 88.8 81 94.8 81 97.8 82.5 99.3 M81 88.8 81 84.3 79.5 79.8 76.5 78.3 73.5 78.3 69 79.8 66 84.3 64.5 88.8 64.5 93.3 66 96.3 67.5 97.8 70.5 99.3 73.5 99.3 76.5 97.8 79.5 93.3 81 88.8 M73.5 78.3 70.5 79.8 67.5 84.3 66 88.8 66 94.8 67.5 97.8 M98.25 100.8 100.5 99.67 103.88 96.3 103.88 119.92 M102.75 97.42 102.75 119.92 M98.25 119.92 108.38 119.92 M120.75 100.8 123 99.67 126.38 96.3 126.38 119.92 M125.25 97.42 125.25 119.92 M120.75 119.92 130.88 119.92 M184.5 78.3 181.5 88.8 180 94.8 180 97.8 181.5 99.3 186 99.3 189 96.3 190.5 93.3 M186 78.3 183 88.8 181.5 94.8 181.5 97.8 183 99.3 M181.5 88.8 181.5 84.3 180 79.8 177 78.3 174 78.3 169.5 79.8 166.5 84.3 165 88.8 165 93.3 166.5 96.3 168 97.8 171 99.3 174 99.3 177 97.8 180 93.3 181.5 88.8 M174 78.3 171 79.8 168 84.3 166.5 88.8 166.5 94.8 168 97.8 M198.75 100.8 201 99.67 204.38 96.3 204.38 119.92 M203.25 97.42 203.25 119.92 M198.75 119.92 208.88 119.92 M219 100.8 220.13 101.92 219 103.05 217.88 101.92 217.88 100.8 219 98.55 220.13 97.42 223.5 96.3 228 96.3 231.38 97.42 232.5 98.55 233.63 100.8 233.63 103.05 232.5 105.3 229.13 107.55 223.5 109.8 221.25 110.92 219 113.17 217.88 116.55 217.88 119.92 M228 96.3 230.25 97.42 231.38 98.55 232.5 100.8 232.5 103.05 231.38 105.3 228 107.55 223.5 109.8 M217.88 117.67 219 116.55 221.25 116.55 226.88 118.8 230.25 118.8 232.5 117.67 233.63 116.55 M221.25 116.55 226.88 119.92 231.38 119.92 232.5 118.8 233.63 116.55 233.63 114.3 M285 78.3 282 88.8 280.5 94.8 280.5 97.8 282 99.3 286.5 99.3 289.5 96.3 291 93.3 M286.5 78.3 283.5 88.8 282 94.8 282 97.8 283.5 99.3 M282 88.8 282 84.3 280.5 79.8 277.5 78.3 274.5 78.3 270 79.8 267 84.3 265.5 88.8 265.5 93.3 267 96.3 268.5 97.8 271.5 99.3 274.5 99.3 277.5 97.8 280.5 93.3 282 88.8 M274.5 78.3 271.5 79.8 268.5 84.3 267 88.8 267 94.8 268.5 97.8 M299.25 100.8 301.5 99.67 304.88 96.3 304.88 119.92 M303.75 97.42 303.75 119.92 M299.25 119.92 309.38 119.92 M319.5 100.8 320.63 101.92 319.5 103.05 318.38 101.92 318.38 100.8 319.5 98.55 320.63 97.42 324 96.3 328.5 96.3 331.88 97.42 333 99.67 333 103.05 331.88 105.3 328.5 106.42 325.13 106.42 M328.5 96.3 330.75 97.42 331.88 99.67 331.88 103.05 330.75 105.3 328.5 106.42 M328.5 106.42 330.75 107.55 333 109.8 334.13 112.05 334.13 115.42 333 117.67 331.88 118.8 328.5 119.92 324 119.92 320.63 118.8 319.5 117.67 318.38 115.42 318.38 114.3 319.5 113.17 320.63 114.3 319.5 115.42 M331.88 108.67 333 112.05 333 115.42 331.88 117.67 330.75 118.8 328.5 119.92 M84 156.3 81 166.8 79.5 172.8 79.5 175.8 81 177.3 85.5 177.3 88.5 174.3 90 171.3 M85.5 156.3 82.5 166.8 81 172.8 81 175.8 82.5 177.3 M81 166.8 81 162.3 79.5 157.8 76.5 156.3 73.5 156.3 69 157.8 66 162.3 64.5 166.8 64.5 171.3 66 174.3 67.5 175.8 70.5 177.3 73.5 177.3 76.5 175.8 79.5 171.3 81 166.8 M73.5 156.3 70.5 157.8 67.5 162.3 66 166.8 66 172.8 67.5 175.8 M96 178.8 97.13 179.93 96 181.05 94.88 179.93 94.88 178.8 96 176.55 97.13 175.43 100.5 174.3 105 174.3 108.38 175.43 109.5 176.55 110.63 178.8 110.63 181.05 109.5 183.3 106.13 185.55 100.5 187.8 98.25 188.93 96 191.18 94.88 194.55 94.88 197.93 M105 174.3 107.25 175.43 108.38 176.55 109.5 178.8 109.5 181.05 108.38 183.3 105 185.55 100.5 187.8 M94.88 195.68 96 194.55 98.25 194.55 103.88 196.8 107.25 196.8 109.5 195.68 110.63 194.55 M98.25 194.55 103.88 197.93 108.38 197.93 109.5 196.8 110.63 194.55 110.63 192.3 M120.75 178.8 123 177.68 126.38 174.3 126.38 197.93 M125.25 175.43 125.25 197.93 M120.75 197.93 130.88 197.93 M184.5 156.3 181.5 166.8 180 172.8 180 175.8 181.5 177.3 186 177.3 189 174.3 190.5 171.3 M186 156.3 183 166.8 181.5 172.8 181.5 175.8 183 177.3 M181.5 166.8 181.5 162.3 180 157.8 177 156.3 174 156.3 169.5 157.8 166.5 162.3 165 166.8 165 171.3 166.5 174.3 168 175.8 171 177.3 174 177.3 177 175.8 180 171.3 181.5 166.8 M174 156.3 171 157.8 168 162.3 166.5 166.8 166.5 172.8 168 175.8 M196.5 178.8 197.63 179.93 196.5 181.05 195.38 179.93 195.38 178.8 196.5 176.55 197.63 175.43 201 174.3 205.5 174.3 208.88 175.43 210 176.55 211.13 178.8 211.13 181.05 210 183.3 206.63 185.55 201 187.8 198.75 188.93 196.5 191.18 195.38 194.55 195.38 197.93 M205.5 174.3 207.75 175.43 208.88 176.55 210 178.8 210 181.05 208.88 183.3 205.5 185.55 201 187.8 M195.38 195.68 196.5 194.55 198.75 194.55 204.38 196.8 207.75 196.8 210 195.68 211.13 194.55 M198.75 194.55 204.38 197.93 208.88 197.93 210 196.8 211.13 194.55 211.13 192.3 M219 178.8 220.13 179.93 219 181.05 217.88 179.93 217.88 178.8 219 176.55 220.13 175.43 223.5 174.3 228 174.3 231.38 175.43 232.5 176.55 233.63 178.8 233.63 181.05 232.5 183.3 229.13 185.55 223.5 187.8 221.25 188.93 219 191.18 217.88 194.55 217.88 197.93 M228 174.3 230.25 175.43 231.38 176.55 232.5 178.8 232.5 181.05 231.38 183.3 228 185.55 223.5 187.8 M217.88 195.68 219 194.55 221.25 194.55 226.88 196.8 230.25 196.8 232.5 195.68 233.63 194.55 M221.25 194.55 226.88 197.93 231.38 197.93 232.5 196.8 233.63 194.55 233.63 192.3 M285 156.3 282 166.8 280.5 172.8 280.5 175.8 282 177.3 286.5 177.3 289.5 174.3 291 171.3 M286.5 156.3 283.5 166.8 282 172.8 282 175.8 283.5 177.3 M282 166.8 282 162.3 280.5 157.8 277.5 156.3 274.5 156.3 270 157.8 267 162.3 265.5 166.8 265.5 171.3 267 174.3 268.5 175.8 271.5 177.3 274.5 177.3 277.5 175.8 280.5 171.3 282 166.8 M274.5 156.3 271.5 157.8 268.5 162.3 267 166.8 267 172.8 268.5 175.8 M297 178.8 298.13 179.93 297 181.05 295.88 179.93 295.88 178.8 297 176.55 298.13 175.43 301.5 174.3 306 174.3 309.38 175.43 310.5 176.55 311.63 178.8 311.63 181.05 310.5 183.3 307.13 185.55 301.5 187.8 299.25 188.93 297 191.18 295.88 194.55 295.88 197.93 M306 174.3 308.25 175.43 309.38 176.55 310.5 178.8 310.5 181.05 309.38 183.3 306 185.55 301.5 187.8 M295.88 195.68 297 194.55 299.25 194.55 304.88 196.8 308.25 196.8 310.5 195.68 311.63 194.55 M299.25 194.55 304.88 197.93 309.38 197.93 310.5 196.8 311.63 194.55 311.63 192.3 M319.5 178.8 320.63 179.93 319.5 181.05 318.38 179.93 318.38 178.8 319.5 176.55 320.63 175.43 324 174.3 328.5 174.3 331.88 175.43 333 177.68 333 181.05 331.88 183.3 328.5 184.43 325.13 184.43 M328.5 174.3 330.75 175.43 331.88 177.68 331.88 181.05 330.75 183.3 328.5 184.43 M328.5 184.43 330.75 185.55 333 187.8 334.13 190.05 334.13 193.43 333 195.68 331.88 196.8 328.5 197.93 324 197.93 320.63 196.8 319.5 195.68 318.38 193.43 318.38 192.3 319.5 191.18 320.63 192.3 319.5 193.43 M331.88 186.68 333 190.05 333 193.43 331.88 195.68 330.75 196.8 328.5 197.93 M84 234.3 81 244.8 79.5 250.8 79.5 253.8 81 255.3 85.5 255.3 88.5 252.3 90 249.3 M85.5 234.3 82.5 244.8 81 250.8 81 253.8 82.5 255.3 M81 244.8 81 240.3 79.5 235.8 76.5 234.3 73.5 234.3 69 235.8 66 240.3 64.5 244.8 64.5 249.3 66 252.3 67.5 253.8 70.5 255.3 73.5 255.3 76.5 253.8 79.5 249.3 81 244.8 M73.5 234.3 70.5 235.8 67.5 240.3 66 244.8 66 250.8 67.5 253.8 M96 256.8 97.13 257.92 96 259.05 94.88 257.92 94.88 256.8 96 254.55 97.13 253.43 100.5 252.3 105 252.3 108.38 253.43 109.5 255.68 109.5 259.05 108.38 261.3 105 262.42 101.63 262.42 M105 252.3 107.25 253.43 108.38 255.68 108.38 259.05 107.25 261.3 105 262.42 M105 262.42 107.25 263.55 109.5 265.8 110.63 268.05 110.63 271.42 109.5 273.67 108.38 274.8 105 275.92 100.5 275.92 97.13 274.8 96 273.67 94.88 271.42 94.88 270.3 96 269.17 97.13 270.3 96 271.42 M108.38 264.67 109.5 268.05 109.5 271.42 108.38 273.67 107.25 274.8 105 275.92 M120.75 256.8 123 255.68 126.38 252.3 126.38 275.92 M125.25 253.43 125.25 275.92 M120.75 275.92 130.88 275.92 M184.5 234.3 181.5 244.8 180 250.8 180 253.8 181.5 255.3 186 255.3 189 252.3 190.5 249.3 M186 234.3 183 244.8 181.5 250.8 181.5 253.8 183 255.3 M181.5 244.8 181.5 240.3 180 235.8 177 234.3 174 234.3 169.5 235.8 166.5 240.3 165 244.8 165 249.3 166.5 252.3 168 253.8 171 255.3 174 255.3 177 253.8 180 249.3 181.5 244.8 M174 234.3 171 235.8 168 240.3 166.5 244.8 166.5 250.8 168 253.8 M196.5 256.8 197.63 257.92 196.5 259.05 195.38 257.92 195.38 256.8 196.5 254.55 197.63 253.43 201 252.3 205.5 252.3 208.88 253.43 210 255.68 210 259.05 208.88 261.3 205.5 262.42 202.13 262.42 M205.5 252.3 207.75 253.43 208.88 255.68 208.88 259.05 207.75 261.3 205.5 262.42 M205.5 262.42 207.75 263.55 210 265.8 211.13 268.05 211.13 271.42 210 273.67 208.88 274.8 205.5 275.92 201 275.92 197.63 274.8 196.5 273.67 195.38 271.42 195.38 270.3 196.5 269.17 197.63 270.3 196.5 271.42 M208.88 264.67 210 268.05 210 271.42 208.88 273.67 207.75 274.8 205.5 275.92 M219 256.8 220.13 257.92 219 259.05 217.88 257.92 217.88 256.8 219 254.55 220.13 253.43 223.5 252.3 228 252.3 231.38 253.43 232.5 254.55 233.63 256.8 233.63 259.05 232.5 261.3 229.13 263.55 223.5 265.8 221.25 266.92 219 269.17 217.88 272.55 217.88 275.92 M228 252.3 230.25 253.43 231.38 254.55 232.5 256.8 232.5 259.05 231.38 261.3 228 263.55 223.5 265.8 M217.88 273.67 219 272.55 221.25 272.55 226.88 274.8 230.25 274.8 232.5 273.67 233.63 272.55 M221.25 272.55 226.88 275.92 231.38 275.92 232.5 274.8 233.63 272.55 233.63 270.3 M285 234.3 282 244.8 280.5 250.8 280.5 253.8 282 255.3 286.5 255.3 289.5 252.3 291 249.3 M286.5 234.3 283.5 244.8 282 250.8 282 253.8 283.5 255.3 M282 244.8 282 240.3 280.5 235.8 277.5 234.3 274.5 234.3 270 235.8 267 240.3 265.5 244.8 265.5 249.3 267 252.3 268.5 253.8 271.5 255.3 274.5 255.3 277.5 253.8 280.5 249.3 282 244.8 M274.5 234.3 271.5 235.8 268.5 240.3 267 244.8 267 250.8 268.5 253.8 M297 256.8 298.13 257.92 297 259.05 295.88 257.92 295.88 256.8 297 254.55 298.13 253.43 301.5 252.3 306 252.3 309.38 253.43 310.5 255.68 310.5 259.05 309.38 261.3 306 262.42 302.63 262.42 M306 252.3 308.25 253.43 309.38 255.68 309.38 259.05 308.25 261.3 306 262.42 M306 262.42 308.25 263.55 310.5 265.8 311.63 268.05 311.63 271.42 310.5 273.67 309.38 274.8 306 275.92 301.5 275.92 298.13 274.8 297 273.67 295.88 271.42 295.88 270.3 297 269.17 298.13 270.3 297 271.42 M309.38 264.67 310.5 268.05 310.5 271.42 309.38 273.67 308.25 274.8 306 275.92 M319.5 256.8 320.63 257.92 319.5 259.05 318.38 257.92 318.38 256.8 319.5 254.55 320.63 253.43 324 252.3 328.5 252.3 331.88 253.43 333 255.68 333 259.05 331.88 261.3 328.5 262.42 325.13 262.42 M328.5 252.3 330.75 253.43 331.88 255.68 331.88 259.05 330.75 261.3 328.5 262.42 M328.5 262.42 330.75 263.55 333 265.8 334.13 268.05 334.13 271.42 333 273.67 331.88 274.8 328.5 275.92 324 275.92 320.63 274.8 319.5 273.67 318.38 271.42 318.38 270.3 319.5 269.17 320.63 270.3 319.5 271.42 M331.88 264.67 333 268.05 333 271.42 331.88 273.67 330.75 274.8 328.5 275.92 M354.64 61.8 358.07 75.67 361.5 96.49 364.93 124.24 366.64 158.92 366.64 186.68 364.93 221.36 361.5 249.11 358.07 269.92 354.64 283.8 M358.07 75.67 361.5 103.42 363.21 124.24 364.93 158.92 364.93 186.68 363.21 221.36 361.5 242.18 358.07 269.92 M393 159.3 393 186.3 M379.5 172.8 406.5 172.8 M456.5 100.8 458 102.3 456.5 103.8 455 102.3 455 100.8 456.5 97.8 458 96.3 462.5 94.8 468.5 94.8 473 96.3 474.5 97.8 476 100.8 476 103.8 474.5 106.8 470 109.8 462.5 112.8 459.5 114.3 456.5 117.3 455 121.8 455 126.3 M468.5 94.8 471.5 96.3 473 97.8 474.5 100.8 474.5 103.8 473 106.8 468.5 109.8 462.5 112.8 M455 123.3 456.5 121.8 459.5 121.8 467 124.8 471.5 124.8 474.5 123.3 476 121.8 M459.5 121.8 467 126.3 473 126.3 474.5 124.8 476 121.8 476 118.8 M582.5 97.8 582.5 126.3 M584 94.8 584 126.3 M584 94.8 567.5 117.3 591.5 117.3 M578 126.3 588.5 126.3 M690.5 94.8 686 96.3 684.5 99.3 684.5 103.8 686 106.8 690.5 108.3 696.5 108.3 701 106.8 702.5 103.8 702.5 99.3 701 96.3 696.5 94.8 690.5 94.8 M690.5 94.8 687.5 96.3 686 99.3 686 103.8 687.5 106.8 690.5 108.3 M696.5 108.3 699.5 106.8 701 103.8 701 99.3 699.5 96.3 696.5 94.8 M690.5 108.3 686 109.8 684.5 111.3 683 114.3 683 120.3 684.5 123.3 686 124.8 690.5 126.3 696.5 126.3 701 124.8 702.5 123.3 704 120.3 704 114.3 702.5 111.3 701 109.8 696.5 108.3 M690.5 108.3 687.5 109.8 686 111.3 684.5 114.3 684.5 120.3 686 123.3 687.5 124.8 690.5 126.3 M696.5 126.3 699.5 124.8 701 123.3 702.5 120.3 702.5 114.3 701 111.3 699.5 109.8 696.5 108.3 M444.5 160.8 447.5 159.3 452 154.8 452 186.3 M450.5 156.3 450.5 186.3 M444.5 186.3 458 186.3 M488 159.3 486.5 160.8 488 162.3 489.5 160.8 489.5 159.3 488 156.3 485 154.8 480.5 154.8 476 156.3 473 159.3 471.5 162.3 470 168.3 470 177.3 471.5 181.8 474.5 184.8 479 186.3 482 186.3 486.5 184.8 489.5 181.8 491 177.3 491 175.8 489.5 171.3 486.5 168.3 482 166.8 480.5 166.8 476 168.3 473 171.3 471.5 175.8 M480.5 154.8 477.5 156.3 474.5 159.3 473 162.3 471.5 168.3 471.5 177.3 473 181.8 476 184.8 479 186.3 M482 186.3 485 184.8 488 181.8 489.5 177.3 489.5 175.8 488 171.3 485 168.3 482 166.8 M555.5 160.8 557 162.3 555.5 163.8 554 162.3 554 160.8 555.5 157.8 557 156.3 561.5 154.8 567.5 154.8 572 156.3 573.5 159.3 573.5 163.8 572 166.8 567.5 168.3 563 168.3 M567.5 154.8 570.5 156.3 572 159.3 572 163.8 570.5 166.8 567.5 168.3 M567.5 168.3 570.5 169.8 573.5 172.8 575 175.8 575 180.3 573.5 183.3 572 184.8 567.5 186.3 561.5 186.3 557 184.8 555.5 183.3 554 180.3 554 178.8 555.5 177.3 557 178.8 555.5 180.3 M572 171.3 573.5 175.8 573.5 180.3 572 183.3 570.5 184.8 567.5 186.3 M585.5 160.8 587 162.3 585.5 163.8 584 162.3 584 160.8 585.5 157.8 587 156.3 591.5 154.8 597.5 154.8 602 156.3 603.5 157.8 605 160.8 605 163.8 603.5 166.8 599 169.8 591.5 172.8 588.5 174.3 585.5 177.3 584 181.8 584 186.3 M597.5 154.8 600.5 156.3 602 157.8 603.5 160.8 603.5 163.8 602 166.8 597.5 169.8 591.5 172.8 M584 183.3 585.5 181.8 588.5 181.8 596 184.8 600.5 184.8 603.5 183.3 605 181.8 M588.5 181.8 596 186.3 602 186.3 603.5 184.8 605 181.8 605 178.8 M686 159.3 684.5 160.8 686 162.3 687.5 160.8 687.5 159.3 686 156.3 683 154.8 678.5 154.8 674 156.3 671 159.3 669.5 162.3 668 168.3 668 177.3 669.5 181.8 672.5 184.8 677 186.3 680 186.3 684.5 184.8 687.5 181.8 689 177.3 689 175.8 687.5 171.3 684.5 168.3 680 166.8 678.5 166.8 674 168.3 671 171.3 669.5 175.8 M678.5 154.8 675.5 156.3 672.5 159.3 671 162.3 669.5 168.3 669.5 177.3 671 181.8 674 184.8 677 186.3 M680 186.3 683 184.8 686 181.8 687.5 177.3 687.5 175.8 686 171.3 683 168.3 680 166.8 M711.5 157.8 711.5 186.3 M713 154.8 713 186.3 M713 154.8 696.5 177.3 720.5 177.3 M707 186.3 717.5 186.3 M429.5 220.8 432.5 219.3 437 214.8 437 246.3 M435.5 216.3 435.5 246.3 M429.5 246.3 443 246.3 M456.5 220.8 458 222.3 456.5 223.8 455 222.3 455 220.8 456.5 217.8 458 216.3 462.5 214.8 468.5 214.8 473 216.3 474.5 217.8 476 220.8 476 223.8 474.5 226.8 470 229.8 462.5 232.8 459.5 234.3 456.5 237.3 455 241.8 455 246.3 M468.5 214.8 471.5 216.3 473 217.8 474.5 220.8 474.5 223.8 473 226.8 468.5 229.8 462.5 232.8 M455 243.3 456.5 241.8 459.5 241.8 467 244.8 471.5 244.8 474.5 243.3 476 241.8 M459.5 241.8 467 246.3 473 246.3 474.5 244.8 476 241.8 476 238.8 M492.5 214.8 488 216.3 486.5 219.3 486.5 223.8 488 226.8 492.5 228.3 498.5 228.3 503 226.8 504.5 223.8 504.5 219.3 503 216.3 498.5 214.8 492.5 214.8 M492.5 214.8 489.5 216.3 488 219.3 488 223.8 489.5 226.8 492.5 228.3 M498.5 228.3 501.5 226.8 503 223.8 503 219.3 501.5 216.3 498.5 214.8 M492.5 228.3 488 229.8 486.5 231.3 485 234.3 485 240.3 486.5 243.3 488 244.8 492.5 246.3 498.5 246.3 503 244.8 504.5 243.3 506 240.3 506 234.3 504.5 231.3 503 229.8 498.5 228.3 M492.5 228.3 489.5 229.8 488 231.3 486.5 234.3 486.5 240.3 488 243.3 489.5 244.8 492.5 246.3 M498.5 246.3 501.5 244.8 503 243.3 504.5 240.3 504.5 234.3 503 231.3 501.5 229.8 498.5 228.3 M540.5 220.8 542 222.3 540.5 223.8 539 222.3 539 220.8 540.5 217.8 542 216.3 546.5 214.8 552.5 214.8 557 216.3 558.5 217.8 560 220.8 560 223.8 558.5 226.8 554 229.8 546.5 232.8 543.5 234.3 540.5 237.3 539 241.8 539 246.3 M552.5 214.8 555.5 216.3 557 217.8 558.5 220.8 558.5 223.8 557 226.8 552.5 229.8 546.5 232.8 M539 243.3 540.5 241.8 543.5 241.8 551 244.8 555.5 244.8 558.5 243.3 560 241.8 M543.5 241.8 551 246.3 557 246.3 558.5 244.8 560 241.8 560 238.8 M572 214.8 569 229.8 M569 229.8 572 226.8 576.5 225.3 581 225.3 585.5 226.8 588.5 229.8 590 234.3 590 237.3 588.5 241.8 585.5 244.8 581 246.3 576.5 246.3 572 244.8 570.5 243.3 569 240.3 569 238.8 570.5 237.3 572 238.8 570.5 240.3 M581 225.3 584 226.8 587 229.8 588.5 234.3 588.5 237.3 587 241.8 584 244.8 581 246.3 M572 214.8 587 214.8 M572 216.3 579.5 216.3 587 214.8 M617 219.3 615.5 220.8 617 222.3 618.5 220.8 618.5 219.3 617 216.3 614 214.8 609.5 214.8 605 216.3 602 219.3 600.5 222.3 599 228.3 599 237.3 600.5 241.8 603.5 244.8 608 246.3 611 246.3 615.5 244.8 618.5 241.8 620 237.3 620 235.8 618.5 231.3 615.5 228.3 611 226.8 609.5 226.8 605 228.3 602 231.3 600.5 235.8 M609.5 214.8 606.5 216.3 603.5 219.3 602 222.3 600.5 228.3 600.5 237.3 602 241.8 605 244.8 608 246.3 M611 246.3 614 244.8 617 241.8 618.5 237.3 618.5 235.8 617 231.3 614 228.3 611 226.8 M656 214.8 653 229.8 M653 229.8 656 226.8 660.5 225.3 665 225.3 669.5 226.8 672.5 229.8 674 234.3 674 237.3 672.5 241.8 669.5 244.8 665 246.3 660.5 246.3 656 244.8 654.5 243.3 653 240.3 653 238.8 654.5 237.3 656 238.8 654.5 240.3 M665 225.3 668 226.8 671 229.8 672.5 234.3 672.5 237.3 671 241.8 668 244.8 665 246.3 M656 214.8 671 214.8 M656 216.3 663.5 216.3 671 214.8 M687.5 220.8 690.5 219.3 695 214.8 695 246.3 M693.5 216.3 693.5 246.3 M687.5 246.3 701 246.3 M714.5 220.8 716 222.3 714.5 223.8 713 222.3 713 220.8 714.5 217.8 716 216.3 720.5 214.8 726.5 214.8 731 216.3 732.5 217.8 734 220.8 734 223.8 732.5 226.8 728 229.8 720.5 232.8 717.5 234.3 714.5 237.3 713 241.8 713 246.3 M726.5 214.8 729.5 216.3 731 217.8 732.5 220.8 732.5 223.8 731 226.8 726.5 229.8 720.5 232.8 M713 243.3 714.5 241.8 717.5 241.8 725 244.8 729.5 244.8 732.5 243.3 734 241.8 M717.5 241.8 725 246.3 731 246.3 732.5 244.8 734 241.8 734 238.8 M752.5 168.3 779.5 168.3 M752.5 177.3 779.5 177.3 M792.36 24 792.36 321.6 M794.07 24 794.07 321.6 M792.36 24 804.36 24 M792.36 321.6 804.36 321.6 M823.75 69.6 849.25 69.6 M830.13 29.1 827.57 41.85 M827.57 41.85 830.13 39.3 833.95 38.03 837.78 38.03 841.6 39.3 844.15 41.85 845.43 45.68 845.43 48.22 844.15 52.05 841.6 54.6 837.78 55.88 833.95 55.88 830.13 54.6 828.85 53.33 827.57 50.78 827.57 49.5 828.85 48.22 830.13 49.5 828.85 50.78 M837.78 38.03 840.32 39.3 842.88 41.85 844.15 45.68 844.15 48.22 842.88 52.05 840.32 54.6 837.78 55.88 M830.13 29.1 842.88 29.1 M830.13 30.38 836.5 30.38 842.88 29.1 M842.88 83.33 841.6 84.6 842.88 85.88 844.15 84.6 844.15 83.33 842.88 80.78 840.32 79.5 836.5 79.5 832.68 80.78 830.13 83.33 828.85 85.88 827.57 90.98 827.57 98.63 828.85 102.45 831.4 105 835.22 106.28 837.78 106.28 841.6 105 844.15 102.45 845.43 98.63 845.43 97.35 844.15 93.53 841.6 90.98 837.78 89.7 836.5 89.7 832.68 90.98 830.13 93.53 828.85 97.35 M836.5 79.5 833.95 80.78 831.4 83.33 830.13 85.88 828.85 90.98 828.85 98.63 830.13 102.45 832.68 105 835.22 106.28 M837.78 106.28 840.32 105 842.88 102.45 844.15 98.63 844.15 97.35 842.88 93.53 840.32 90.98 837.78 89.7 M877.75 69.6 903.25 69.6 M885.4 34.2 887.95 32.92 891.78 29.1 891.78 55.88 M890.5 30.38 890.5 55.88 M885.4 55.88 896.88 55.88 M896.88 83.33 895.6 84.6 896.88 85.88 898.15 84.6 898.15 83.33 896.88 80.78 894.32 79.5 890.5 79.5 886.68 80.78 884.13 83.33 882.85 85.88 881.57 90.98 881.57 98.63 882.85 102.45 885.4 105 889.22 106.28 891.78 106.28 895.6 105 898.15 102.45 899.43 98.63 899.43 97.35 898.15 93.53 895.6 90.98 891.78 89.7 890.5 89.7 886.68 90.98 884.13 93.53 882.85 97.35 M890.5 79.5 887.95 80.78 885.4 83.33 884.13 85.88 882.85 90.98 882.85 98.63 884.13 102.45 886.68 105 889.22 106.28 M891.78 106.28 894.32 105 896.88 102.45 898.15 98.63 898.15 97.35 896.88 93.53 894.32 90.98 891.78 89.7 M943 51.6 938.5 53.1 935.5 57.6 934 65.1 934 69.6 935.5 77.1 938.5 81.6 943 83.1 946 83.1 950.5 81.6 953.5 77.1 955 69.6 955 65.1 953.5 57.6 950.5 53.1 946 51.6 943 51.6 M943 51.6 940 53.1 938.5 54.6 937 57.6 935.5 65.1 935.5 69.6 937 77.1 938.5 80.1 940 81.6 943 83.1 M946 83.1 949 81.6 950.5 80.1 952 77.1 953.5 69.6 953.5 65.1 952 57.6 950.5 54.6 949 53.1 946 51.6 M823.75 172.8 849.25 172.8 M830.13 132.3 827.57 145.05 M827.57 145.05 830.13 142.5 833.95 141.23 837.78 141.23 841.6 142.5 844.15 145.05 845.43 148.87 845.43 151.42 844.15 155.25 841.6 157.8 837.78 159.07 833.95 159.07 830.13 157.8 828.85 156.52 827.57 153.98 827.57 152.7 828.85 151.42 830.13 152.7 828.85 153.98 M837.78 141.23 840.32 142.5 842.88 145.05 844.15 148.87 844.15 151.42 842.88 155.25 840.32 157.8 837.78 159.07 M830.13 132.3 842.88 132.3 M830.13 133.57 836.5 133.57 842.88 132.3 M842.88 186.52 841.6 187.8 842.88 189.08 844.15 187.8 844.15 186.52 842.88 183.98 840.32 182.7 836.5 182.7 832.68 183.98 830.13 186.52 828.85 189.08 827.57 194.18 827.57 201.83 828.85 205.65 831.4 208.2 835.22 209.48 837.78 209.48 841.6 208.2 844.15 205.65 845.43 201.83 845.43 200.55 844.15 196.73 841.6 194.18 837.78 192.9 836.5 192.9 832.68 194.18 830.13 196.73 828.85 200.55 M836.5 182.7 833.95 183.98 831.4 186.52 830.13 189.08 828.85 194.18 828.85 201.83 830.13 205.65 832.68 208.2 835.22 209.48 M837.78 209.48 840.32 208.2 842.88 205.65 844.15 201.83 844.15 200.55 842.88 196.73 840.32 194.18 837.78 192.9 M889 154.8 884.5 156.3 881.5 160.8 880 168.3 880 172.8 881.5 180.3 884.5 184.8 889 186.3 892 186.3 896.5 184.8 899.5 180.3 901 172.8 901 168.3 899.5 160.8 896.5 156.3 892 154.8 889 154.8 M889 154.8 886 156.3 884.5 157.8 883 160.8 881.5 168.3 881.5 172.8 883 180.3 884.5 183.3 886 184.8 889 186.3 M892 186.3 895 184.8 896.5 183.3 898 180.3 899.5 172.8 899.5 168.3 898 160.8 896.5 157.8 895 156.3 892 154.8 M931.75 172.8 957.25 172.8 M939.4 137.4 941.95 136.12 945.78 132.3 945.78 159.07 M944.5 133.57 944.5 159.07 M939.4 159.07 950.88 159.07 M950.88 186.52 949.6 187.8 950.88 189.08 952.15 187.8 952.15 186.52 950.88 183.98 948.32 182.7 944.5 182.7 940.68 183.98 938.13 186.52 936.85 189.08 935.57 194.18 935.57 201.83 936.85 205.65 939.4 208.2 943.22 209.48 945.78 209.48 949.6 208.2 952.15 205.65 953.43 201.83 953.43 200.55 952.15 196.73 949.6 194.18 945.78 192.9 944.5 192.9 940.68 194.18 938.13 196.73 936.85 200.55 M944.5 182.7 941.95 183.98 939.4 186.52 938.13 189.08 936.85 194.18 936.85 201.83 938.13 205.65 940.68 208.2 943.22 209.48 M945.78 209.48 948.32 208.2 950.88 205.65 952.15 201.83 952.15 200.55 950.88 196.73 948.32 194.18 945.78 192.9 M835 258 830.5 259.5 827.5 264 826 271.5 826 276 827.5 283.5 830.5 288 835 289.5 838 289.5 842.5 288 845.5 283.5 847 276 847 271.5 845.5 264 842.5 259.5 838 258 835 258 M835 258 832 259.5 830.5 261 829 264 827.5 271.5 827.5 276 829 283.5 830.5 286.5 832 288 835 289.5 M838 289.5 841 288 842.5 286.5 844 283.5 845.5 276 845.5 271.5 844 264 842.5 261 841 259.5 838 258 M877.75 276 903.25 276 M884.13 235.5 881.57 248.25 M881.57 248.25 884.13 245.7 887.95 244.43 891.78 244.43 895.6 245.7 898.15 248.25 899.43 252.08 899.43 254.63 898.15 258.45 895.6 261 891.78 262.27 887.95 262.27 884.13 261 882.85 259.72 881.57 257.17 881.57 255.9 882.85 254.63 884.13 255.9 882.85 257.17 M891.78 244.43 894.32 245.7 896.88 248.25 898.15 252.08 898.15 254.63 896.88 258.45 894.32 261 891.78 262.27 M884.13 235.5 896.88 235.5 M884.13 236.77 890.5 236.77 896.88 235.5 M896.88 289.72 895.6 291 896.88 292.27 898.15 291 898.15 289.72 896.88 287.17 894.32 285.9 890.5 285.9 886.68 287.17 884.13 289.72 882.85 292.27 881.57 297.37 881.57 305.02 882.85 308.85 885.4 311.4 889.22 312.67 891.78 312.67 895.6 311.4 898.15 308.85 899.43 305.02 899.43 303.75 898.15 299.92 895.6 297.37 891.78 296.1 890.5 296.1 886.68 297.37 884.13 299.92 882.85 303.75 M890.5 285.9 887.95 287.17 885.4 289.72 884.13 292.27 882.85 297.37 882.85 305.02 884.13 308.85 886.68 311.4 889.22 312.67 M891.78 312.67 894.32 311.4 896.88 308.85 898.15 305.02 898.15 303.75 896.88 299.92 894.32 297.37 891.78 296.1 M931.75 276 957.25 276 M939.4 240.6 941.95 239.33 945.78 235.5 945.78 262.27 M944.5 236.77 944.5 262.27 M939.4 262.27 950.88 262.27 M950.88 289.72 949.6 291 950.88 292.27 952.15 291 952.15 289.72 950.88 287.17 948.32 285.9 944.5 285.9 940.68 287.17 938.13 289.72 936.85 292.27 935.57 297.37 935.57 305.02 936.85 308.85 939.4 311.4 943.22 312.67 945.78 312.67 949.6 311.4 952.15 308.85 953.43 305.02 953.43 303.75 952.15 299.92 949.6 297.37 945.78 296.1 944.5 296.1 940.68 297.37 938.13 299.92 936.85 303.75 M944.5 285.9 941.95 287.17 939.4 289.72 938.13 292.27 936.85 297.37 936.85 305.02 938.13 308.85 940.68 311.4 943.22 312.67 M945.78 312.67 948.32 311.4 950.88 308.85 952.15 305.02 952.15 303.75 950.88 299.92 948.32 297.37 945.78 296.1 M986.93 24 986.93 321.6 M988.64 24 988.64 321.6 M976.64 24 988.64 24 M976.64 321.6 988.64 321.6 "/></svg>