<svg 
      xmlns="http://www.w3.org/2000/svg" 
      width="800" height="406.79999999999995"
      fill="none" stroke="black" stroke-width="2" 
      stroke-linecap="round" stroke-linejoin="round"
    ><rect x="0" y="0" width="800" height="406.79999999999995" fill="white" stroke="none"></rect><path d="M27 61.8 39 93.3 M28.5 61.8 39 90.3 M51 61.8 39 93.3 M27 61.8 51 61.8 M28.5 63.3 49.5 63.3 M60 69.3 81 90.3 M81 69.3 60 90.3 M114.5 47.4 120 49.8 114.5 52.2 M109 43.8 118.17 49.8 109 55.8 M87 49.8 118.17 49.8 M94.5 61.8 94.5 93.3 M96 63.3 96 91.8 M97.5 61.8 97.5 93.3 M90 61.8 108 61.8 112.5 63.3 114 64.8 115.5 67.8 115.5 70.8 114 73.8 112.5 75.3 108 76.8 M112.5 64.8 114 67.8 114 70.8 112.5 73.8 M108 61.8 111 63.3 112.5 66.3 112.5 72.3 111 75.3 108 76.8 M97.5 76.8 108 76.8 112.5 78.3 114 79.8 115.5 82.8 115.5 87.3 114 90.3 112.5 91.8 108 93.3 90 93.3 M112.5 79.8 114 82.8 114 87.3 112.5 90.3 M108 76.8 111 78.3 112.5 81.3 112.5 88.8 111 91.8 108 93.3 M91.5 61.8 94.5 63.3 M93 61.8 94.5 64.8 M99 61.8 97.5 64.8 M100.5 61.8 97.5 63.3 M94.5 91.8 91.5 93.3 M94.5 90.3 93 93.3 M97.5 90.3 99 93.3 M97.5 91.8 100.5 93.3 M126 79.8 153 79.8 M159 79.8 184.5 79.8 M166.65 44.4 169.2 43.13 173.02 39.3 173.02 66.07 M171.75 40.58 171.75 66.07 M166.65 66.07 178.13 66.07 M178.13 102.45 178.13 103.73 179.4 103.73 179.4 102.45 178.13 99.9 175.58 98.63 171.75 98.63 167.93 99.9 165.38 103.73 164.1 107.55 164.1 111.38 165.38 113.93 166.65 115.2 169.2 116.48 171.75 116.48 175.58 115.2 178.13 111.38 M171.75 98.63 169.2 99.9 166.65 103.73 165.38 107.55 165.38 112.65 166.65 115.2 M192.5 79.8 243.5 79.8 M211.63 54.6 210.35 50.78 209.08 49.5 206.52 48.22 203.98 48.22 200.15 49.5 197.6 53.33 196.33 57.15 196.33 60.97 197.6 63.53 198.88 64.8 201.43 66.07 203.98 66.07 207.8 64.8 210.35 62.25 211.63 58.43 212.9 52.05 212.9 45.68 211.63 41.85 210.35 40.58 207.8 39.3 203.98 39.3 201.43 40.58 200.15 41.85 200.15 43.13 201.43 43.13 201.43 41.85 M203.98 48.22 201.43 49.5 198.88 53.33 197.6 57.15 197.6 62.25 198.88 64.8 M203.98 66.07 206.52 64.8 209.08 62.25 210.35 58.43 211.63 52.05 211.63 45.68 210.35 41.85 207.8 39.3 M239.04 27.06 243.5 29.1 239.04 31.14 M234.58 24 242.01 29.1 234.58 34.2 M216.72 29.1 242.01 29.1 M223.1 39.3 223.1 66.07 M224.37 40.58 224.37 64.8 M225.65 39.3 225.65 66.07 M219.27 39.3 239.68 39.3 239.68 46.95 M225.65 52.05 233.3 52.05 M233.3 46.95 233.3 57.15 M219.27 66.07 239.68 66.07 239.68 58.43 M220.55 39.3 223.1 40.58 M221.83 39.3 223.1 41.85 M226.93 39.3 225.65 41.85 M228.2 39.3 225.65 40.58 M233.3 39.3 239.68 40.58 M235.85 39.3 239.68 41.85 M237.12 39.3 239.68 43.13 M238.4 39.3 239.68 46.95 M233.3 46.95 232.02 52.05 233.3 57.15 M233.3 49.5 230.75 52.05 233.3 54.6 M233.3 50.78 228.2 52.05 233.3 53.33 M223.1 64.8 220.55 66.07 M223.1 63.53 221.83 66.07 M225.65 63.53 226.93 66.07 M225.65 64.8 228.2 66.07 M233.3 66.07 239.68 64.8 M235.85 66.07 239.68 63.53 M237.12 66.07 239.68 62.25 M238.4 66.07 239.68 58.43 M216.09 105 214.81 101.18 213.54 99.9 210.99 98.63 208.44 98.63 204.61 99.9 202.06 103.73 200.79 107.55 200.79 111.38 202.06 113.93 203.34 115.2 205.89 116.48 208.44 116.48 212.26 115.2 214.81 112.65 216.09 108.82 217.36 102.45 217.36 96.07 216.09 92.25 214.81 90.98 212.26 89.7 208.44 89.7 205.89 90.98 204.61 92.25 204.61 93.53 205.89 93.53 205.89 92.25 M208.44 98.63 205.89 99.9 203.34 103.73 202.06 107.55 202.06 112.65 203.34 115.2 M208.44 116.48 210.99 115.2 213.54 112.65 214.81 108.82 216.09 102.45 216.09 96.07 214.81 92.25 212.26 89.7 M232.66 89.7 227.56 107.55 226.29 112.65 226.29 115.2 227.56 116.48 231.39 116.48 233.94 113.93 235.21 111.38 M233.94 89.7 228.84 107.55 227.56 112.65 227.56 115.2 228.84 116.48 M225.01 98.63 236.49 98.63 M249.5 75.3 276.5 75.3 M249.5 84.3 276.5 84.3 M282.5 79.8 336.05 79.8 M297.8 41.85 297.8 66.07 M299.08 39.3 299.08 66.07 M299.08 39.3 285.05 58.43 305.45 58.43 M293.97 66.07 302.9 66.07 M319.47 49.5 314.38 66.07 M319.47 49.5 315.65 66.07 M327.13 49.5 327.13 66.07 M327.13 49.5 328.4 66.07 M310.55 52.05 313.1 49.5 316.92 48.22 333.5 48.22 M310.55 52.05 313.1 50.78 316.92 49.5 333.5 49.5 M315.65 102.45 315.65 103.73 316.92 103.73 316.92 102.45 315.65 99.9 313.1 98.63 309.27 98.63 305.45 99.9 302.9 103.73 301.63 107.55 301.63 111.38 302.9 113.93 304.17 115.2 306.72 116.48 309.27 116.48 313.1 115.2 315.65 111.38 M309.27 98.63 306.72 99.9 304.17 103.73 302.9 107.55 302.9 112.65 304.17 115.2 M352.3 47.4 355.55 49.8 352.3 52.2 M349.05 43.8 354.47 49.8 349.05 55.8 M336.05 49.8 354.47 49.8 M346.55 61.8 346.55 64.8 349.55 64.8 349.55 61.8 346.55 61.8 M348.05 61.8 348.05 64.8 M346.55 63.3 349.55 63.3 M346.55 72.3 346.55 97.8 345.05 102.3 343.55 103.8 M348.05 73.8 348.05 96.3 346.55 100.8 M342.05 72.3 349.55 72.3 349.55 96.3 348.05 100.8 346.55 102.3 343.55 103.8 339.05 103.8 337.55 102.3 337.55 99.3 340.55 99.3 340.55 102.3 339.05 102.3 339.05 100.8 M343.55 72.3 346.55 73.8 M345.05 72.3 346.55 75.3 M170 155.4 182 186.9 M171.5 155.4 182 183.9 M194 155.4 182 186.9 M170 155.4 194 155.4 M171.5 156.9 192.5 156.9 M204.5 171.9 203 173.4 204.5 174.9 206 173.4 204.5 171.9 M238.25 141 243.5 143.4 238.25 145.8 M233 137.4 241.75 143.4 233 149.4 M212 143.4 241.75 143.4 M219.5 155.4 219.5 186.9 M221 156.9 221 185.4 M222.5 155.4 222.5 186.9 M215 155.4 239 155.4 239 164.4 M222.5 170.4 231.5 170.4 M231.5 164.4 231.5 176.4 M215 186.9 239 186.9 239 177.9 M216.5 155.4 219.5 156.9 M218 155.4 219.5 158.4 M224 155.4 222.5 158.4 M225.5 155.4 222.5 156.9 M231.5 155.4 239 156.9 M234.5 155.4 239 158.4 M236 155.4 239 159.9 M237.5 155.4 239 164.4 M231.5 164.4 230 170.4 231.5 176.4 M231.5 167.4 228.5 170.4 231.5 173.4 M231.5 168.9 225.5 170.4 231.5 171.9 M219.5 185.4 216.5 186.9 M219.5 183.9 218 186.9 M222.5 183.9 224 186.9 M222.5 185.4 225.5 186.9 M231.5 186.9 239 185.4 M234.5 186.9 239 183.9 M236 186.9 239 182.4 M237.5 186.9 239 177.9 M249.5 168.9 276.5 168.9 M249.5 177.9 276.5 177.9 M300.5 158.4 300.5 186.9 M302 155.4 302 186.9 M302 155.4 285.5 177.9 309.5 177.9 M296 186.9 306.5 186.9 M326 167.4 320 186.9 M326 167.4 321.5 186.9 M335 167.4 335 186.9 M335 167.4 336.5 186.9 M315.5 170.4 318.5 167.4 323 165.9 342.5 165.9 M315.5 170.4 318.5 168.9 323 167.4 342.5 167.4 M351.5 179.4 353 183.9 354.5 185.4 357.5 186.9 360.5 186.9 365 185.4 368 180.9 369.5 176.4 369.5 171.9 368 168.9 366.5 167.4 363.5 165.9 360.5 165.9 356 167.4 353 171.9 351.5 176.4 345.5 197.4 M360.5 186.9 363.5 185.4 366.5 180.9 368 176.4 368 170.4 366.5 167.4 M360.5 165.9 357.5 167.4 354.5 171.9 353 176.4 347 197.4 M27.22 247.2 39.22 278.7 M28.72 247.2 39.22 275.7 M51.22 247.2 39.22 278.7 M27.22 247.2 51.22 247.2 M28.72 248.7 49.72 248.7 M60.22 254.7 81.22 275.7 M81.22 254.7 60.22 275.7 M113.47 232.8 118.72 235.2 113.47 237.6 M108.22 229.2 116.97 235.2 108.22 241.2 M87.22 235.2 116.97 235.2 M94.72 247.2 94.72 278.7 M96.22 248.7 96.22 277.2 M97.72 247.2 97.72 278.7 M90.22 247.2 114.22 247.2 114.22 256.2 M97.72 262.2 106.72 262.2 M106.72 256.2 106.72 268.2 M90.22 278.7 114.22 278.7 114.22 269.7 M91.72 247.2 94.72 248.7 M93.22 247.2 94.72 250.2 M99.22 247.2 97.72 250.2 M100.72 247.2 97.72 248.7 M106.72 247.2 114.22 248.7 M109.72 247.2 114.22 250.2 M111.22 247.2 114.22 251.7 M112.72 247.2 114.22 256.2 M106.72 256.2 105.22 262.2 106.72 268.2 M106.72 259.2 103.72 262.2 106.72 265.2 M106.72 260.7 100.72 262.2 106.72 263.7 M94.72 277.2 91.72 278.7 M94.72 275.7 93.22 278.7 M97.72 275.7 99.22 278.7 M97.72 277.2 100.72 278.7 M106.72 278.7 114.22 277.2 M109.72 278.7 114.22 275.7 M111.22 278.7 114.22 274.2 M112.72 278.7 114.22 269.7 M138.22 251.7 138.22 278.7 M124.72 265.2 151.72 265.2 M157.72 265.2 183.22 265.2 M165.37 229.8 167.92 228.52 171.75 224.7 171.75 251.48 M170.47 225.98 170.47 251.48 M165.37 251.48 176.85 251.48 M176.85 287.85 176.85 289.13 178.12 289.13 178.12 287.85 176.85 285.3 174.3 284.02 170.47 284.02 166.65 285.3 164.1 289.13 162.82 292.95 162.82 296.77 164.1 299.33 165.37 300.6 167.92 301.88 170.47 301.88 174.3 300.6 176.85 296.77 M170.47 284.02 167.92 285.3 165.37 289.13 164.1 292.95 164.1 298.05 165.37 300.6 M191.22 265.2 243.5 265.2 M210.35 240 209.07 236.18 207.8 234.9 205.25 233.63 202.7 233.63 198.87 234.9 196.32 238.73 195.05 242.55 195.05 246.38 196.32 248.93 197.6 250.2 200.15 251.48 202.7 251.48 206.52 250.2 209.07 247.65 210.35 243.83 211.62 237.45 211.62 231.08 210.35 227.25 209.07 225.98 206.52 224.7 202.7 224.7 200.15 225.98 198.87 227.25 198.87 228.52 200.15 228.52 200.15 227.25 M202.7 233.63 200.15 234.9 197.6 238.73 196.32 242.55 196.32 247.65 197.6 250.2 M202.7 251.48 205.25 250.2 207.8 247.65 209.07 243.83 210.35 237.45 210.35 231.08 209.07 227.25 206.52 224.7 M238.82 212.46 243.5 214.5 238.82 216.54 M234.15 209.4 241.94 214.5 234.15 219.6 M215.45 214.5 241.94 214.5 M221.82 224.7 221.82 251.48 M223.1 225.98 223.1 250.2 M224.37 224.7 224.37 251.48 M218 224.7 233.3 224.7 237.12 225.98 238.4 227.25 239.67 229.8 239.67 232.35 238.4 234.9 237.12 236.18 233.3 237.45 M237.12 227.25 238.4 229.8 238.4 232.35 237.12 234.9 M233.3 224.7 235.85 225.98 237.12 228.52 237.12 233.63 235.85 236.18 233.3 237.45 M224.37 237.45 233.3 237.45 237.12 238.73 238.4 240 239.67 242.55 239.67 246.38 238.4 248.93 237.12 250.2 233.3 251.48 218 251.48 M237.12 240 238.4 242.55 238.4 246.38 237.12 248.93 M233.3 237.45 235.85 238.73 237.12 241.27 237.12 247.65 235.85 250.2 233.3 251.48 M219.27 224.7 221.82 225.98 M220.55 224.7 221.82 227.25 M225.65 224.7 224.37 227.25 M226.92 224.7 224.37 225.98 M221.82 250.2 219.27 251.48 M221.82 248.93 220.55 251.48 M224.37 248.93 225.65 251.48 M224.37 250.2 226.92 251.48 M215.45 290.4 214.18 286.58 212.9 285.3 210.35 284.02 207.8 284.02 203.97 285.3 201.43 289.13 200.15 292.95 200.15 296.77 201.43 299.33 202.7 300.6 205.25 301.88 207.8 301.88 211.62 300.6 214.18 298.05 215.45 294.23 216.72 287.85 216.72 281.48 215.45 277.65 214.18 276.38 211.62 275.1 207.8 275.1 205.25 276.38 203.97 277.65 203.97 278.92 205.25 278.92 205.25 277.65 M207.8 284.02 205.25 285.3 202.7 289.13 201.43 292.95 201.43 298.05 202.7 300.6 M207.8 301.88 210.35 300.6 212.9 298.05 214.18 294.23 215.45 287.85 215.45 281.48 214.18 277.65 211.62 275.1 M232.02 275.1 226.92 292.95 225.65 298.05 225.65 300.6 226.92 301.88 230.75 301.88 233.3 299.33 234.57 296.77 M233.3 275.1 228.2 292.95 226.92 298.05 226.92 300.6 228.2 301.88 M224.37 284.02 235.85 284.02 M249.5 260.7 276.5 260.7 M249.5 269.7 276.5 269.7 M307.5 232.8 312.5 235.2 307.5 237.6 M302.5 229.2 310.83 235.2 302.5 241.2 M282.5 235.2 310.83 235.2 M296 247.2 291.5 248.7 288.5 253.2 287 260.7 287 265.2 288.5 272.7 291.5 277.2 296 278.7 299 278.7 303.5 277.2 306.5 272.7 308 265.2 308 260.7 306.5 253.2 303.5 248.7 299 247.2 296 247.2 M291.5 250.2 290 253.2 288.5 259.2 288.5 266.7 290 272.7 291.5 275.7 M303.5 275.7 305 272.7 306.5 266.7 306.5 259.2 305 253.2 303.5 250.2 M296 247.2 293 248.7 291.5 251.7 290 259.2 290 266.7 291.5 274.2 293 277.2 296 278.7 M299 278.7 302 277.2 303.5 274.2 305 266.7 305 259.2 303.5 251.7 302 248.7 299 247.2 M168.5 340.8 180.5 372.3 M170 340.8 180.5 369.3 M192.5 340.8 180.5 372.3 M168.5 340.8 192.5 340.8 M170 342.3 191 342.3 M203 357.3 201.5 358.8 203 360.3 204.5 358.8 203 357.3 M238 326.4 243.5 328.8 238 331.2 M232.5 322.8 241.67 328.8 232.5 334.8 M210.5 328.8 241.67 328.8 M218 340.8 218 372.3 M219.5 342.3 219.5 370.8 M221 340.8 221 372.3 M213.5 340.8 231.5 340.8 236 342.3 237.5 343.8 239 346.8 239 349.8 237.5 352.8 236 354.3 231.5 355.8 M236 343.8 237.5 346.8 237.5 349.8 236 352.8 M231.5 340.8 234.5 342.3 236 345.3 236 351.3 234.5 354.3 231.5 355.8 M221 355.8 231.5 355.8 236 357.3 237.5 358.8 239 361.8 239 366.3 237.5 369.3 236 370.8 231.5 372.3 213.5 372.3 M236 358.8 237.5 361.8 237.5 366.3 236 369.3 M231.5 355.8 234.5 357.3 236 360.3 236 367.8 234.5 370.8 231.5 372.3 M215 340.8 218 342.3 M216.5 340.8 218 343.8 M222.5 340.8 221 343.8 M224 340.8 221 342.3 M218 370.8 215 372.3 M218 369.3 216.5 372.3 M221 369.3 222.5 372.3 M221 370.8 224 372.3 M249.5 354.3 276.5 354.3 M249.5 363.3 276.5 363.3 M296 340.8 291.5 342.3 288.5 346.8 287 354.3 287 358.8 288.5 366.3 291.5 370.8 296 372.3 299 372.3 303.5 370.8 306.5 366.3 308 358.8 308 354.3 306.5 346.8 303.5 342.3 299 340.8 296 340.8 M296 340.8 293 342.3 291.5 343.8 290 346.8 288.5 354.3 288.5 358.8 290 366.3 291.5 369.3 293 370.8 296 372.3 M299 372.3 302 370.8 303.5 369.3 305 366.3 306.5 358.8 306.5 354.3 305 346.8 303.5 343.8 302 342.3 299 340.8 "/></svg>