<svg 
    xmlns="http://www.w3.org/2000/svg" 
    width="569.8795875" height="234.41756250000003"
    viewBox="0 0 569.8795875 234.41756250000003"
  ><rect x="0" y="0" width="569.8795875" height="234.41756250000003" fill="white"></rect><g 
      transform="translate(0,0)"
    ><rect 
      x="0" y="0" width="569.8795875" height="234.41756250000003"
      stroke="black" stroke-width="1" fill-opacity="0.1"
    /><g 
      transform="translate(0,56.09999999999999)"
    ><rect 
      x="0" y="0" width="251.49374999999998" height="9.600000000000003"
      stroke="black" stroke-width="1" fill-opacity="0.1"
    /><text x="0" y="12">\bar</text></g><g 
      transform="translate(112.99687499999999,15.299999999999999)"
    ><rect 
      x="0" y="0" width="25.5" height="40.8"
      stroke="black" stroke-width="1" fill-opacity="0.1"
    /><text x="0" y="12">1</text></g><g 
      transform="translate(0,74.37)"
    ><rect 
      x="0" y="0" width="17.85" height="61.199999999999996"
      stroke="black" stroke-width="1" fill-opacity="0.1"
    /><text x="0" y="12">\left</text></g><g 
      transform="translate(0,74.37)"
    ><rect 
      x="0" y="0" width="17.85" height="61.199999999999996"
      stroke="black" stroke-width="1" fill-opacity="0.1"
    /><text x="0" y="12">(</text></g><g 
      transform="translate(17.85,79.47)"
    ><rect 
      x="0" y="0" width="20.4" height="56.099999999999994"
      stroke="black" stroke-width="1" fill-opacity="0.1"
    /><text x="0" y="12">\sqrt</text></g><g 
      transform="translate(38.25,74.37)"
    ><rect 
      x="0" y="0" width="73.94999999999999" height="10.2"
      stroke="black" stroke-width="1" fill-opacity="0.1"
    /><text x="0" y="12">\bar</text></g><g 
      transform="translate(38.25,94.76999999999998)"
    ><rect 
      x="0" y="0" width="28.049999999999997" height="40.8"
      stroke="black" stroke-width="1" fill-opacity="0.1"
    /><text x="0" y="12">\phi</text></g><g 
      transform="translate(66.30000000000001,89.66999999999999)"
    ><rect 
      x="0" y="0" width="20.4" height="45.900000000000006"
      stroke="black" stroke-width="1" fill-opacity="0.1"
    /><text x="0" y="12">\sqrt</text></g><g 
      transform="translate(86.7,84.57)"
    ><rect 
      x="0" y="0" width="25.5" height="10.2"
      stroke="black" stroke-width="1" fill-opacity="0.1"
    /><text x="0" y="12">\bar</text></g><g 
      transform="translate(86.7,94.76999999999998)"
    ><rect 
      x="0" y="0" width="25.5" height="40.8"
      stroke="black" stroke-width="1" fill-opacity="0.1"
    /><text x="0" y="12">5</text></g><g 
      transform="translate(112.19999999999999,94.76999999999998)"
    ><rect 
      x="0" y="0" width="33.15" height="40.8"
      stroke="black" stroke-width="1" fill-opacity="0.1"
    /><text x="0" y="12">-</text></g><g 
      transform="translate(145.35,94.76999999999998)"
    ><rect 
      x="0" y="0" width="28.049999999999997" height="40.8"
      stroke="black" stroke-width="1" fill-opacity="0.1"
    /><text x="0" y="12">\phi</text></g><g 
      transform="translate(173.39999999999998,74.37)"
    ><rect 
      x="0" y="0" width="17.85" height="61.199999999999996"
      stroke="black" stroke-width="1" fill-opacity="0.1"
    /><text x="0" y="12">\right</text></g><g 
      transform="translate(173.39999999999998,74.37)"
    ><rect 
      x="0" y="0" width="17.85" height="61.199999999999996"
      stroke="black" stroke-width="1" fill-opacity="0.1"
    /><text x="0" y="12">)</text></g><g 
      transform="translate(191.25,94.76999999999998)"
    ><rect 
      x="0" y="0" width="22.95" height="40.8"
      stroke="black" stroke-width="1" fill-opacity="0.1"
    /><text x="0" y="12">e</text></g><g 
      transform="translate(214.2,91.71000000000001)"
    ><rect 
      x="0" y="0" width="16.25625" height="6.120000000000003"
      stroke="black" stroke-width="1" fill-opacity="0.1"
    /><text x="0" y="12">\bar</text></g><g 
      transform="translate(214.2,65.69999999999999)"
    ><rect 
      x="0" y="0" width="16.25625" height="26.009999999999998"
      stroke="black" stroke-width="1" fill-opacity="0.1"
    /><text x="0" y="12">2</text></g><g 
      transform="translate(214.2,97.83)"
    ><rect 
      x="0" y="0" width="16.25625" height="26.009999999999998"
      stroke="black" stroke-width="1" fill-opacity="0.1"
    /><text x="0" y="12">5</text></g><g 
      transform="translate(230.45624999999998,79.47)"
    ><rect 
      x="0" y="0" width="21.0375" height="30.599999999999998"
      stroke="black" stroke-width="1" fill-opacity="0.1"
    /><text x="0" y="12">\pi</text></g><g 
      transform="translate(251.49374999999998,36.9)"
    ><rect 
      x="0" y="0" width="39" height="48"
      stroke="black" stroke-width="1" fill-opacity="0.1"
    /><text x="0" y="12">\equiv</text></g><g 
      transform="translate(290.49375,36.9)"
    ><rect 
      x="0" y="0" width="30" height="48"
      stroke="black" stroke-width="1" fill-opacity="0.1"
    /><text x="0" y="12">1</text></g><g 
      transform="translate(320.49375,36.9)"
    ><rect 
      x="0" y="0" width="39" height="48"
      stroke="black" stroke-width="1" fill-opacity="0.1"
    /><text x="0" y="12">+</text></g><g 
      transform="translate(359.49375,56.09999999999999)"
    ><rect 
      x="0" y="0" width="210.38583749999998" height="9.599999999999998"
      stroke="black" stroke-width="1" fill-opacity="0.1"
    /><text x="0" y="12">\bar</text></g><g 
      transform="translate(420.69916875,15.299999999999999)"
    ><rect 
      x="0" y="0" width="22.95" height="40.8"
      stroke="black" stroke-width="1" fill-opacity="0.1"
    /><text x="0" y="12">e</text></g><g 
      transform="translate(443.64916875000006,0)"
    ><rect 
      x="0" y="0" width="24.862499999999997" height="30.599999999999998"
      stroke="black" stroke-width="1" fill-opacity="0.1"
    /><text x="0" y="12">-</text></g><g 
      transform="translate(468.51166875,0)"
    ><rect 
      x="0" y="0" width="19.125" height="30.599999999999998"
      stroke="black" stroke-width="1" fill-opacity="0.1"
    /><text x="0" y="12">2</text></g><g 
      transform="translate(487.63666875,0)"
    ><rect 
      x="0" y="0" width="21.0375" height="30.599999999999998"
      stroke="black" stroke-width="1" fill-opacity="0.1"
    /><text x="0" y="12">\pi</text></g><g 
      transform="translate(359.49375,97.065)"
    ><rect 
      x="0" y="0" width="25.5" height="40.8"
      stroke="black" stroke-width="1" fill-opacity="0.1"
    /><text x="0" y="12">1</text></g><g 
      transform="translate(384.99375000000003,97.065)"
    ><rect 
      x="0" y="0" width="33.15" height="40.8"
      stroke="black" stroke-width="1" fill-opacity="0.1"
    /><text x="0" y="12">+</text></g><g 
      transform="translate(418.14374999999995,113.385)"
    ><rect 
      x="0" y="0" width="151.73583749999997" height="8.159999999999997"
      stroke="black" stroke-width="1" fill-opacity="0.1"
    /><text x="0" y="12">\bar</text></g><g 
      transform="translate(456.6222937499999,78.705)"
    ><rect 
      x="0" y="0" width="19.5075" height="34.67999999999999"
      stroke="black" stroke-width="1" fill-opacity="0.1"
    /><text x="0" y="12">e</text></g><g 
      transform="translate(476.12979375,65.69999999999999)"
    ><rect 
      x="0" y="0" width="21.133125" height="26.009999999999998"
      stroke="black" stroke-width="1" fill-opacity="0.1"
    /><text x="0" y="12">-</text></g><g 
      transform="translate(497.2629187499999,65.69999999999999)"
    ><rect 
      x="0" y="0" width="16.25625" height="26.009999999999998"
      stroke="black" stroke-width="1" fill-opacity="0.1"
    /><text x="0" y="12">4</text></g><g 
      transform="translate(513.51916875,65.69999999999999)"
    ><rect 
      x="0" y="0" width="17.881875" height="26.009999999999998"
      stroke="black" stroke-width="1" fill-opacity="0.1"
    /><text x="0" y="12">\pi</text></g><g 
      transform="translate(418.14374999999995,148.20525)"
    ><rect 
      x="0" y="0" width="21.674999999999997" height="34.67999999999999"
      stroke="black" stroke-width="1" fill-opacity="0.1"
    /><text x="0" y="12">1</text></g><g 
      transform="translate(439.81874999999997,148.20525)"
    ><rect 
      x="0" y="0" width="28.177499999999995" height="34.67999999999999"
      stroke="black" stroke-width="1" fill-opacity="0.1"
    /><text x="0" y="12">+</text></g><g 
      transform="translate(467.99625000000003,162.07725)"
    ><rect 
      x="0" y="0" width="101.88333749999998" height="6.935999999999993"
      stroke="black" stroke-width="1" fill-opacity="0.1"
    /><text x="0" y="12">\bar</text></g><g 
      transform="translate(487.15695,132.59925)"
    ><rect 
      x="0" y="0" width="16.581375" height="29.477999999999994"
      stroke="black" stroke-width="1" fill-opacity="0.1"
    /><text x="0" y="12">e</text></g><g 
      transform="translate(503.73832500000003,121.545)"
    ><rect 
      x="0" y="0" width="17.963156249999997" height="22.1085"
      stroke="black" stroke-width="1" fill-opacity="0.1"
    /><text x="0" y="12">-</text></g><g 
      transform="translate(521.70148125,121.545)"
    ><rect 
      x="0" y="0" width="13.817812500000002" height="22.1085"
      stroke="black" stroke-width="1" fill-opacity="0.1"
    /><text x="0" y="12">6</text></g><g 
      transform="translate(535.5192937500001,121.545)"
    ><rect 
      x="0" y="0" width="15.199593749999998" height="22.1085"
      stroke="black" stroke-width="1" fill-opacity="0.1"
    /><text x="0" y="12">\pi</text></g><g 
      transform="translate(467.99625000000003,191.6744625)"
    ><rect 
      x="0" y="0" width="18.42375" height="29.477999999999994"
      stroke="black" stroke-width="1" fill-opacity="0.1"
    /><text x="0" y="12">1</text></g><g 
      transform="translate(486.41999999999996,191.6744625)"
    ><rect 
      x="0" y="0" width="23.950874999999996" height="29.477999999999994"
      stroke="black" stroke-width="1" fill-opacity="0.1"
    /><text x="0" y="12">+</text></g><g 
      transform="translate(510.370875,203.46566249999995)"
    ><rect 
      x="0" y="0" width="59.5087125" height="5.895599999999993"
      stroke="black" stroke-width="1" fill-opacity="0.1"
    /><text x="0" y="12">\bar</text></g><g 
      transform="translate(513.1114078125,178.40936250000001)"
    ><rect 
      x="0" y="0" width="14.094168749999998" height="25.056299999999993"
      stroke="black" stroke-width="1" fill-opacity="0.1"
    /><text x="0" y="12">e</text></g><g 
      transform="translate(527.2055765625,169.01325)"
    ><rect 
      x="0" y="0" width="15.268682812499996" height="18.792225"
      stroke="black" stroke-width="1" fill-opacity="0.1"
    /><text x="0" y="12">-</text></g><g 
      transform="translate(542.4742593750001,169.01325)"
    ><rect 
      x="0" y="0" width="11.745140625000001" height="18.792225"
      stroke="black" stroke-width="1" fill-opacity="0.1"
    /><text x="0" y="12">8</text></g><g 
      transform="translate(554.2194,169.01325)"
    ><rect 
      x="0" y="0" width="12.919654687499998" height="18.792225"
      stroke="black" stroke-width="1" fill-opacity="0.1"
    /><text x="0" y="12">\pi</text></g><g 
      transform="translate(510.370875,209.3612625)"
    ><rect 
      x="0" y="0" width="15.660187499999997" height="25.056299999999993"
      stroke="black" stroke-width="1" fill-opacity="0.1"
    /><text x="0" y="12">1</text></g><g 
      transform="translate(526.0310625000001,209.3612625)"
    ><rect 
      x="0" y="0" width="20.358243749999996" height="25.056299999999993"
      stroke="black" stroke-width="1" fill-opacity="0.1"
    /><text x="0" y="12">+</text></g><g 
      transform="translate(546.38930625,209.3612625)"
    ><rect 
      x="0" y="0" width="7.830093749999999" height="25.056299999999993"
      stroke="black" stroke-width="1" fill-opacity="0.1"
    /><text x="0" y="12">\cdot</text></g><g 
      transform="translate(554.2194,209.3612625)"
    ><rect 
      x="0" y="0" width="7.830093749999999" height="25.056299999999993"
      stroke="black" stroke-width="1" fill-opacity="0.1"
    /><text x="0" y="12">\cdot</text></g><g 
      transform="translate(562.04949375,209.3612625)"
    ><rect 
      x="0" y="0" width="7.830093749999999" height="25.056299999999993"
      stroke="black" stroke-width="1" fill-opacity="0.1"
    /><text x="0" y="12">\cdot</text></g></g></svg>