<svg 
      xmlns="http://www.w3.org/2000/svg" 
      width="800" height="282.41756250000003"
      fill="none" stroke="black" stroke-width="2" 
      stroke-linecap="round" stroke-linejoin="round"
    ><rect x="0" y="0" width="800" height="282.41756250000003" fill="white" stroke="none"></rect><path d="M24 84.9 275.49 84.9 M144.65 49.5 147.2 48.22 151.02 44.4 151.02 71.18 M149.75 45.68 149.75 71.18 M144.65 71.18 156.12 71.18 M38.03 98.37 35.48 102.2 32.92 107.93 30.38 115.58 29.1 125.14 29.1 132.8 30.38 142.36 32.92 150.01 35.48 155.75 38.03 159.57 M35.48 102.2 32.92 109.85 31.65 115.58 30.38 125.14 30.38 132.8 31.65 142.36 32.92 148.09 35.48 155.75 M41.85 135.77 45.25 135.77 51.37 156.17 M44.57 137.47 51.37 159.57 M62.25 103.47 51.37 159.57 M62.25 103.47 136.2 103.47 M80.1 123.87 72.45 159.57 M81.38 123.87 71.18 159.57 M75 132.79 69.9 134.07 67.35 136.62 66.08 140.44 66.08 144.27 67.35 146.82 69.9 149.37 73.72 150.64 77.55 150.64 82.65 149.37 85.2 146.82 86.48 142.99 86.48 139.17 85.2 136.62 82.65 134.07 78.82 132.79 75 132.79 M75 132.79 71.18 134.07 68.63 136.62 67.35 140.44 67.35 144.27 68.63 146.82 71.18 149.37 73.72 150.64 M77.55 150.64 81.38 149.37 83.93 146.82 85.2 142.99 85.2 139.17 83.93 136.62 81.38 134.07 78.82 132.79 M90.3 140.1 93.7 140.1 99.82 156.79 M93.02 141.49 99.82 159.57 M110.7 113.67 99.82 159.57 M110.7 113.67 136.2 113.67 M117.08 123.87 114.53 136.62 M114.53 136.62 117.08 134.07 120.9 132.79 124.73 132.79 128.55 134.07 131.1 136.62 132.38 140.44 132.38 142.99 131.1 146.82 128.55 149.37 124.73 150.64 120.9 150.64 117.08 149.37 115.8 148.09 114.53 145.54 114.53 144.27 115.8 142.99 117.08 144.27 115.8 145.54 M124.73 132.79 127.28 134.07 129.83 136.62 131.1 140.44 131.1 142.99 129.83 146.82 127.28 149.37 124.73 150.64 M117.08 123.87 129.83 123.87 M117.08 125.14 123.45 125.14 129.83 123.87 M141.3 139.17 164.25 139.17 M187.2 123.87 179.55 159.57 M188.48 123.87 178.27 159.57 M182.1 132.79 177 134.07 174.45 136.62 173.18 140.44 173.18 144.27 174.45 146.82 177 149.37 180.83 150.64 184.65 150.64 189.75 149.37 192.3 146.82 193.58 142.99 193.58 139.17 192.3 136.62 189.75 134.07 185.93 132.79 182.1 132.79 M182.1 132.79 178.27 134.07 175.73 136.62 174.45 140.44 174.45 144.27 175.73 146.82 178.27 149.37 180.83 150.64 M184.65 150.64 188.48 149.37 191.02 146.82 192.3 142.99 192.3 139.17 191.02 136.62 188.48 134.07 185.93 132.79 M201.23 98.37 203.77 102.2 206.33 107.93 208.88 115.58 210.15 125.14 210.15 132.8 208.88 142.36 206.33 150.01 203.77 155.75 201.23 159.57 M203.77 102.2 206.33 109.85 207.6 115.58 208.88 125.14 208.88 132.8 207.6 142.36 206.33 148.09 203.77 155.75 M220.35 144.27 225.45 142.99 229.27 141.72 233.1 139.17 234.38 136.62 233.1 134.07 230.55 132.79 226.73 132.79 222.9 134.07 220.35 137.89 219.08 141.72 219.08 145.54 220.35 148.09 221.63 149.37 224.18 150.64 226.73 150.64 230.55 149.37 233.1 146.82 M226.73 132.79 224.18 134.07 221.63 137.89 220.35 141.72 220.35 146.82 221.63 149.37 M238.2 118.77 254.46 118.77 M241.45 96.2 242.26 97.02 241.45 97.83 240.64 97.02 240.64 96.2 241.45 94.58 242.26 93.76 244.7 92.95 247.95 92.95 250.39 93.76 251.2 94.58 252.02 96.2 252.02 97.83 251.2 99.45 248.77 101.08 244.7 102.71 243.08 103.52 241.45 105.14 240.64 107.58 240.64 110.02 M247.95 92.95 249.58 93.76 250.39 94.58 251.2 96.2 251.2 97.83 250.39 99.45 247.95 101.08 244.7 102.71 M240.64 108.39 241.45 107.58 243.08 107.58 247.14 109.21 249.58 109.21 251.2 108.39 252.02 107.58 M243.08 107.58 247.14 110.02 250.39 110.02 251.2 109.21 252.02 107.58 252.02 105.96 M242.26 125.08 240.64 133.21 M240.64 133.21 242.26 131.58 244.7 130.77 247.14 130.77 249.58 131.58 251.2 133.21 252.02 135.65 252.02 137.27 251.2 139.71 249.58 141.34 247.14 142.15 244.7 142.15 242.26 141.34 241.45 140.52 240.64 138.9 240.64 138.09 241.45 137.27 242.26 138.09 241.45 138.9 M247.14 130.77 248.77 131.58 250.39 133.21 251.2 135.65 251.2 137.27 250.39 139.71 248.77 141.34 247.14 142.15 M242.26 125.08 250.39 125.08 M242.26 125.89 246.33 125.89 250.39 125.08 M263.06 114.95 259.24 127.38 M263.06 114.95 260.19 127.38 M268.8 114.95 268.8 127.38 M268.8 114.95 269.76 127.38 M256.37 116.86 258.28 114.95 261.15 113.99 273.58 113.99 M256.37 116.86 258.28 115.9 261.15 114.95 273.58 114.95 M281.49 77.4 308.49 77.4 M281.49 84.9 308.49 84.9 M281.49 92.4 308.49 92.4 M323.49 72.9 326.49 71.4 330.99 66.9 330.99 98.4 M329.49 68.4 329.49 98.4 M323.49 98.4 336.99 98.4 M363.99 71.4 363.99 98.4 M350.49 84.9 377.49 84.9 M383.49 84.9 593.88 84.9 M449.8 64.8 454.9 63.53 458.72 62.25 462.55 59.7 463.82 57.15 462.55 54.6 460 53.33 456.17 53.33 452.35 54.6 449.8 58.43 448.52 62.25 448.52 66.07 449.8 68.63 451.07 69.9 453.62 71.18 456.17 71.18 460 69.9 462.55 67.35 M456.17 53.33 453.62 54.6 451.07 58.43 449.8 62.25 449.8 67.35 451.07 69.9 M471.47 39.3 488.69 39.3 M496.34 31.65 497.29 32.61 496.34 33.56 495.38 32.61 495.38 31.65 496.34 29.74 497.29 28.78 500.16 27.83 503.99 27.83 506.86 28.78 507.81 29.74 508.77 31.65 508.77 33.56 507.81 35.48 504.94 37.39 500.16 39.3 498.25 40.26 496.34 42.17 495.38 45.04 495.38 47.91 M503.99 27.83 505.9 28.78 506.86 29.74 507.81 31.65 507.81 33.56 506.86 35.48 503.99 37.39 500.16 39.3 M495.38 45.99 496.34 45.04 498.25 45.04 503.03 46.95 505.9 46.95 507.81 45.99 508.77 45.04 M498.25 45.04 503.03 47.91 506.86 47.91 507.81 46.95 508.77 45.04 508.77 43.13 M520.24 35.48 516.42 47.91 M520.24 35.48 517.37 47.91 M525.98 35.48 525.98 47.91 M525.98 35.48 526.94 47.91 M513.55 37.39 515.46 35.48 518.33 34.52 530.76 34.52 M513.55 37.39 515.46 36.43 518.33 35.48 530.76 35.48 M391.14 131.26 393.69 129.99 397.52 126.16 397.52 152.94 M396.24 127.44 396.24 152.94 M391.14 152.94 402.62 152.94 M425.57 129.99 425.57 152.94 M414.09 141.46 437.04 141.46 M442.14 141.47 593.88 141.47 M484.96 124.38 489.29 123.3 492.54 122.21 495.79 120.05 496.88 117.88 495.79 115.71 493.63 114.63 490.38 114.63 487.12 115.71 484.96 118.96 483.87 122.21 483.87 125.46 484.96 127.63 486.04 128.72 488.21 129.8 490.38 129.8 493.63 128.72 495.79 126.55 M490.38 114.63 488.21 115.71 486.04 118.96 484.96 122.21 484.96 126.55 486.04 128.72 M503.38 102.71 518.01 102.71 M531.02 94.58 531.02 110.02 M531.83 92.95 531.83 110.02 M531.83 92.95 522.89 105.14 535.89 105.14 M528.58 110.02 534.27 110.02 M544.83 99.45 541.58 110.02 M544.83 99.45 542.4 110.02 M549.71 99.45 549.71 110.02 M549.71 99.45 550.52 110.02 M539.14 101.08 540.77 99.45 543.21 98.64 553.78 98.64 M539.14 101.08 540.77 100.27 543.21 99.45 553.78 99.45 M448.65 180.88 450.81 179.79 454.06 176.54 454.06 199.3 M452.98 177.62 452.98 199.3 M448.65 199.3 458.4 199.3 M477.91 179.79 477.91 199.3 M468.15 189.55 487.66 189.55 M492 189.55 593.88 189.55 M514.84 175.02 518.53 174.1 521.29 173.18 524.05 171.34 524.97 169.5 524.05 167.65 522.21 166.73 519.45 166.73 516.68 167.65 514.84 170.42 513.92 173.18 513.92 175.94 514.84 177.79 515.76 178.71 517.61 179.63 519.45 179.63 522.21 178.71 524.05 176.87 M519.45 166.73 517.61 167.65 515.76 170.42 514.84 173.18 514.84 176.87 515.76 178.71 M530.5 156.6 542.94 156.6 M556.06 150.38 555.37 151.07 556.06 151.76 556.76 151.07 556.76 150.38 556.06 149 554.68 148.31 552.61 148.31 550.54 149 549.16 150.38 548.47 151.76 547.77 154.53 547.77 158.67 548.47 160.74 549.85 162.13 551.92 162.82 553.3 162.82 555.37 162.13 556.76 160.74 557.45 158.67 557.45 157.98 556.76 155.91 555.37 154.53 553.3 153.84 552.61 153.84 550.54 154.53 549.16 155.91 548.47 157.98 M552.61 148.31 551.23 149 549.85 150.38 549.16 151.76 548.47 154.53 548.47 158.67 549.16 160.74 550.54 162.13 551.92 162.82 M553.3 162.82 554.68 162.13 556.06 160.74 556.76 158.67 556.76 157.98 556.06 155.91 554.68 154.53 553.3 153.84 M565.74 153.84 562.97 162.82 M565.74 153.84 563.66 162.82 M569.88 153.84 569.88 162.82 M569.88 153.84 570.57 162.82 M560.9 155.22 562.28 153.84 564.36 153.14 573.34 153.14 M560.9 155.22 562.28 154.53 564.36 153.84 573.34 153.84 M497.52 223.04 499.37 222.12 502.13 219.36 502.13 238.7 M501.21 220.28 501.21 238.7 M497.52 238.7 505.81 238.7 M522.4 222.12 522.4 238.7 M514.1 230.41 530.69 230.41 M534.37 230.41 593.88 230.41 M540.24 218.07 543.38 217.29 545.72 216.5 548.07 214.94 548.86 213.37 548.07 211.81 546.51 211.02 544.16 211.02 541.81 211.81 540.24 214.15 539.46 216.5 539.46 218.85 540.24 220.42 541.03 221.2 542.59 221.98 544.16 221.98 546.51 221.2 548.07 219.64 M544.16 211.02 542.59 211.81 541.03 214.15 540.24 216.5 540.24 219.64 541.03 221.2 M553.55 202.41 564.13 202.41 M571.17 195.36 569.41 195.95 568.82 197.12 568.82 198.89 569.41 200.06 571.17 200.65 573.52 200.65 575.28 200.06 575.87 198.89 575.87 197.12 575.28 195.95 573.52 195.36 571.17 195.36 M571.17 195.36 570 195.95 569.41 197.12 569.41 198.89 570 200.06 571.17 200.65 M573.52 200.65 574.7 200.06 575.28 198.89 575.28 197.12 574.7 195.95 573.52 195.36 M571.17 200.65 569.41 201.23 568.82 201.82 568.24 203 568.24 205.35 568.82 206.52 569.41 207.11 571.17 207.69 573.52 207.69 575.28 207.11 575.87 206.52 576.46 205.35 576.46 203 575.87 201.82 575.28 201.23 573.52 200.65 M571.17 200.65 570 201.23 569.41 201.82 568.82 203 568.82 205.35 569.41 206.52 570 207.11 571.17 207.69 M573.52 207.69 574.7 207.11 575.28 206.52 575.87 205.35 575.87 203 575.28 201.82 574.7 201.23 573.52 200.65 M583.5 200.06 581.16 207.69 M583.5 200.06 581.74 207.69 M587.03 200.06 587.03 207.69 M587.03 200.06 587.62 207.69 M579.39 201.23 580.57 200.06 582.33 199.47 589.96 199.47 M579.39 201.23 580.57 200.65 582.33 200.06 589.96 200.06 M539.07 239.63 540.63 238.84 542.98 236.49 542.98 252.94 M542.2 237.28 542.2 252.94 M539.07 252.94 546.12 252.94 M560.21 238.84 560.21 252.94 M553.16 245.89 567.26 245.89 M574.3 245.11 573.52 245.89 574.3 246.67 575.09 245.89 574.3 245.11 M582.13 245.11 581.35 245.89 582.13 246.67 582.92 245.89 582.13 245.11 M589.96 245.11 589.18 245.89 589.96 246.67 590.75 245.89 589.96 245.11 "/></svg>