<svg 
    xmlns="http://www.w3.org/2000/svg" 
    width="569.8795875" height="234.41756250000003"
    viewBox="0 0 569.8795875 234.41756250000003"
  ><rect x="0" y="0" width="569.8795875" height="234.41756250000003" fill="white"></rect><g 
      transform="translate(0,0)"
    ><rect 
      x="0" y="0" width="569.8795875" height="234.41756250000003"
      stroke="black" stroke-width="1" fill-opacity="0.1"
    /><g 
      transform="translate(0,15.299999999999999)"
    ><rect 
      x="0" y="0" width="251.49374999999998" height="120.27000000000001"
      stroke="black" stroke-width="1" fill-opacity="0.1"
    /><g 
      transform="translate(112.99687499999999,0)"
    ><rect 
      x="0" y="0" width="25.5" height="40.8"
      stroke="black" stroke-width="1" fill-opacity="0.1"
    /><text x="0" y="12">1</text></g><g 
      transform="translate(0,50.400000000000006)"
    ><rect 
      x="0" y="0" width="251.49374999999998" height="69.87"
      stroke="black" stroke-width="1" fill-opacity="0.1"
    /><g 
      transform="translate(0,8.669999999999996)"
    ><rect 
      x="0" y="0" width="17.85" height="61.199999999999996"
      stroke="black" stroke-width="1" fill-opacity="0.1"
    /><g 
      transform="translate(0,0)"
    ><rect 
      x="0" y="0" width="17.85" height="61.199999999999996"
      stroke="black" stroke-width="1" fill-opacity="0.1"
    /><text x="0" y="12">(</text></g></g><g 
      transform="translate(17.85,8.669999999999996)"
    ><rect 
      x="0" y="0" width="94.35" height="61.199999999999996"
      stroke="black" stroke-width="1" fill-opacity="0.1"
    /><g 
      transform="translate(20.4,10.2)"
    ><rect 
      x="0" y="0" width="73.94999999999999" height="51"
      stroke="black" stroke-width="1" fill-opacity="0.1"
    /><g 
      transform="translate(0,10.2)"
    ><rect 
      x="0" y="0" width="28.049999999999997" height="40.8"
      stroke="black" stroke-width="1" fill-opacity="0.1"
    /><text x="0" y="12">\phi</text></g><g 
      transform="translate(28.049999999999997,0)"
    ><rect 
      x="0" y="0" width="45.9" height="51"
      stroke="black" stroke-width="1" fill-opacity="0.1"
    /><g 
      transform="translate(20.4,10.2)"
    ><rect 
      x="0" y="0" width="25.5" height="40.8"
      stroke="black" stroke-width="1" fill-opacity="0.1"
    /><text x="0" y="12">5</text></g></g></g></g><g 
      transform="translate(112.19999999999999,29.069999999999993)"
    ><rect 
      x="0" y="0" width="33.15" height="40.8"
      stroke="black" stroke-width="1" fill-opacity="0.1"
    /><text x="0" y="12">-</text></g><g 
      transform="translate(145.35,29.069999999999993)"
    ><rect 
      x="0" y="0" width="28.049999999999997" height="40.8"
      stroke="black" stroke-width="1" fill-opacity="0.1"
    /><text x="0" y="12">\phi</text></g><g 
      transform="translate(173.39999999999998,8.669999999999996)"
    ><rect 
      x="0" y="0" width="17.85" height="61.199999999999996"
      stroke="black" stroke-width="1" fill-opacity="0.1"
    /><g 
      transform="translate(0,0)"
    ><rect 
      x="0" y="0" width="17.85" height="61.199999999999996"
      stroke="black" stroke-width="1" fill-opacity="0.1"
    /><text x="0" y="12">)</text></g></g><g 
      transform="translate(191.25,29.069999999999993)"
    ><rect 
      x="0" y="0" width="22.95" height="40.8"
      stroke="black" stroke-width="1" fill-opacity="0.1"
    /><text x="0" y="12">e</text></g><g 
      transform="translate(214.2,0)"
    ><rect 
      x="0" y="0" width="37.29375" height="58.139999999999986"
      stroke="black" stroke-width="1" fill-opacity="0.1"
    /><g 
      transform="translate(0,0)"
    ><rect 
      x="0" y="0" width="37.29375" height="58.139999999999986"
      stroke="black" stroke-width="1" fill-opacity="0.1"
    /><g 
      transform="translate(0,0)"
    ><rect 
      x="0" y="0" width="16.25625" height="58.139999999999986"
      stroke="black" stroke-width="1" fill-opacity="0.1"
    /><g 
      transform="translate(0,0)"
    ><rect 
      x="0" y="0" width="16.25625" height="26.009999999999998"
      stroke="black" stroke-width="1" fill-opacity="0.1"
    /><text x="0" y="12">2</text></g><g 
      transform="translate(0,32.13)"
    ><rect 
      x="0" y="0" width="16.25625" height="26.009999999999998"
      stroke="black" stroke-width="1" fill-opacity="0.1"
    /><text x="0" y="12">5</text></g></g><g 
      transform="translate(16.25625,13.77)"
    ><rect 
      x="0" y="0" width="21.0375" height="30.599999999999998"
      stroke="black" stroke-width="1" fill-opacity="0.1"
    /><text x="0" y="12">\pi</text></g></g></g></g></g><g 
      transform="translate(251.49374999999998,36.9)"
    ><rect 
      x="0" y="0" width="39" height="48"
      stroke="black" stroke-width="1" fill-opacity="0.1"
    /><text x="0" y="12">\equiv</text></g><g 
      transform="translate(290.49375,36.9)"
    ><rect 
      x="0" y="0" width="30" height="48"
      stroke="black" stroke-width="1" fill-opacity="0.1"
    /><text x="0" y="12">1</text></g><g 
      transform="translate(320.49375,36.9)"
    ><rect 
      x="0" y="0" width="39" height="48"
      stroke="black" stroke-width="1" fill-opacity="0.1"
    /><text x="0" y="12">+</text></g><g 
      transform="translate(359.49375,0)"
    ><rect 
      x="0" y="0" width="210.38583749999998" height="234.41756250000003"
      stroke="black" stroke-width="1" fill-opacity="0.1"
    /><g 
      transform="translate(61.20541874999998,0)"
    ><rect 
      x="0" y="0" width="87.975" height="56.099999999999994"
      stroke="black" stroke-width="1" fill-opacity="0.1"
    /><g 
      transform="translate(0,15.299999999999999)"
    ><rect 
      x="0" y="0" width="22.95" height="40.8"
      stroke="black" stroke-width="1" fill-opacity="0.1"
    /><text x="0" y="12">e</text></g><g 
      transform="translate(22.95,0)"
    ><rect 
      x="0" y="0" width="65.025" height="30.599999999999998"
      stroke="black" stroke-width="1" fill-opacity="0.1"
    /><g 
      transform="translate(0,0)"
    ><rect 
      x="0" y="0" width="65.025" height="30.599999999999998"
      stroke="black" stroke-width="1" fill-opacity="0.1"
    /><g 
      transform="translate(0,0)"
    ><rect 
      x="0" y="0" width="24.862499999999997" height="30.599999999999998"
      stroke="black" stroke-width="1" fill-opacity="0.1"
    /><text x="0" y="12">-</text></g><g 
      transform="translate(24.862499999999997,0)"
    ><rect 
      x="0" y="0" width="19.125" height="30.599999999999998"
      stroke="black" stroke-width="1" fill-opacity="0.1"
    /><text x="0" y="12">2</text></g><g 
      transform="translate(43.9875,0)"
    ><rect 
      x="0" y="0" width="21.0375" height="30.599999999999998"
      stroke="black" stroke-width="1" fill-opacity="0.1"
    /><text x="0" y="12">\pi</text></g></g></g></g><g 
      transform="translate(0,65.69999999999999)"
    ><rect 
      x="0" y="0" width="210.38583749999998" height="168.7175625"
      stroke="black" stroke-width="1" fill-opacity="0.1"
    /><g 
      transform="translate(0,31.364999999999995)"
    ><rect 
      x="0" y="0" width="25.5" height="40.8"
      stroke="black" stroke-width="1" fill-opacity="0.1"
    /><text x="0" y="12">1</text></g><g 
      transform="translate(25.5,31.364999999999995)"
    ><rect 
      x="0" y="0" width="33.15" height="40.8"
      stroke="black" stroke-width="1" fill-opacity="0.1"
    /><text x="0" y="12">+</text></g><g 
      transform="translate(58.650000000000006,0)"
    ><rect 
      x="0" y="0" width="151.73583749999997" height="168.7175625"
      stroke="black" stroke-width="1" fill-opacity="0.1"
    /><g 
      transform="translate(38.478543749999986,0)"
    ><rect 
      x="0" y="0" width="74.77875" height="47.685"
      stroke="black" stroke-width="1" fill-opacity="0.1"
    /><g 
      transform="translate(0,13.004999999999999)"
    ><rect 
      x="0" y="0" width="19.5075" height="34.67999999999999"
      stroke="black" stroke-width="1" fill-opacity="0.1"
    /><text x="0" y="12">e</text></g><g 
      transform="translate(19.5075,0)"
    ><rect 
      x="0" y="0" width="55.27125000000001" height="26.009999999999998"
      stroke="black" stroke-width="1" fill-opacity="0.1"
    /><g 
      transform="translate(0,0)"
    ><rect 
      x="0" y="0" width="55.27125000000001" height="26.009999999999998"
      stroke="black" stroke-width="1" fill-opacity="0.1"
    /><g 
      transform="translate(0,0)"
    ><rect 
      x="0" y="0" width="21.133125" height="26.009999999999998"
      stroke="black" stroke-width="1" fill-opacity="0.1"
    /><text x="0" y="12">-</text></g><g 
      transform="translate(21.133125,0)"
    ><rect 
      x="0" y="0" width="16.25625" height="26.009999999999998"
      stroke="black" stroke-width="1" fill-opacity="0.1"
    /><text x="0" y="12">4</text></g><g 
      transform="translate(37.389375,0)"
    ><rect 
      x="0" y="0" width="17.881875" height="26.009999999999998"
      stroke="black" stroke-width="1" fill-opacity="0.1"
    /><text x="0" y="12">\pi</text></g></g></g></g><g 
      transform="translate(0,55.845)"
    ><rect 
      x="0" y="0" width="151.73583749999997" height="112.87256249999999"
      stroke="black" stroke-width="1" fill-opacity="0.1"
    /><g 
      transform="translate(0,26.66024999999999)"
    ><rect 
      x="0" y="0" width="21.674999999999997" height="34.67999999999999"
      stroke="black" stroke-width="1" fill-opacity="0.1"
    /><text x="0" y="12">1</text></g><g 
      transform="translate(21.674999999999997,26.66024999999999)"
    ><rect 
      x="0" y="0" width="28.177499999999995" height="34.67999999999999"
      stroke="black" stroke-width="1" fill-opacity="0.1"
    /><text x="0" y="12">+</text></g><g 
      transform="translate(49.8525,0)"
    ><rect 
      x="0" y="0" width="101.88333749999998" height="112.87256249999999"
      stroke="black" stroke-width="1" fill-opacity="0.1"
    /><g 
      transform="translate(19.1607,0)"
    ><rect 
      x="0" y="0" width="63.56193749999999" height="40.53225"
      stroke="black" stroke-width="1" fill-opacity="0.1"
    /><g 
      transform="translate(0,11.05425)"
    ><rect 
      x="0" y="0" width="16.581375" height="29.477999999999994"
      stroke="black" stroke-width="1" fill-opacity="0.1"
    /><text x="0" y="12">e</text></g><g 
      transform="translate(16.581375,0)"
    ><rect 
      x="0" y="0" width="46.980562500000005" height="22.1085"
      stroke="black" stroke-width="1" fill-opacity="0.1"
    /><g 
      transform="translate(0,0)"
    ><rect 
      x="0" y="0" width="46.980562500000005" height="22.1085"
      stroke="black" stroke-width="1" fill-opacity="0.1"
    /><g 
      transform="translate(0,0)"
    ><rect 
      x="0" y="0" width="17.963156249999997" height="22.1085"
      stroke="black" stroke-width="1" fill-opacity="0.1"
    /><text x="0" y="12">-</text></g><g 
      transform="translate(17.963156249999997,0)"
    ><rect 
      x="0" y="0" width="13.817812500000002" height="22.1085"
      stroke="black" stroke-width="1" fill-opacity="0.1"
    /><text x="0" y="12">6</text></g><g 
      transform="translate(31.780968749999996,0)"
    ><rect 
      x="0" y="0" width="15.199593749999998" height="22.1085"
      stroke="black" stroke-width="1" fill-opacity="0.1"
    /><text x="0" y="12">\pi</text></g></g></g></g><g 
      transform="translate(0,47.46824999999999)"
    ><rect 
      x="0" y="0" width="101.88333749999998" height="65.4043125"
      stroke="black" stroke-width="1" fill-opacity="0.1"
    /><g 
      transform="translate(0,22.661212499999994)"
    ><rect 
      x="0" y="0" width="18.42375" height="29.477999999999994"
      stroke="black" stroke-width="1" fill-opacity="0.1"
    /><text x="0" y="12">1</text></g><g 
      transform="translate(18.42375,22.661212499999994)"
    ><rect 
      x="0" y="0" width="23.950874999999996" height="29.477999999999994"
      stroke="black" stroke-width="1" fill-opacity="0.1"
    /><text x="0" y="12">+</text></g><g 
      transform="translate(42.374624999999995,0)"
    ><rect 
      x="0" y="0" width="59.5087125" height="65.4043125"
      stroke="black" stroke-width="1" fill-opacity="0.1"
    /><g 
      transform="translate(2.740532812499998,0)"
    ><rect 
      x="0" y="0" width="54.02764687499999" height="34.452412499999994"
      stroke="black" stroke-width="1" fill-opacity="0.1"
    /><g 
      transform="translate(0,9.3961125)"
    ><rect 
      x="0" y="0" width="14.094168749999998" height="25.056299999999993"
      stroke="black" stroke-width="1" fill-opacity="0.1"
    /><text x="0" y="12">e</text></g><g 
      transform="translate(14.094168749999998,0)"
    ><rect 
      x="0" y="0" width="39.933478125" height="18.792225"
      stroke="black" stroke-width="1" fill-opacity="0.1"
    /><g 
      transform="translate(0,0)"
    ><rect 
      x="0" y="0" width="39.933478125" height="18.792225"
      stroke="black" stroke-width="1" fill-opacity="0.1"
    /><g 
      transform="translate(0,0)"
    ><rect 
      x="0" y="0" width="15.268682812499996" height="18.792225"
      stroke="black" stroke-width="1" fill-opacity="0.1"
    /><text x="0" y="12">-</text></g><g 
      transform="translate(15.268682812499996,0)"
    ><rect 
      x="0" y="0" width="11.745140625000001" height="18.792225"
      stroke="black" stroke-width="1" fill-opacity="0.1"
    /><text x="0" y="12">8</text></g><g 
      transform="translate(27.013823437499994,0)"
    ><rect 
      x="0" y="0" width="12.919654687499998" height="18.792225"
      stroke="black" stroke-width="1" fill-opacity="0.1"
    /><text x="0" y="12">\pi</text></g></g></g></g><g 
      transform="translate(0,40.34801249999999)"
    ><rect 
      x="0" y="0" width="59.5087125" height="25.056299999999993"
      stroke="black" stroke-width="1" fill-opacity="0.1"
    /><g 
      transform="translate(0,0)"
    ><rect 
      x="0" y="0" width="15.660187499999997" height="25.056299999999993"
      stroke="black" stroke-width="1" fill-opacity="0.1"
    /><text x="0" y="12">1</text></g><g 
      transform="translate(15.660187499999997,0)"
    ><rect 
      x="0" y="0" width="20.358243749999996" height="25.056299999999993"
      stroke="black" stroke-width="1" fill-opacity="0.1"
    /><text x="0" y="12">+</text></g><g 
      transform="translate(36.01843125,0)"
    ><rect 
      x="0" y="0" width="7.830093749999999" height="25.056299999999993"
      stroke="black" stroke-width="1" fill-opacity="0.1"
    /><text x="0" y="12">\cdot</text></g><g 
      transform="translate(43.848524999999995,0)"
    ><rect 
      x="0" y="0" width="7.830093749999999" height="25.056299999999993"
      stroke="black" stroke-width="1" fill-opacity="0.1"
    /><text x="0" y="12">\cdot</text></g><g 
      transform="translate(51.67861874999999,0)"
    ><rect 
      x="0" y="0" width="7.830093749999999" height="25.056299999999993"
      stroke="black" stroke-width="1" fill-opacity="0.1"
    /><text x="0" y="12">\cdot</text></g></g></g></g></g></g></g></g></g></g></svg>