<svg 
    xmlns="http://www.w3.org/2000/svg" 
    width="422.68125000000003" height="114"
    viewBox="0 0 422.68125000000003 114"
  ><rect x="0" y="0" width="422.68125000000003" height="114" fill="white"></rect><g 
      transform="translate(0,0)"
    ><rect 
      x="0" y="0" width="422.68125000000003" height="114"
      stroke="black" stroke-width="1" fill-opacity="0.1"
    /><g 
      transform="translate(0,34.199999999999996)"
    ><rect 
      x="0" y="0" width="22.5" height="48"
      stroke="black" stroke-width="1" fill-opacity="0.1"
    /><text x="0" y="12">f</text></g><g 
      transform="translate(22.5,34.199999999999996)"
    ><rect 
      x="0" y="0" width="21" height="48"
      stroke="black" stroke-width="1" fill-opacity="0.1"
    /><text x="0" y="12">(</text></g><g 
      transform="translate(43.5,34.199999999999996)"
    ><rect 
      x="0" y="0" width="30" height="48"
      stroke="black" stroke-width="1" fill-opacity="0.1"
    /><text x="0" y="12">x</text></g><g 
      transform="translate(73.5,34.199999999999996)"
    ><rect 
      x="0" y="0" width="21" height="48"
      stroke="black" stroke-width="1" fill-opacity="0.1"
    /><text x="0" y="12">)</text></g><g 
      transform="translate(94.5,34.199999999999996)"
    ><rect 
      x="0" y="0" width="39" height="48"
      stroke="black" stroke-width="1" fill-opacity="0.1"
    /><text x="0" y="12">=</text></g><g 
      transform="translate(133.5,12.599999999999998)"
    ><rect 
      x="0" y="0" width="99.44999999999999" height="101.4"
      stroke="black" stroke-width="1" fill-opacity="0.1"
    /><g 
      transform="translate(36.974999999999994,0)"
    ><rect 
      x="0" y="0" width="25.5" height="40.8"
      stroke="black" stroke-width="1" fill-opacity="0.1"
    /><text x="0" y="12">1</text></g><g 
      transform="translate(0,50.400000000000006)"
    ><rect 
      x="0" y="0" width="99.44999999999999" height="51"
      stroke="black" stroke-width="1" fill-opacity="0.1"
    /><g 
      transform="translate(0,10.2)"
    ><rect 
      x="0" y="0" width="25.5" height="40.8"
      stroke="black" stroke-width="1" fill-opacity="0.1"
    /><text x="0" y="12">2</text></g><g 
      transform="translate(25.5,0)"
    ><rect 
      x="0" y="0" width="73.94999999999999" height="51"
      stroke="black" stroke-width="1" fill-opacity="0.1"
    /><g 
      transform="translate(20.4,10.2)"
    ><rect 
      x="0" y="0" width="53.55" height="40.8"
      stroke="black" stroke-width="1" fill-opacity="0.1"
    /><g 
      transform="translate(0,0)"
    ><rect 
      x="0" y="0" width="25.5" height="40.8"
      stroke="black" stroke-width="1" fill-opacity="0.1"
    /><text x="0" y="12">2</text></g><g 
      transform="translate(25.5,0)"
    ><rect 
      x="0" y="0" width="28.049999999999997" height="40.8"
      stroke="black" stroke-width="1" fill-opacity="0.1"
    /><text x="0" y="12">\pi</text></g></g></g></g></g><g 
      transform="translate(232.95000000000002,34.199999999999996)"
    ><rect 
      x="0" y="0" width="27" height="48"
      stroke="black" stroke-width="1" fill-opacity="0.1"
    /><text x="0" y="12">e</text></g><g 
      transform="translate(259.95000000000005,0)"
    ><rect 
      x="0" y="0" width="162.73125000000002" height="68.39999999999999"
      stroke="black" stroke-width="1" fill-opacity="0.1"
    /><g 
      transform="translate(0,0)"
    ><rect 
      x="0" y="0" width="162.73125000000002" height="68.39999999999999"
      stroke="black" stroke-width="1" fill-opacity="0.1"
    /><g 
      transform="translate(0,16.2)"
    ><rect 
      x="0" y="0" width="29.25" height="36"
      stroke="black" stroke-width="1" fill-opacity="0.1"
    /><text x="0" y="12">-</text></g><g 
      transform="translate(29.25,0)"
    ><rect 
      x="0" y="0" width="19.125" height="68.39999999999999"
      stroke="black" stroke-width="1" fill-opacity="0.1"
    /><g 
      transform="translate(0,0)"
    ><rect 
      x="0" y="0" width="19.125" height="30.599999999999998"
      stroke="black" stroke-width="1" fill-opacity="0.1"
    /><text x="0" y="12">1</text></g><g 
      transform="translate(0,37.800000000000004)"
    ><rect 
      x="0" y="0" width="19.125" height="30.599999999999998"
      stroke="black" stroke-width="1" fill-opacity="0.1"
    /><text x="0" y="12">2</text></g></g><g 
      transform="translate(48.375,16.2)"
    ><rect 
      x="0" y="0" width="15.75" height="36"
      stroke="black" stroke-width="1" fill-opacity="0.1"
    /><text x="0" y="12">(</text></g><g 
      transform="translate(64.125,0)"
    ><rect 
      x="0" y="0" width="65.98124999999999" height="68.39999999999999"
      stroke="black" stroke-width="1" fill-opacity="0.1"
    /><g 
      transform="translate(0,0)"
    ><rect 
      x="0" y="0" width="65.98124999999999" height="30.599999999999998"
      stroke="black" stroke-width="1" fill-opacity="0.1"
    /><g 
      transform="translate(0,0)"
    ><rect 
      x="0" y="0" width="19.125" height="30.599999999999998"
      stroke="black" stroke-width="1" fill-opacity="0.1"
    /><text x="0" y="12">x</text></g><g 
      transform="translate(19.125,0)"
    ><rect 
      x="0" y="0" width="24.862499999999997" height="30.599999999999998"
      stroke="black" stroke-width="1" fill-opacity="0.1"
    /><text x="0" y="12">-</text></g><g 
      transform="translate(43.987500000000004,0)"
    ><rect 
      x="0" y="0" width="21.993750000000002" height="30.599999999999998"
      stroke="black" stroke-width="1" fill-opacity="0.1"
    /><text x="0" y="12">\mu</text></g></g><g 
      transform="translate(22.95,37.800000000000004)"
    ><rect 
      x="0" y="0" width="20.081249999999997" height="30.599999999999998"
      stroke="black" stroke-width="1" fill-opacity="0.1"
    /><text x="0" y="12">\sigma</text></g></g><g 
      transform="translate(130.10625000000002,16.2)"
    ><rect 
      x="0" y="0" width="15.75" height="36"
      stroke="black" stroke-width="1" fill-opacity="0.1"
    /><text x="0" y="12">)</text></g><g 
      transform="translate(145.85625000000002,2.6999999999999984)"
    ><rect 
      x="0" y="0" width="16.875" height="27"
      stroke="black" stroke-width="1" fill-opacity="0.1"
    /><g 
      transform="translate(0,0)"
    ><rect 
      x="0" y="0" width="16.875" height="27"
      stroke="black" stroke-width="1" fill-opacity="0.1"
    /><text x="0" y="12">2</text></g></g></g></g></g></svg>