<svg 
      xmlns="http://www.w3.org/2000/svg" 
      width="800" height="196.20000000000002"
      fill="none" stroke="black" stroke-width="2" 
      stroke-linecap="round" stroke-linejoin="round"
    ><rect x="0" y="0" width="800" height="196.20000000000002" fill="white" stroke="none"></rect><path d="M30 86.7 28.5 89.7 28.5 92.7 30 95.7 33 97.2 37.5 97.2 42 95.7 45 94.2 49.5 89.7 51 85.2 51 83.7 49.5 82.2 48 82.2 45 83.7 43.5 85.2 40.5 89.7 34.5 104.7 33 107.7 30 112.2 27 113.7 M43.5 85.2 40.5 91.2 37.5 101.7 36 106.2 34.5 109.2 31.5 112.2 27 113.7 24 113.7 22.5 112.2 22.5 109.2 24 107.7 27 107.7 30 109.2 34.5 112.2 37.5 113.7 42 113.7 45 112.2 48 109.2 M69 112.95 67.88 115.2 65.63 120.83 63.38 127.58 62.25 129.83 60 133.2 57.75 134.33 M62.25 117.45 61.13 119.7 58.88 120.83 56.63 120.83 55.5 118.58 55.5 116.33 56.63 114.08 58.88 111.83 62.25 110.7 72.38 110.7 70.13 111.83 69 112.95 67.88 116.33 65.63 125.33 64.5 128.7 63.38 130.95 61.13 133.2 57.75 134.33 55.5 134.33 53.25 133.2 52.13 132.08 52.13 130.95 53.25 129.83 54.38 130.95 53.25 132.08 M64.5 110.7 69 111.83 70.13 111.83 M87.75 76.2 84.75 79.2 81.75 83.7 78.75 89.7 77.25 97.2 77.25 103.2 78.75 110.7 81.75 116.7 84.75 121.2 87.75 124.2 M84.75 79.2 81.75 85.2 80.25 89.7 78.75 97.2 78.75 103.2 80.25 110.7 81.75 115.2 84.75 121.2 M117.25 67.8 122.25 70.2 117.25 72.6 M112.25 64.2 120.58 70.2 112.25 76.2 M92.25 70.2 120.58 70.2 M96.75 82.2 99.75 82.2 102.75 83.7 104.25 85.2 105.75 88.2 114.75 109.2 116.25 112.2 117.75 113.7 M99.75 82.2 102.75 85.2 104.25 88.2 113.25 109.2 114.75 112.2 117.75 113.7 119.25 113.7 M107.25 92.7 95.25 113.7 M107.25 92.7 96.75 113.7 M126.75 76.2 129.75 79.2 132.75 83.7 135.75 89.7 137.25 97.2 137.25 103.2 135.75 110.7 132.75 116.7 129.75 121.2 126.75 124.2 M129.75 79.2 132.75 85.2 134.25 89.7 135.75 97.2 135.75 103.2 134.25 110.7 132.75 115.2 129.75 121.2 M149.25 95.7 176.25 95.7 M149.25 104.7 176.25 104.7 M194.63 64.2 217.13 95.7 192.38 136.2 M192.38 64.2 214.88 95.7 M190.13 64.2 214.88 97.95 M190.13 64.2 241.88 64.2 246.38 79.95 239.63 64.2 M194.63 133.95 241.88 133.95 M192.38 136.2 241.88 136.2 246.38 120.45 239.63 136.2 M164.81 136.2 162.56 138.45 160.31 141.83 158.06 146.33 156.94 151.95 156.94 156.45 158.06 162.08 160.31 166.58 162.56 169.95 164.81 172.2 M162.56 138.45 160.31 142.95 159.19 146.33 158.06 151.95 158.06 156.45 159.19 162.08 160.31 165.45 162.56 169.95 M172.69 148.58 183.94 164.33 M173.81 148.58 185.06 164.33 M174.94 148.58 186.19 164.33 M185.06 149.7 173.81 163.2 M170.44 148.58 178.31 148.58 M181.69 148.58 188.44 148.58 M170.44 164.33 177.19 164.33 M180.56 164.33 188.44 164.33 M171.56 148.58 173.81 149.7 M177.19 148.58 174.94 149.7 M182.81 148.58 185.06 149.7 M187.31 148.58 185.06 149.7 M173.81 163.2 171.56 164.33 M173.81 163.2 176.06 164.33 M183.94 163.2 181.69 164.33 M185.06 163.2 187.31 164.33 M196.31 164.33 195.19 163.2 196.31 162.08 197.44 163.2 197.44 165.45 196.31 167.7 195.19 168.83 M216.56 150.83 217.69 148.58 217.69 153.08 216.56 150.83 215.44 149.7 213.19 148.58 208.69 148.58 206.44 149.7 205.31 150.83 205.31 153.08 206.44 155.33 208.69 156.45 214.31 157.58 216.56 158.7 217.69 162.08 M206.44 149.7 205.31 153.08 M206.44 154.2 208.69 155.33 214.31 156.45 216.56 157.58 M217.69 158.7 216.56 163.2 M205.31 150.83 206.44 153.08 208.69 154.2 214.31 155.33 216.56 156.45 217.69 158.7 217.69 162.08 216.56 163.2 214.31 164.33 209.81 164.33 207.56 163.2 206.44 162.08 205.31 159.83 205.31 164.33 206.44 162.08 M224.44 136.2 226.69 138.45 228.94 141.83 231.19 146.33 232.31 151.95 232.31 156.45 231.19 162.08 228.94 166.58 226.69 169.95 224.44 172.2 M226.69 138.45 228.94 142.95 230.06 146.33 231.19 151.95 231.19 156.45 230.06 162.08 228.94 165.45 226.69 169.95 M259.31 145.2 251.44 145.2 246.94 146.33 244.69 147.45 242.44 149.7 241.31 153.08 241.31 155.33 242.44 158.7 244.69 160.95 246.94 162.08 251.44 163.2 259.31 163.2 M241.31 154.2 254.81 154.2 M281.81 142.95 280.69 145.2 278.44 150.83 276.19 157.58 275.06 159.83 272.81 163.2 270.56 164.33 M275.06 147.45 273.94 149.7 271.69 150.83 269.44 150.83 268.31 148.58 268.31 146.33 269.44 144.08 271.69 141.83 275.06 140.7 285.19 140.7 282.94 141.83 281.81 142.95 280.69 146.33 278.44 155.33 277.31 158.7 276.19 160.95 273.94 163.2 270.56 164.33 268.31 164.33 266.06 163.2 264.94 162.08 264.94 160.95 266.06 159.83 267.19 160.95 266.06 162.08 M277.31 140.7 281.81 141.83 282.94 141.83 M291.56 82.2 291.56 113.7 M293.06 82.2 293.06 113.7 M287.06 82.2 293.06 82.2 M287.06 113.7 297.56 113.7 M314.06 92.7 309.56 94.2 306.56 97.2 305.06 101.7 305.06 104.7 306.56 109.2 309.56 112.2 314.06 113.7 317.06 113.7 321.56 112.2 324.56 109.2 326.06 104.7 326.06 101.7 324.56 97.2 321.56 94.2 317.06 92.7 314.06 92.7 M314.06 92.7 311.06 94.2 308.06 97.2 306.56 101.7 306.56 104.7 308.06 109.2 311.06 112.2 314.06 113.7 M317.06 113.7 320.06 112.2 323.06 109.2 324.56 104.7 324.56 101.7 323.06 97.2 320.06 94.2 317.06 92.7 M342.56 92.7 339.56 94.2 338.06 95.7 336.56 98.7 336.56 101.7 338.06 104.7 339.56 106.2 342.56 107.7 345.56 107.7 348.56 106.2 350.06 104.7 351.56 101.7 351.56 98.7 350.06 95.7 348.56 94.2 345.56 92.7 342.56 92.7 M339.56 94.2 338.06 97.2 338.06 103.2 339.56 106.2 M348.56 106.2 350.06 103.2 350.06 97.2 348.56 94.2 M350.06 95.7 351.56 94.2 354.56 92.7 354.56 94.2 351.56 94.2 M338.06 104.7 336.56 106.2 335.06 109.2 335.06 110.7 336.56 113.7 341.06 115.2 348.56 115.2 353.06 116.7 354.56 118.2 M335.06 110.7 336.56 112.2 341.06 113.7 348.56 113.7 353.06 115.2 354.56 118.2 354.56 119.7 353.06 122.7 348.56 124.2 339.56 124.2 335.06 122.7 333.56 119.7 333.56 118.2 335.06 115.2 339.56 113.7 M372.56 82.2 363.56 113.7 M374.06 82.2 365.06 113.7 M368.06 82.2 386.06 82.2 390.56 83.7 392.06 86.7 392.06 89.7 390.56 94.2 387.56 97.2 381.56 98.7 369.56 98.7 M386.06 82.2 389.06 83.7 390.56 86.7 390.56 89.7 389.06 94.2 386.06 97.2 381.56 98.7 M359.06 113.7 369.56 113.7 M410.06 76.2 407.06 79.2 404.06 83.7 401.06 89.7 399.56 97.2 399.56 103.2 401.06 110.7 404.06 116.7 407.06 121.2 410.06 124.2 M407.06 79.2 404.06 85.2 402.56 89.7 401.06 97.2 401.06 103.2 402.56 110.7 404.06 115.2 407.06 121.2 M434.06 95.7 435.56 92.7 435.56 98.7 434.06 95.7 432.56 94.2 429.56 92.7 423.56 92.7 420.56 94.2 419.06 95.7 419.06 98.7 420.56 101.7 423.56 103.2 431.06 104.7 434.06 106.2 435.56 110.7 M420.56 94.2 419.06 98.7 M420.56 100.2 423.56 101.7 431.06 103.2 434.06 104.7 M435.56 106.2 434.06 112.2 M419.06 95.7 420.56 98.7 423.56 100.2 431.06 101.7 434.06 103.2 435.56 106.2 435.56 110.7 434.06 112.2 431.06 113.7 425.06 113.7 422.06 112.2 420.56 110.7 419.06 107.7 419.06 113.7 420.56 110.7 M446.06 76.2 446.06 124.2 M458.06 92.7 473.06 113.7 M459.56 92.7 474.56 113.7 M461.06 92.7 476.06 113.7 M474.56 94.2 459.56 112.2 M455.06 92.7 465.56 92.7 M470.06 92.7 479.06 92.7 M455.06 113.7 464.06 113.7 M468.56 113.7 479.06 113.7 M456.56 92.7 459.56 94.2 M464.06 92.7 461.06 94.2 M471.56 92.7 474.56 94.2 M477.56 92.7 474.56 94.2 M459.56 112.2 456.56 113.7 M459.56 112.2 462.56 113.7 M473.06 112.2 470.06 113.7 M474.56 112.2 477.56 113.7 M486.56 76.2 489.56 79.2 492.56 83.7 495.56 89.7 497.06 97.2 497.06 103.2 495.56 110.7 492.56 116.7 489.56 121.2 486.56 124.2 M489.56 79.2 492.56 85.2 494.06 89.7 495.56 97.2 495.56 103.2 494.06 110.7 492.56 115.2 489.56 121.2 M509.06 100.2 536.06 100.2 M554.44 64.2 576.94 95.7 552.19 136.2 M552.19 64.2 574.69 95.7 M549.94 64.2 574.69 97.95 M549.94 64.2 601.69 64.2 606.19 79.95 599.44 64.2 M554.44 133.95 601.69 133.95 M552.19 136.2 601.69 136.2 606.19 120.45 599.44 136.2 M555 140.7 553.88 141.83 555 142.95 556.13 141.83 555 140.7 M546 153.08 547.13 150.83 549.38 148.58 552.75 148.58 553.88 149.7 553.88 153.08 551.63 159.83 551.63 163.2 552.75 164.33 M551.63 148.58 552.75 149.7 552.75 153.08 550.5 159.83 550.5 163.2 551.63 164.33 555 164.33 557.25 162.08 558.38 159.83 M564 150.83 584.25 150.83 M564 157.58 584.25 157.58 M595.5 145.2 597.75 144.08 601.13 140.7 601.13 164.33 M600 141.83 600 164.33 M595.5 164.33 605.63 164.33 M560.63 45.08 561.75 42.83 564 40.58 567.38 40.58 568.5 41.7 568.5 43.95 567.38 48.45 565.13 56.33 M566.25 40.58 567.38 41.7 567.38 43.95 566.25 48.45 564 56.33 M567.38 48.45 569.63 43.95 571.88 41.7 574.13 40.58 576.38 40.58 578.63 41.7 579.75 42.83 579.75 45.08 576.38 56.33 M576.38 40.58 578.63 42.83 578.63 45.08 575.25 56.33 M578.63 48.45 580.88 43.95 583.13 41.7 585.38 40.58 587.63 40.58 589.88 41.7 591 42.83 591 45.08 588.75 51.83 588.75 55.2 589.88 56.33 M587.63 40.58 589.88 42.83 589.88 45.08 587.63 51.83 587.63 55.2 588.75 56.33 592.13 56.33 594.38 54.08 595.5 51.83 M614.06 100.2 685.46 100.2 M631.28 44.4 633.83 44.4 636.38 45.68 637.65 46.95 638.92 49.5 646.58 67.35 647.85 69.9 649.13 71.18 M633.83 44.4 636.38 46.95 637.65 49.5 645.3 67.35 646.58 69.9 649.13 71.18 650.4 71.18 M640.2 53.33 630 71.18 M640.2 53.33 631.28 71.18 M661.56 68.63 660.6 69.58 661.56 70.54 662.51 69.58 661.56 68.63 M653.91 79.14 654.86 77.23 656.78 75.32 659.64 75.32 660.6 76.28 660.6 79.14 658.69 84.88 658.69 87.75 659.64 88.71 M658.69 75.32 659.64 76.28 659.64 79.14 657.73 84.88 657.73 87.75 658.69 88.71 661.56 88.71 663.47 86.79 664.43 84.88 M656.78 31.65 657.73 32.61 656.78 33.56 655.82 32.61 655.82 31.65 656.78 29.74 657.73 28.78 660.6 27.83 664.43 27.83 667.29 28.78 668.25 29.74 669.21 31.65 669.21 33.56 668.25 35.48 665.38 37.39 660.6 39.3 658.69 40.26 656.78 42.17 655.82 45.04 655.82 47.91 M664.43 27.83 666.34 28.78 667.29 29.74 668.25 31.65 668.25 33.56 667.29 35.48 664.43 37.39 660.6 39.3 M655.82 45.99 656.78 45.04 658.69 45.04 663.47 46.95 666.34 46.95 668.25 45.99 669.21 45.04 M658.69 45.04 663.47 47.91 667.29 47.91 668.25 46.95 669.21 45.04 669.21 43.13 M619.16 130.5 620.44 131.77 619.16 133.05 617.89 131.77 617.89 130.5 619.16 127.95 620.44 126.68 624.26 125.4 629.36 125.4 633.19 126.68 634.46 127.95 635.74 130.5 635.74 133.05 634.46 135.6 630.64 138.15 624.26 140.7 621.71 141.98 619.16 144.52 617.89 148.35 617.89 152.18 M629.36 125.4 631.91 126.68 633.19 127.95 634.46 130.5 634.46 133.05 633.19 135.6 629.36 138.15 624.26 140.7 M617.89 149.63 619.16 148.35 621.71 148.35 628.09 150.9 631.91 150.9 634.46 149.63 635.74 148.35 M621.71 148.35 628.09 152.18 633.19 152.18 634.46 150.9 635.74 148.35 635.74 145.8 M663.79 134.32 651.04 134.32 647.21 135.6 644.66 139.43 643.39 143.25 643.39 147.07 644.66 149.63 645.94 150.9 648.49 152.18 651.04 152.18 654.86 150.9 657.41 147.07 658.69 143.25 658.69 139.43 657.41 136.88 656.14 135.6 653.59 134.32 M651.04 134.32 648.49 135.6 645.94 139.43 644.66 143.25 644.66 148.35 645.94 150.9 M651.04 152.18 653.59 150.9 656.14 147.07 657.41 143.25 657.41 138.15 656.14 135.6 M656.14 135.6 663.79 135.6 M670.16 112.65 671.12 113.61 670.16 114.56 669.21 113.61 669.21 112.65 670.16 110.74 671.12 109.78 673.99 108.83 677.81 108.83 680.68 109.78 681.64 110.74 682.59 112.65 682.59 114.56 681.64 116.48 678.77 118.39 673.99 120.3 672.08 121.26 670.16 123.17 669.21 126.04 669.21 128.91 M677.81 108.83 679.73 109.78 680.68 110.74 681.64 112.65 681.64 114.56 680.68 116.48 677.81 118.39 673.99 120.3 M669.21 126.99 670.16 126.04 672.08 126.04 676.86 127.95 679.73 127.95 681.64 126.99 682.59 126.04 M672.08 126.04 676.86 128.91 680.68 128.91 681.64 127.95 682.59 126.04 682.59 124.13 "/></svg>